<xml version="1.0" encoding="utf-8"?>
<!-- Generator: Adobe Illustrator 25.2.0, SVG Export Plug-In . SVG Version: 6.00 Build 0)  -->
<svg version="1.1" id="Layer_1" xmlns="http://www.w3.org/2000/svg" xmlns:xlink="http://www.w3.org/1999/xlink" x="0px" y="0px"
	 viewBox="0 0 1402.8 1483.1" style="enable-background:new 0 0 1402.8 1483.1;" xml:space="preserve">
<style type="text/css">
	.st0{fill-rule:evenodd;clip-rule:evenodd;fill:#FFFFFF;}
	.st1{opacity:0.35;fill-rule:evenodd;clip-rule:evenodd;fill:#59CAAF;enable-background:new    ;}
	.st2{fill-rule:evenodd;clip-rule:evenodd;fill:url(#SVGID_1_);}
	.st3{fill-rule:evenodd;clip-rule:evenodd;fill:url(#SVGID_2_);}
	.st4{fill-rule:evenodd;clip-rule:evenodd;fill:url(#SVGID_3_);}
	.st5{fill-rule:evenodd;clip-rule:evenodd;fill:#4A9FF8;}
	.st6{fill-rule:evenodd;clip-rule:evenodd;fill:#4C68E5;}
	.st7{opacity:0.5;fill-rule:evenodd;clip-rule:evenodd;fill:#3856D8;enable-background:new    ;}
	.st8{fill-rule:evenodd;clip-rule:evenodd;fill:#6BB6FF;}
	.st9{fill-rule:evenodd;clip-rule:evenodd;fill:#00FFFF;}
	.st10{opacity:0.5;fill-rule:evenodd;clip-rule:evenodd;fill:url(#SVGID_4_);enable-background:new    ;}
	.st11{fill-rule:evenodd;clip-rule:evenodd;fill:#E5EDFF;}
	.st12{fill-rule:evenodd;clip-rule:evenodd;fill:#D1E7FF;}
	.st13{opacity:0.5;fill-rule:evenodd;clip-rule:evenodd;fill:#FFFFFF;enable-background:new    ;}
	.st14{fill-rule:evenodd;clip-rule:evenodd;fill:#22D2FB;}
	.st15{fill-rule:evenodd;clip-rule:evenodd;fill:#12A3EB;}
	.st16{fill-rule:evenodd;clip-rule:evenodd;fill:#1C8DF3;}
	.st17{opacity:0.5;fill-rule:evenodd;clip-rule:evenodd;fill:url(#SVGID_5_);enable-background:new    ;}
	.st18{fill-rule:evenodd;clip-rule:evenodd;fill:#D0E7FF;}
	.st19{fill-rule:evenodd;clip-rule:evenodd;fill:url(#SVGID_6_);}
	.st20{opacity:0.5;fill-rule:evenodd;clip-rule:evenodd;fill:url(#SVGID_7_);enable-background:new    ;}
	.st21{fill-rule:evenodd;clip-rule:evenodd;fill:url(#SVGID_8_);}
	.st22{opacity:0.5;fill-rule:evenodd;clip-rule:evenodd;fill:url(#SVGID_9_);enable-background:new    ;}
	.st23{fill-rule:evenodd;clip-rule:evenodd;fill:url(#SVGID_10_);}
	.st24{opacity:0.5;fill-rule:evenodd;clip-rule:evenodd;fill:url(#SVGID_11_);enable-background:new    ;}
	.st25{fill-rule:evenodd;clip-rule:evenodd;fill:url(#SVGID_12_);}
	.st26{opacity:0.25;fill-rule:evenodd;clip-rule:evenodd;fill:#6D6AFD;enable-background:new    ;}
	.st27{fill-rule:evenodd;clip-rule:evenodd;fill:#4A9EF8;}
	.st28{opacity:0.5;fill-rule:evenodd;clip-rule:evenodd;fill:#4164F3;enable-background:new    ;}
	.st29{opacity:0.5;fill-rule:evenodd;clip-rule:evenodd;fill:url(#SVGID_13_);enable-background:new    ;}
	.st30{fill-rule:evenodd;clip-rule:evenodd;fill:url(#SVGID_14_);}
	.st31{opacity:0.2;fill-rule:evenodd;clip-rule:evenodd;fill:#6D6AFD;enable-background:new    ;}
	.st32{fill-rule:evenodd;clip-rule:evenodd;fill:url(#SVGID_15_);}
	.st33{fill-rule:evenodd;clip-rule:evenodd;fill:#FFA698;}
	.st34{fill-rule:evenodd;clip-rule:evenodd;fill:url(#SVGID_16_);}
	.st35{fill-rule:evenodd;clip-rule:evenodd;fill:url(#SVGID_17_);}
	.st36{fill-rule:evenodd;clip-rule:evenodd;fill:url(#SVGID_18_);}
	.st37{opacity:0.35;fill-rule:evenodd;clip-rule:evenodd;fill:#3469C0;enable-background:new    ;}
	.st38{fill-rule:evenodd;clip-rule:evenodd;fill:#193161;}
	.st39{fill-rule:evenodd;clip-rule:evenodd;fill:url(#SVGID_19_);}
	.st40{opacity:0.3;fill-rule:evenodd;clip-rule:evenodd;fill:#1E2353;enable-background:new    ;}
	.st41{fill-rule:evenodd;clip-rule:evenodd;fill:url(#SVGID_20_);}
	.st42{fill-rule:evenodd;clip-rule:evenodd;fill:url(#SVGID_21_);}
	.st43{fill-rule:evenodd;clip-rule:evenodd;fill:#70B4F5;}
	.st44{fill-rule:evenodd;clip-rule:evenodd;fill:url(#SVGID_22_);}
	.st45{fill-rule:evenodd;clip-rule:evenodd;fill:url(#SVGID_23_);}
	.st46{fill-rule:evenodd;clip-rule:evenodd;fill:url(#SVGID_24_);}
	.st47{fill-rule:evenodd;clip-rule:evenodd;fill:url(#SVGID_25_);}
	.st48{fill-rule:evenodd;clip-rule:evenodd;fill:#562E65;}
	.st49{fill-rule:evenodd;clip-rule:evenodd;fill:url(#SVGID_26_);}
	.st50{fill-rule:evenodd;clip-rule:evenodd;fill:url(#SVGID_27_);}
	.st51{fill-rule:evenodd;clip-rule:evenodd;fill:#22043D;}
	.st52{fill-rule:evenodd;clip-rule:evenodd;fill:url(#SVGID_28_);}
	.st53{fill-rule:evenodd;clip-rule:evenodd;fill:url(#SVGID_29_);}
	.st54{fill-rule:evenodd;clip-rule:evenodd;fill:#161F69;}
	.st55{fill-rule:evenodd;clip-rule:evenodd;fill:url(#SVGID_30_);}
	.st56{fill-rule:evenodd;clip-rule:evenodd;fill:url(#SVGID_31_);}
	.st57{fill-rule:evenodd;clip-rule:evenodd;fill:url(#SVGID_32_);}
	.st58{fill-rule:evenodd;clip-rule:evenodd;fill:url(#SVGID_33_);}
	.st59{fill-rule:evenodd;clip-rule:evenodd;fill:url(#SVGID_34_);}
	.st60{fill-rule:evenodd;clip-rule:evenodd;fill:url(#SVGID_35_);}
	.st61{fill-rule:evenodd;clip-rule:evenodd;fill:url(#SVGID_36_);}
	.st62{fill-rule:evenodd;clip-rule:evenodd;fill:#FF8F7F;}
</style>
<g>
	<g id="Layer_2_1_">
		<g id="Layer_1-2">
			<path class="st0" d="M1072.7,1207.1l-4.6,8.3l-16.7-9.3l4.6-8.3L1072.7,1207.1z M937.8,140.3l11,6.1l4.6-8.3l-11-6.1L937.8,140.3
				z M957.2,151.1l4.6-8.3l16.7,9.3l-4.6,8.3L957.2,151.1z M982.2,165l4.6-8.3l16.7,9.3l-4.6,8.3L982.2,165L982.2,165z
				 M1007.2,178.9l4.6-8.3l16.7,9.3l-4.6,8.3L1007.2,178.9z M1032.2,192.8l4.6-8.3l16.7,9.3l-4.6,8.3L1032.2,192.8z M1057.2,206.8
				l4.6-8.3l16.7,9.3l-4.6,8.3L1057.2,206.8z M1082.2,220.7l4.6-8.3l16.7,9.3l-4.6,8.3L1082.2,220.7z M1107.2,234.6l4.6-8.3
				l16.7,9.3l-4.6,8.3L1107.2,234.6z M1132.2,248.5l4.6-8.3l16.7,9.3l-4.6,8.3L1132.2,248.5L1132.2,248.5z M1157.2,262.4l4.6-8.3
				l16.7,9.3l-4.6,8.3L1157.2,262.4z M1182.2,276.3l4.6-8.3l16.7,9.3l-4.6,8.3l-16.5-9.3L1182.2,276.3z M1207.2,290.2l4.6-8.3
				l16.7,9.3l-4.6,8.3l-16.5-9.3L1207.2,290.2z M1232.2,304.1l4.6-8.3l16.7,9.3l-4.6,8.3l-16.5-9.3L1232.2,304.1z M1257.4,318
				l4.6-8.3l16.7,9.3l-4.6,8.3L1257.4,318z M1282.4,332l4.6-8.3l16.7,9.3l-4.6,8.3L1282.4,332z M1306.9,345.8
				c4.7,3.4,8.7,7.6,11.9,12.4l7.9-5.3c-3.8-5.8-8.7-10.9-14.3-15L1306.9,345.8L1306.9,345.8z M1323.1,365.9c2.5,5.3,4.2,11,5,16.8
				l0,0l9.4-1.3c-1-6.8-2.9-13.4-5.8-19.6L1323.1,365.9L1323.1,365.9z M1328.6,391.5c-0.2,6-1.6,12.8-2.4,18.4l9.4,1.4
				c0.9-6,2.3-13.1,2.5-19.4L1328.6,391.5L1328.6,391.5z M1324.8,419.3l9.4,1.4l-2.8,18.9l-9.4-1.4L1324.8,419.3z M1320.6,447.6
				l9.4,1.4l-2.7,18.8l-9.4-1.4L1320.6,447.6L1320.6,447.6z M1316.5,476l9.4,1.4l-2.8,18.9l-9.4-1.4L1316.5,476z M1312.4,504.2
				l9.4,1.4l-2.8,18.9l-9.4-1.4L1312.4,504.2L1312.4,504.2z M1308.2,532.6l9.4,1.4l-2.8,18.9l-9.4-1.4L1308.2,532.6z M1304.1,560.9
				l9.4,1.4l-2.8,18.9l-9.4-1.4L1304.1,560.9z M1299.9,589.2l9.4,1.4l-2.8,18.9l-9.4-1.4L1299.9,589.2z M1295.8,617.5l9.4,1.4
				l-2.8,18.9l-9.4-1.4L1295.8,617.5L1295.8,617.5z M1291.6,645.9l9.4,1.4l-2.8,18.9l-9.4-1.4L1291.6,645.9z M1287.5,674.2l9.4,1.4
				l-2.8,18.9l-9.4-1.4L1287.5,674.2z M1283.3,702.5l9.4,1.4l-2.8,18.9l-9.4-1.4L1283.3,702.5z M1279.2,730.8l9.4,1.4l-2.8,18.9
				l-9.5-1.4L1279.2,730.8L1279.2,730.8z M1275,759.1l9.4,1.4l-2.8,18.9l-9.4-1.4L1275,759.1z M1270.9,787.5l9.4,1.4l-2.8,18.9
				l-9.4-1.4L1270.9,787.5z M1266.7,815.8l9.4,1.4l-2.8,18.9l-9.4-1.4L1266.7,815.8L1266.7,815.8z M1262.6,844.1l9.4,1.4l-2.8,18.9
				l-9.4-1.4L1262.6,844.1z M1258.4,872.4l9.4,1.4l-2.8,18.9l-9.4-1.4L1258.4,872.4z M1254.2,900.8l9.4,1.4l-2.7,18.9l-9.4-1.4
				L1254.2,900.8L1254.2,900.8z M1250.1,929.1l9.4,1.4l-2.8,18.9l-9.4-1.3L1250.1,929.1L1250.1,929.1z M1245.9,957.4l9.4,1.4
				l-2.8,18.9l-9.4-1.4L1245.9,957.4z M1241.8,985.7l9.4,1.4l-2.8,18.9l-9.4-1.4L1241.8,985.7z M1237.6,1014l9.4,1.4l-2.7,18.9
				l-9.4-1.4L1237.6,1014L1237.6,1014z M1233.5,1042.4l9.4,1.4l-2.8,18.9l-9.4-1.4L1233.5,1042.4z M1229.3,1070.7l9.4,1.4l-2.8,18.9
				l-9.4-1.4L1229.3,1070.7z M1225.2,1099l9.4,1.4l-2.8,18.9l-9.4-1.4L1225.2,1099z M1221,1127.3l9.4,1.4l-2.8,18.9l-9.4-1.4
				L1221,1127.3z M1216.9,1155.6l9.5,1.4l-2.8,18.9l-9.4-1.4L1216.9,1155.6L1216.9,1155.6z M1212.8,1184l9.4,1.4l-2.8,18.9l-9.4-1.4
				L1212.8,1184L1212.8,1184z M1208.6,1212.3l9.4,1.4l-2.8,18.9l-9.4-1.4L1208.6,1212.3z M1204.5,1240.6l9.4,1.4l-0.6,4.4
				c-0.7,5.5-2.6,10.8-5.4,15.6l-8.1-5c2.2-3.7,3.5-7.8,4.1-12L1204.5,1240.6L1204.5,1240.6z M1194.6,1262.6
				c-4.1,3-9.3,4.1-14.3,2.9l-1.9,9.3c7.6,1.7,15.6,0,21.9-4.6L1194.6,1262.6z M1172.8,1262.7l-4.6,8.3l-16.7-9.3l4.6-8.3
				L1172.8,1262.7z M1147.8,1248.8l-4.6,8.3l-16.7-9.3l4.6-8.3L1147.8,1248.8z M1122.8,1234.9l-4.6,8.3l-16.7-9.3l4.6-8.3
				L1122.8,1234.9z M1097.8,1221l-4.6,8.3l-16.7-9.3l4.6-8.3L1097.8,1221z"/>
			<path class="st1" d="M836.4,21.5c8.7,4.8,13.7,10.4,19.4,18.4c-0.1-1.4-0.1,3.7-0.1-4.2s-4.5-20.7,1.7-27.1
				c2.4-2.5,14.4-7.2,17.3-7.9c5.5-1.4,11.9-0.5,18.7,3.3c10.4,5.7,19.8,16.7,26.6,30S931,69.4,931,77.4s0,2.8-0.1,4.1
				c5.8-1.7,11-1.7,19.9,3.2s20.2,17.1,27.1,30.6s11.4,29.4,11.4,44.2c0,11.6-2.6,20.7-7.1,27.1s-13.2,10.2-19.4,12.2
				c-17.7,6.2-52-29.8-70-40l-57.2-32.3c-10.3-5.8-19.6-17-26.2-30.3s-10.6-28.7-10.5-43.2c0.1-8.4-6.1-21.1,1.9-27.1
				C813.2,16.6,826.4,16,836.4,21.5z"/>
			
				<linearGradient id="SVGID_1_" gradientUnits="userSpaceOnUse" x1="833.7681" y1="-1820.3196" x2="902.6882" y2="-2013.9595" gradientTransform="matrix(1 0 0 -1 0 -1850.4734)">
				<stop  offset="0" style="stop-color:#FD90DA"/>
				<stop  offset="1" style="stop-color:#8E6DFD"/>
			</linearGradient>
			<path class="st2" d="M826.3,25.8c8.7,4.8,13.7,10.4,19.4,18.4c-0.1-1.4-0.1,3.7-0.1-4.2s4.3-25.2,11.1-31s16.2-6.5,26.6-0.8
				s19.8,16.7,26.6,30S921,73.7,921,81.7s0,2.8-0.1,4.1c5.8-1.7,11-1.7,19.9,3.2s20.2,17.1,27.1,30.6s11.4,29.4,11.4,44.2
				s-4.3,25.9-11.3,31.8s-16.6,6.4-27.2,0.4l-58-32.8l-57.2-32.3c-10.3-5.8-19.6-17-26.2-30.3s-10.6-28.7-10.5-43.2
				s4.4-25.1,11.1-30.9S817.6,21,826.3,25.8z"/>
			<polygon class="st0" points="846.3,97.3 828.5,87 856.5,135.4 884.6,119.4 866.9,109.2 866.9,63.5 846.4,51.7 			"/>
			<polygon class="st0" points="907.9,117 925.7,127.3 897.7,78.9 869.6,94.9 887.4,105.2 887.3,150.8 907.9,162.6 			"/>
			<path class="st0" d="M377.5,154.8l4-7.3l14.5,8.1l-4,7.3L377.5,154.8L377.5,154.8z M398.9,835.5l-10.9-6.1l-4,7.3l10.9,6.1
				L398.9,835.5L398.9,835.5z M380.7,825.4l-4,7.3l-14.6-8.1l4-7.3L380.7,825.4L380.7,825.4z M358.9,813.3l-4,7.3l-14.5-8.1l4-7.3
				L358.9,813.3L358.9,813.3z M337,801.2l-4,7.3l-14.5-8.1l4-7.3L337,801.2L337,801.2z M315.2,789l-4,7.3l-14.5-8.1l4-7.3L315.2,789
				z M293.4,776.9l-4,7.3l-14.5-8.1l4-7.3L293.4,776.9z M271.6,764.8l-4,7.2l-7.5-4.2c-2.7-1.5-5.1-3.4-7.3-5.5l5.9-5.9
				c1.6,1.6,3.5,3.1,5.5,4.2L271.6,764.8L271.6,764.8z M254,750.7c-2.7-4.2-4.6-9-5.5-13.9l-8.2,1.5c1.1,6,3.4,11.7,6.7,16.8
				L254,750.7L254,750.7z M247.9,729.4c0.2-5.3,1.4-11,2.2-16l-8.2-1.2c-0.8,5.2-2,11.4-2.2,16.9L247.9,729.4L247.9,729.4z
				 M251.2,705.1l-8.2-1.2l2.4-16.5l8.2,1.2L251.2,705.1L251.2,705.1z M254.8,680.4l-8.2-1.2l2.4-16.5l8.2,1.2L254.8,680.4z
				 M258.5,655.7l-8.2-1.2l2.4-16.5l8.2,1.2L258.5,655.7L258.5,655.7z M262.1,631l-8.2-1.2l2.4-16.5l8.2,1.2L262.1,631L262.1,631z
				 M265.7,606.3l-8.2-1.2l2.4-16.5l8.2,1.2L265.7,606.3z M269.3,581.6l-8.2-1.2l2.4-16.4l8.2,1.2L269.3,581.6L269.3,581.6z
				 M272.9,556.9l-8.2-1.2l2.4-16.5l8.2,1.2L272.9,556.9z M276.6,532.2l-8.2-1.2l2.4-16.5l8.2,1.2L276.6,532.2L276.6,532.2z
				 M280.2,507.5l-8.2-1.2l2.4-16.5l8.2,1.2L280.2,507.5L280.2,507.5z M283.8,482.8l-8.2-1.2l2.4-16.5l8.2,1.2L283.8,482.8z
				 M287.4,458.1l-8.2-1.2l2.4-16.5l8.2,1.2L287.4,458.1L287.4,458.1z M291,433.4l-8.2-1.2l2.4-16.5l8.3,1.2L291,433.4L291,433.4z
				 M294.7,408.7l-8.2-1.2l2.4-16.5l8.2,1.2L294.7,408.7L294.7,408.7z M298.3,384l-8.2-1.2l2.4-16.5l8.2,1.2L298.3,384z
				 M301.9,359.3l-8.2-1.2l2.4-16.5l8.2,1.2L301.9,359.3L301.9,359.3z M305.5,334.6l-8.2-1.2l2.4-16.4l8.2,1.2L305.5,334.6
				L305.5,334.6z M309.1,309.9l-8.2-1.2l2.5-16.4l8.2,1.2L309.1,309.9L309.1,309.9z M312.8,285.2l-8.2-1.2l2.4-16.5l8.2,1.2
				L312.8,285.2L312.8,285.2z M316.4,260.5l-8.2-1.2l2.4-16.5l8.2,1.2L316.4,260.5L316.4,260.5z M320,235.8l-8.2-1.2l2.4-16.5
				l8.2,1.2L320,235.8z M323.6,211.1l-8.2-1.1l2.4-16.5l8.2,1.2L323.6,211.1L323.6,211.1z M327.2,186.4l-8.2-1.2l2.4-16.4l8.2,1.2
				L327.2,186.4L327.2,186.4z M330.9,161.7l-8.2-1.2c0.8-5.2,1.3-12.1,3.5-17.3l7.7,3.2C332,150.6,331.4,158.2,330.9,161.7
				L330.9,161.7z M337.4,141.2c3.2-2.7,7.6-3.5,11.5-1.9l2.7-7.9c-6.7-2.5-14.3-1.1-19.7,3.6L337.4,141.2z M355.6,142.7l4-7.3
				l14.5,8.1l-4,7.3L355.6,142.7z"/>
			<path class="st1" d="M1024.6,1304l-503.8-278.6c-12.4-5.7-30.6-11-42.7-3.6l-31,18.9c-6.2,3.8-26.8,16.4-13,23.9
				c40.4,22,469.2,261.1,510.2,283.4c7.8,4.2,19.1,5.8,31,4.8s24.2-4.2,33.6-10l12.4-7.7c8.8-5.4,13.6-11.3,14.1-17
				S1032.2,1307.5,1024.6,1304z"/>
			
				<linearGradient id="SVGID_2_" gradientUnits="userSpaceOnUse" x1="876.2369" y1="-2281.5486" x2="680.9969" y2="-3015.2288" gradientTransform="matrix(1 0 0 -1 0 -1850.4734)">
				<stop  offset="0" style="stop-color:#D1E8FF"/>
				<stop  offset="1" style="stop-color:#EAEFFF"/>
			</linearGradient>
			<path class="st3" d="M646.6,53.6c-7.2-4.1-15.8-5.6-23.8-2.6L605,58c-6.5,33.5,369.3,1262,377.6,1270.5l15.9-6
				c10.4-4.1,15.9-15,17.5-25.6l134.4-917.4c0,0,0-0.1,0-0.1c2.2-15.4-2.4-31.5-10.9-44.4c-4.6-7-10.6-13.3-17.9-17.3L646.6,53.6z"
				/>
			
				<linearGradient id="SVGID_3_" gradientUnits="userSpaceOnUse" x1="1006.9638" y1="-2662.8293" x2="331.8138" y2="-2287.5896" gradientTransform="matrix(1 0 0 -1 0 -1850.4734)">
				<stop  offset="0" style="stop-color:#6D6AFE"/>
				<stop  offset="1" style="stop-color:#3FB0F7"/>
			</linearGradient>
			<path class="st4" d="M1103.9,324.5L629,60.4c-19.4-10.7-37.8-0.4-41.2,22.9l-134.4,917.4c-3.4,23.4,9.4,51,28.8,61.8l474.9,264.1
				c19.4,10.7,37.8,0.5,41.3-22.9l134.4-917.4C1136.2,362.9,1123.3,335.2,1103.9,324.5z"/>
			<path class="st5" d="M1103.9,324.5L629,60.4c-19.4-10.7-37.8-0.4-41.2,22.9l-6.9,47l545,303.1l6.9-47.1
				C1136.2,362.9,1123.3,335.2,1103.9,324.5z"/>
			<path class="st6" d="M625,125.5c-6.1-5-9.8-15.5-8.2-23.4s7.9-10.2,14-5.1s9.8,15.5,8.2,23.4S631.1,130.5,625,125.5z"/>
			<path class="st6" d="M663.9,149.1c-6.1-5-9.8-15.5-8.2-23.4s7.9-10.2,14-5.2s9.8,15.5,8.2,23.4S670,154.1,663.9,149.1z"/>
			<path class="st6" d="M702.7,172.6c-6.1-5-9.8-15.5-8.2-23.4s7.9-10.2,14-5.1s9.8,15.5,8.2,23.4S708.8,177.7,702.7,172.6z"/>
			<path class="st7" d="M1075.4,547c-2.1-1.2-4.1,0-4.5,2.5c-0.3,2.7,0.9,5.3,3.1,6.8c2.2,1.2,4.2,0.1,4.6-2.5
				C1078.9,551.1,1077.7,548.5,1075.4,547z M535.2,671.6l3.7,2l38.8-264.9l-3.7-2L535.2,671.6z M577.7,394.6c-2.1-1.1-4.1,0-4.5,2.6
				c-0.3,2.7,0.9,5.3,3.1,6.8c2.2,1.2,4.2,0.1,4.6-2.5C581.3,398.8,580.1,396.1,577.7,394.6L577.7,394.6z M593.5,717.6l3.7,2
				L636,454.7l-3.7-2L593.5,717.6L593.5,717.6z M636,440.5c-2.1-1.2-4.2,0-4.6,2.6c-0.3,2.7,0.9,5.3,3.2,6.8c2.2,1.2,4.2,0,4.6-2.5
				C639.6,444.7,638.3,442,636,440.5z M662.8,687.7l3.7,2l38.8-264.8l-3.7-2.1L662.8,687.7L662.8,687.7z M705.5,410.7
				c-2.2-1.2-4.2,0-4.6,2.5c-0.3,2.7,0.9,5.3,3.2,6.8c2.1,1.1,4.1,0,4.5-2.5C708.9,414.8,707.7,412.2,705.5,410.7z M732.3,657.8
				l3.6,2l38.8-264.9l-3.6-2L732.3,657.8z M774.8,380.8c-2.2-1.2-4.1,0-4.5,2.6c-0.3,2.7,0.9,5.3,3.2,6.7c2.2,1.2,4.2,0,4.5-2.5
				C778.3,384.9,777.1,382.3,774.8,380.8L774.8,380.8z M794.2,678.5l3.7,2l38.8-264.9l-3.7-2L794.2,678.5L794.2,678.5z M836.8,401.5
				c-2.1-1.2-4.2,0-4.6,2.6c-0.3,2.7,0.9,5.3,3.2,6.8c2.2,1.2,4.2,0,4.6-2.5C840.3,405.6,839.1,403,836.8,401.5L836.8,401.5z
				 M850.6,737.1l3.7,2.1l38.8-264.9l-3.7-2.1L850.6,737.1z M893.2,460.1c-2.1-1.2-4.1,0-4.5,2.6c-0.3,2.7,0.9,5.3,3.1,6.7
				c2.2,1.2,4.2,0,4.6-2.5C896.7,464.3,895.5,461.6,893.2,460.1z M905.2,808.4l3.7,2l38.8-264.9l-3.7-2L905.2,808.4L905.2,808.4z
				 M947.8,531.4c-2.2-1.2-4.2,0-4.6,2.5c-0.3,2.7,0.9,5.3,3.2,6.8c2.1,1.2,4.2,0,4.5-2.5C951.3,535.5,950,532.9,947.8,531.4z
				 M963.5,854l3.6,2l38.8-264.9l-3.6-2L963.5,854z M1006,577c-2.1-1.2-4.1,0-4.5,2.5c-0.3,2.7,0.9,5.3,3.1,6.8
				c2.2,1.2,4.2,0,4.6-2.5C1009.5,581.1,1008.3,578.5,1006,577L1006,577z M1032.8,824l3.7,2.1l38.8-264.9l-3.7-2L1032.8,824z"/>
			<path class="st7" d="M1098.5,573.1c-0.6-1.1-1.4-2-2.4-2.6c-1.1-0.7-2.5-0.7-3.5,0c-9,7-17.3,13-25,18.1s-14.8,9.6-21.4,13.3
				c-30.9,16.9-53.3,18.1-75.3,5.8c-21.6-12.4-42.4-38.6-69.6-75.5c-30.4-41.2-57.2-69.2-84.2-84.1c-3.9-2.2-7.9-4.1-12-5.8
				c-31.1-12.8-62.8-8.4-100.7,12.9c-3.9,2.1-7.7,4.4-11.5,6.6c-29.2,16.9-56.5,32.7-86,16.3c-15.3-8.5-31.2-25.7-48.3-56
				c-0.6-1.1-1.4-1.9-2.4-2.5c-1.1-0.7-2.5-0.7-3.6,0.1c-1.7,1.4-1.9,4.8-0.4,7.4c19.1,33.8,36.7,52.9,53.5,62.3
				c31.8,17.6,60.9,0.7,92-17.3c3.9-2.1,7.6-4.3,11.5-6.5c36.1-20.3,66.1-24.7,95.3-12.8c3.7,1.5,7.3,3.3,10.8,5.2
				c25.5,14.1,51.2,41,80.6,80.8c28.2,38.2,49.8,65.4,73.3,78.9l1.3,0.8c23.2,12.9,47.5,11.8,80.4-6.1c6.8-3.7,14.1-8.2,22-13.5
				c7.8-5.3,16.2-11.4,25.2-18.4C1099.9,579.2,1100.1,575.9,1098.5,573.1z"/>
			<path class="st8" d="M1093.5,553.7c-0.5-1.1-1.4-1.9-2.4-2.5c-1.1-0.7-2.5-0.7-3.5,0.1c-9,7.1-17.3,13.2-25,18.5
				s-14.8,9.8-21.4,13.5c-30.9,17.3-53.3,18.8-75.3,6.9c-21.6-12.1-42.4-38-69.6-74.5c-30.4-40.8-57.2-68.4-84.2-83
				c-3.9-2.1-7.9-4-12-5.6c-31.1-12.4-62.8-7.5-100.6,14.3c-3.9,2.2-7.7,4.5-11.5,6.7c-29.2,17.3-56.5,33.5-86,17.5
				c-15.3-8.3-31.2-25.3-48.3-55.3c-0.6-1-1.4-1.9-2.4-2.5c-1.1-0.7-2.5-0.6-3.6,0.1c-1.7,1.4-1.9,4.8-0.4,7.4
				c19,33.6,36.7,52.4,53.5,61.5c31.8,17.2,60.9-0.2,92-18.6c3.9-2.2,7.6-4.4,11.5-6.6c36.3-20.8,66.3-25.6,95.4-14.1
				c3.7,1.5,7.3,3.2,10.8,5.1c25.5,13.8,51.2,40.2,80.6,79.6c28.2,37.8,49.8,64.7,73.3,77.9l1.3,0.7c23.2,12.5,47.5,11.1,80.4-7.2
				c6.8-3.8,14.1-8.4,22-13.8s16.2-11.7,25.2-18.8C1094.8,559.7,1095,556.5,1093.5,553.7z"/>
			<path class="st9" d="M1087.5,551.2c-14.8,11.6-30.1,22.7-46.4,32c-30.9,17.3-53.3,18.8-75.3,6.9c-21.6-12.1-42.4-38-69.6-74.5
				c-24.1-32.3-57.6-73.3-96.2-88.6c-41.5-16.5-76.2-0.2-112.2,21c-29.2,17.3-56.5,33.5-86,17.5c-15.3-8.3-31.2-25.3-48.3-55.3
				c-0.6-1-1.4-1.9-2.4-2.5c4.8,12.4,26.5,49.3,47.5,60.7c31.8,17.2,59.1,2.1,90.2-16.3c34.7-19.8,70.6-37.5,110.6-21.6
				c36.4,14.5,71.4,57,94.1,87.5c28.2,37.8,48.5,63.5,71.9,76.7c19.5,10.9,35.9,10.3,53.1,3.9
				C1036.6,591.9,1078.4,565.6,1087.5,551.2z"/>
			
				<linearGradient id="SVGID_4_" gradientUnits="userSpaceOnUse" x1="636.3264" y1="-2594.9131" x2="732.9965" y2="-2395.2031" gradientTransform="matrix(1 0 0 -1 0 -1850.4734)">
				<stop  offset="0" style="stop-color:#965CF2"/>
				<stop  offset="1" style="stop-color:#FF8ADC"/>
			</linearGradient>
			<path class="st10" d="M811.3,617.9L532.1,463.2L493,730.1l281.9,156.2c19.8,10.9,38.6,0.5,42.1-23.4l23.7-182.1
				C844.2,657.1,831,628.8,811.3,617.9z"/>
			<path class="st11" d="M806.2,674.4l-27.1,184.1l3.2,0.4l8.9-3.4c9.7-3.8,14.8-14,16.3-23.8l21.7-166.2c0,0,0,0,0-0.1
				c2-14.4-2.3-29.3-10.2-41.3c-4.2-6.5-9.8-12.4-16.7-16.1L446.7,410.8c-6.8-3.8-14.7-5.3-22.1-2.5l-7.8,3.1
				c-3.9,1.5-5.2,2.7-5.1,2.9C415.4,448.7,811.4,639.1,806.2,674.4z"/>
			<path class="st12" d="M793.4,611.4L437.8,414.3c-7.9-4.4-15.6-5-22.1-2.5c-8.3,3.2-14.5,11.6-16.3,23.8l-21.7,166.2
				c-3.2,21.8,8.8,47.5,26.8,57.5l355.5,197.1c18,10,35.2,0.4,38.4-21.3l21.7-166.2C823.4,647.2,811.4,621.4,793.4,611.4z"/>
			<path class="st13" d="M800,680.7L597.4,569.3c-1.6-1-3.5-1.2-5.3-0.6c-2,0.8-3.5,2.8-3.9,5.7l-1.3,8.2
				c-0.8,5.2,2.1,11.3,6.4,13.7l202.5,111.4c4.3,2.4,8.4,0.1,9.2-5.1l1.3-8.2C807.1,689.2,804.3,683.1,800,680.7z"/>
			<path class="st13" d="M792.6,730.8L590.1,619.4c-1.6-1-3.5-1.2-5.3-0.6c-2,0.8-3.5,2.8-3.9,5.7l-1.3,8.2
				c-0.8,5.2,2.1,11.3,6.4,13.7l202.5,111.4c4.3,2.4,8.4,0.1,9.2-5.1l1.4-8.2C799.8,739.4,796.9,733.2,792.6,730.8z"/>
			<path class="st13" d="M663.3,712.5l-80.6-42.9c-1.6-1-3.5-1.2-5.3-0.6c-2,0.8-3.5,2.8-3.9,5.7l-1.4,8.2
				c-0.8,5.2,2.1,11.3,6.4,13.7l80.6,42.9c4.3,2.4,8.4,0.1,9.2-5.1l1.3-8.2C670.5,721,667.6,714.8,663.3,712.5z"/>
			<path class="st14" d="M405.1,517.9c-6.2,56.1,24.8,124.6,69.5,152.9s87.6-8.2,92.3-50.4s-3.2-59.8-16-87.6
				c-7.8,4.3-15.6,8.6-23.3,12.8c8.3,17.9,13.4,29.3,10.4,56.5s-30.6,50.6-59.3,32.4S430,572.2,434,536.2
				C424.5,530.1,414.8,524,405.1,517.9z"/>
			<path class="st15" d="M436.9,461.1c-16.7,9-28.6,28.7-31.8,56.8c9.7,6.1,19.4,12.2,28.9,18.3c2-18,9.6-30.7,20.4-36.5
				C448.5,486.9,442.7,474,436.9,461.1z"/>
			<path class="st16" d="M497.4,467.5c-22.4-14.2-43.8-15.6-60.5-6.5c5.8,12.9,11.6,25.8,17.5,38.7c10.8-5.8,24.6-4.9,38.8,4.1
				c14.3,9.1,26.6,24.7,34.6,42.4c7.8-4.2,15.5-8.4,23.3-12.7C538.6,505.9,519.7,481.6,497.4,467.5z"/>
			
				<linearGradient id="SVGID_5_" gradientUnits="userSpaceOnUse" x1="928.5016" y1="-2719.7097" x2="999.2817" y2="-2614.0298" gradientTransform="matrix(1 0 0 -1 0 -1850.4734)">
				<stop  offset="0" style="stop-color:#965CF2"/>
				<stop  offset="1" style="stop-color:#FF8ADC"/>
			</linearGradient>
			<path class="st17" d="M931.9,927.6c-41-32.7-65.4-100.5-54.7-151.6s52.6-66,93.6-33.3s65.4,100.5,54.7,151.6
				S972.8,960.3,931.9,927.6z"/>
			<path class="st18" d="M886.2,739.5c7.4-7.8,26.1-12.2,36.6-12.8c12.2-0.7,25.8,4.3,39.4,15.4c35.5,29.2,56.7,90.1,47.4,135.8
				c-2.8,13.6-7.7,24.5-14.7,31.9c-6.5,7-27.4,15.8-37,16.5C900.1,934.5,864.4,762.3,886.2,739.5z"/>
			
				<linearGradient id="SVGID_6_" gradientUnits="userSpaceOnUse" x1="958.6916" y1="-2619.3508" x2="914.4816" y2="-2715.6609" gradientTransform="matrix(1 0 0 -1 0 -1850.4734)">
				<stop  offset="0" style="stop-color:#FD90DA"/>
				<stop  offset="1" style="stop-color:#8E6DFD"/>
			</linearGradient>
			<path class="st19" d="M914.4,911.4c-35.5-29.3-56.7-90-47.4-135.8s45.6-59.1,81.1-29.9s56.7,90.1,47.4,135.8
				S949.9,940.7,914.4,911.4z"/>
			<polygon class="st0" points="966.7,799.7 976.3,806.7 906.5,873.7 880.2,804.7 893.1,812 910.3,836.5 			"/>
			
				<linearGradient id="SVGID_7_" gradientUnits="userSpaceOnUse" x1="768.1656" y1="-2987.8684" x2="875.1156" y2="-2802.7683" gradientTransform="matrix(1 0 0 -1 0 -1850.4734)">
				<stop  offset="0" style="stop-color:#965CF2"/>
				<stop  offset="1" style="stop-color:#FF8ADC"/>
			</linearGradient>
			<path class="st20" d="M1053.2,1064.7L631.7,831.3c-7.7-4.2-15.2-4.8-21.5-2.4c-8,3.1-14.1,11.3-15.8,23.1l-29.2,207.2
				c-3.1,21.1,8.6,46.1,26,55.8l388,214.8c4.2-1.6,24.8-5.2,25.9-11.3L1053.2,1064.7z"/>
			<path class="st18" d="M1081,1126.1l-32.9,214.3l3,0.4l8.2-3.2c0.4-0.2,0.8-0.3,1.2-0.5h0.1c9-3.6,13.7-12.9,15.1-22l27.9-197.8
				c0,0,0-0.1,0-0.1c1.9-13.3-2.1-27.2-9.4-38.3c-3.9-6-9.1-11.5-15.5-14.9L652.9,828.2c-6.3-3.6-13.6-4.9-20.5-2.3l-7.2,2.8
				c-0.8,0.3-1.4,0.6-2,0.8c-3.1,1.2-4.1,2.2-4.1,2.4C622.5,863.9,1085.8,1093.4,1081,1126.1z"/>
			
				<linearGradient id="SVGID_8_" gradientUnits="userSpaceOnUse" x1="860.637" y1="-3020.1062" x2="771.6169" y2="-2704.0164" gradientTransform="matrix(1 0 0 -1 0 -1850.4734)">
				<stop  offset="0" style="stop-color:#1C8EF4"/>
				<stop  offset="1" style="stop-color:#00CFDD"/>
			</linearGradient>
			<path class="st21" d="M1069.1,1067.8L643.3,832.1c-7.3-4.1-14.5-4.6-20.5-2.3c-7.7,3-13.4,10.8-15.1,22.1l-27.9,197.8
				c-3,20.1,8.2,44,24.8,53.2l425.8,235.7c16.7,9.2,32.6,0.4,35.6-19.8l27.9-197.8C1096.9,1100.9,1085.8,1077.1,1069.1,1067.8z"/>
			<path class="st18" d="M604.4,981.3c4.8-27.9,15.7-37.4,29.5-33.5c2.3,0.7,4.5,1.6,6.6,2.8c13.6,7.8,27.5,28.1,29.6,61.8
				c1.3,21.4,5.4,41,23.4,51.2c47.1,25.2,30.1-124.1,74.8-98.6c38.4,21.9,15.4,101.2,30.4,151.4c5.2,17.4,14.6,25.6,21,29.3
				c27.1,14.5,30.1-31.3,33.7-50.5c16.3-88.9,26.7-93.8,43.3-84.4c17.3,10,25,16.8,21.8,109.7c-1.3,38,0,72,26.7,88
				c29.8,17,32.5-17.9,45.7-34.9c7.9-10.1,18.1-12.2,27.4-6.8c10.1,5.8,19.1,20.1,23.1,42.4c6.6,37.2,3.6,88.8,1.6,106.8
				l-449.2-254.3C597.5,1034.5,600.2,1005.5,604.4,981.3z"/>
			
				<linearGradient id="SVGID_9_" gradientUnits="userSpaceOnUse" x1="485.0227" y1="-2605.6943" x2="524.7227" y2="-2807.1343" gradientTransform="matrix(1 0 0 -1 0 -1850.4734)">
				<stop  offset="0" style="stop-color:#FD70CB"/>
				<stop  offset="1" style="stop-color:#6E4DFD"/>
			</linearGradient>
			<path class="st22" d="M555,823.4L485.1,785l-30.3,206.6l70.7,38.8c19.7,10.9,38.5,0.4,41.9-23.3l16.9-121
				C587.8,862.5,574.7,834.3,555,823.4z"/>
			<path class="st18" d="M550.4,879.2l-20.9,128.7l3.2,0.4l8.9-3.4c9.7-3.8,14.8-14,16.2-23.8l15.5-110.8c0,0,0-0.1,0-0.1
				c2-14.4-2.3-29.3-10.2-41.3c-4.2-6.5-9.8-12.4-16.7-16.1l-136.3-74.8c-6.8-3.8-14.7-5.3-22.1-2.5l-7.8,3.1
				c-3.9,1.5-5.2,2.7-5.1,2.9C378.9,775.8,555.5,843.9,550.4,879.2z"/>
			<path class="st0" d="M537.5,816.2l-136.2-74.8c-7.9-4.4-15.6-5-22.1-2.5c-8.3,3.2-14.5,11.6-16.3,23.8l-15.4,110.8
				c-3.2,21.8,8.8,47.5,26.8,57.5l136.2,74.8c18,10,35.2,0.4,38.4-21.3l15.4-110.8C567.6,852,555.5,826.2,537.5,816.2z"/>
			
				<linearGradient id="SVGID_10_" gradientUnits="userSpaceOnUse" x1="441.1638" y1="-2768.8901" x2="464.6039" y2="-2688.77" gradientTransform="matrix(1 0 0 -1 0 -1850.4734)">
				<stop  offset="0" style="stop-color:#6D6AFE"/>
				<stop  offset="1" style="stop-color:#3FB0F7"/>
			</linearGradient>
			<path class="st23" d="M513.7,856.5c-1.4,9.4-8.8,13.7-16.6,9.4s-13-15.6-11.7-25s8.7-13.5,16.7-9.1
				C509.9,836.1,515,847.2,513.7,856.5L513.7,856.5z M470.9,940.3c1.4-9.4,8.7-13.5,16.7-9.1c7.8,4.3,12.9,15.3,11.6,24.8
				s-8.8,13.7-16.6,9.4S469.5,949.7,470.9,940.3L470.9,940.3z M422.1,859.6c-1.4,9.4-8.9,13.4-16.7,9.1s-12.9-15.3-11.6-24.7
				s8.8-13.7,16.6-9.4S423.5,850.2,422.1,859.6L422.1,859.6z M503.9,819.8c-13.3-7.4-26-0.5-28.4,15.6v1.2l-46.3,7.3
				c-3.3-9-9.4-16.8-17-21c-13.3-7.4-25.8-0.3-28.2,15.7c-2.3,15.9,6.4,34.8,19.7,42.2c7.7,4.2,15,3.7,20.2-0.6l37.3,53.8l-0.3,0.9
				c-2.3,16,6.6,35,19.9,42.3c13.1,7.3,25.8,0.4,28.2-15.7c2.3-15.9-6.6-35-19.7-42.3c-9.4-5.2-18.5-3.2-23.8,4l-35.3-51.5
				c1-2.1,1.6-4.3,1.8-6.5c0.4-2.5,0.5-5.1,0.3-7.6l44-7.5c2.6,11.6,9.7,22.6,19.2,27.8c13.1,7.3,25.8,0.3,28.2-15.7
				S517,827.1,503.9,819.8z"/>
			
				<linearGradient id="SVGID_11_" gradientUnits="userSpaceOnUse" x1="1043.5098" y1="-2311.4744" x2="1103.2097" y2="-2139.4944" gradientTransform="matrix(1 0 0 -1 0 -1850.4734)">
				<stop  offset="0" style="stop-color:#965CF2"/>
				<stop  offset="1" style="stop-color:#FF8ADC"/>
			</linearGradient>
			<path class="st24" d="M1169.6,338.8l-153.4-79.7l-16,7.7l-22.5,163.4c-3.3,22.7,9.2,49.6,28,60.1l103.6,56.7l17.6-6.8
				L1169.6,338.8z"/>
			<path class="st18" d="M1262.8,317.5l-39.8,263.6l3.4,0.4l9.3-3.6c10.2-4,15.5-14.6,17-24.9l34.1-244.9c0,0,0-0.1,0-0.1
				c2.1-15-2.4-30.6-10.6-43.2c-4.4-6.8-10.3-12.9-17.5-16.8l-181.2-99.3c-7.1-4-15.3-5.5-23.1-2.6l-8.2,3.2c-4.1,1.6-5.4,2.8-5.4,3
				C1044.8,188.4,1268.2,280.6,1262.8,317.5z"/>
			<path class="st0" d="M1249.4,251.7l-181.2-99.3c-8.3-4.6-16.3-5.2-23.1-2.6c-8.7,3.4-15.1,12.1-17,24.9L994,419.7
				c-3.3,22.7,9.2,49.6,28,60.1l181.2,99.3c18.8,10.4,36.8,0.4,40.1-22.3l34.1-244.9C1280.8,289.1,1268.2,262.2,1249.4,251.7z"/>
			
				<linearGradient id="SVGID_12_" gradientUnits="userSpaceOnUse" x1="1162.6808" y1="-2100.5117" x2="1114.5707" y2="-2285.1619" gradientTransform="matrix(1 0 0 -1 0 -1850.4734)">
				<stop  offset="0" style="stop-color:#6D6AFE"/>
				<stop  offset="1" style="stop-color:#3FB0F7"/>
			</linearGradient>
			<path class="st25" d="M1249.4,251.7l-181.2-99.3c-8.2-4.6-16.3-5.2-23.1-2.6c-8.7,3.4-15.1,12.1-17,24.9l-27.2,195l249.4,136.6
				l27.1-194.6C1280.8,289.1,1268.2,262.2,1249.4,251.7z"/>
			<path class="st26" d="M1020.7,402.5c0.6-4.5,4-6.5,7.7-4.5l82,44.5c3.6,2.1,6,7.5,5.4,12l-1.2,9c-0.6,4.5-4,6.5-7.7,4.5l-82-44.5
				c-3.6-2.1-6-7.5-5.4-12L1020.7,402.5z"/>
			<path class="st26" d="M1015.5,442c0.5-4,3.6-5.8,6.8-3.9c46.5,25.2,122.7,66.4,169.2,91.6c3.2,1.8,5.3,6.6,4.8,10.6l-1,7.9
				c-0.5,4-3.6,5.8-6.8,3.9c-46.5-25.2-122.7-66.4-169.2-91.6c-3.2-1.8-5.3-6.6-4.8-10.6L1015.5,442z"/>
			<path class="st27" d="M1221.2,303.8l-21.2,158l40.5,22.8l21.2-158L1221.2,303.8z M1105.9,187.2l-28.4,211.5l40.5,22.8l28.4-211.5
				L1105.9,187.2L1105.9,187.2z M1161.8,257.6l40.5,22.8l-23.5,175.3l-40.5-22.8L1161.8,257.6L1161.8,257.6z M1037.9,206.5
				l40.5,22.8l-21.2,158l-40.5-22.8L1037.9,206.5z"/>
			<path class="st28" d="M1029.2,268.4c-1.1-1.1-0.7-2.9,0.8-4.1s3.6-1.2,4.7-0.1l36.4,36.5l19,7.3l44.4-11.9l30.1-30.8
				c1.2-1.3,3.2-1.6,4.7-0.8c0.3,0.2,0.5,0.4,0.7,0.6l52.8,62.6l36.4,6.8c1.8-0.2,3.2,1,3.1,2.5c-0.4,1.7-1.8,3-3.6,3.2l-38-6.6
				c-1,0.2-2-0.2-2.7-0.9l-51.6-61.1l-27.9,28.5l0,0c-0.5,0.6-1.2,1-2,1.2l-46.8,12.5c-0.7,0.2-1.5,0.2-2.2-0.1l-20.4-7.8
				c-0.4-0.1-0.8-0.3-1.1-0.6L1029.2,268.4z"/>
			<path class="st0" d="M1029.1,269.2c-1-1.3-0.7-3.4,0.8-4.8s3.6-1.4,4.7-0.1l35.5,43.3l18.8,8.8l44.6-13.4l30.8-35.8
				c1.3-1.5,3.4-2,4.8-0.9c0.3,0.2,0.5,0.5,0.6,0.8l48.4,72.1l41.5-4.4c1.4-0.2,2.8,0.8,3,2.2c0,0.3,0,0.5,0,0.8
				c-0.3,1.9-1.7,3.4-3.7,3.7l-43.2,4.5c-1,0.2-2.1-0.2-2.7-1.1l-47.2-70.4l-28.5,33.2l0,0c-0.5,0.6-1.2,1.1-2,1.3l-47,14.1
				c-0.7,0.2-1.5,0.2-2.2-0.1l-20.2-9.4c-0.4-0.2-0.8-0.4-1.1-0.8L1029.1,269.2z"/>
			
				<linearGradient id="SVGID_13_" gradientUnits="userSpaceOnUse" x1="612.2601" y1="-2224.0332" x2="591.0001" y2="-2025.9431" gradientTransform="matrix(1 0 0 -1 0 -1850.4734)">
				<stop  offset="0" style="stop-color:#965CF2"/>
				<stop  offset="1" style="stop-color:#FF8ADC"/>
			</linearGradient>
			<path class="st29" d="M570.7,181.1l76.7,35.2c18.3,10.6,23.8,44.8,20.8,67.7l-15.6,114.8c-3,22.9-20.3,32.8-38.6,22.2l-69.5-42.2
				l2.8-19L570.7,181.1z"/>
			<path class="st18" d="M377.8,96.6c1-7.7-1.1-12.3,2.7-16.7c2.4-2.8,10.1-6.3,13.3-7.6c6.2-2.3,13.6-1.6,21.2,2.8l219.3,128.2
				c17.7,10.2,29.7,36.4,26.8,58.5l-15,110.8c-0.9,6.8-3.4,15.7-9.3,20.7c-4.2,3.6-11.1,7.3-16,7.9s-6.3-3.9-12-7.2L389.6,265.9
				c-17.7-10.2-29.7-36.4-26.8-58.5L377.8,96.6z"/>
			<path class="st0" d="M371.9,100.1c2.9-22.1,19.6-31.7,37.2-21.4l219.3,128.2c17.7,10.2,29.7,36.4,26.8,58.5l-15,110.8
				c-2.9,22.1-19.6,31.7-37.2,21.5L383.6,269.4c-17.7-10.2-29.7-36.4-26.8-58.5L371.9,100.1z"/>
			
				<linearGradient id="SVGID_14_" gradientUnits="userSpaceOnUse" x1="511.3431" y1="-2050.2117" x2="520.9631" y2="-1972.8016" gradientTransform="matrix(1 0 0 -1 0 -1850.4734)">
				<stop  offset="0" style="stop-color:#6D6AFE"/>
				<stop  offset="1" style="stop-color:#3FB0F7"/>
			</linearGradient>
			<path class="st30" d="M371.9,100.1c2.9-22.1,19.6-31.7,37.2-21.4l219.3,128.2c17.7,10.2,29.7,36.4,26.8,58.5l-1.4,10.4
				c-1.9-1.4-3.9-2.8-5.9-4L370.6,109.7L371.9,100.1z"/>
			<path class="st31" d="M410.6,168c22.3,5.1,39.5,31.7,38.3,59.4s-20.2,46-42.6,40.9s-39.5-31.7-38.3-59.4S388.3,162.9,410.6,168z"
				/>
			
				<linearGradient id="SVGID_15_" gradientUnits="userSpaceOnUse" x1="403.6771" y1="-2089.2012" x2="414.5271" y2="-2042.3611" gradientTransform="matrix(1 0 0 -1 0 -1850.4734)">
				<stop  offset="0" style="stop-color:#6D6AFE"/>
				<stop  offset="1" style="stop-color:#3FB0F7"/>
			</linearGradient>
			<path class="st32" d="M409.6,191.1c12,2.8,21.3,17.1,20.7,32s-10.9,24.8-23,22s-21.3-17.1-20.7-32S397.6,188.3,409.6,191.1
				L409.6,191.1z M409.1,203.8c-6.4-1.5-11.8,3.8-12.2,11.7s4.6,15.5,11,17s11.8-3.8,12.2-11.7S415.5,205.2,409.1,203.8z"/>
			<path class="st31" d="M462.3,221.3c0.8-5.9,5.2-8.4,9.9-5.6l143.2,81.2c4.7,2.8,7.9,9.9,7.1,15.8l-1.5,11.6
				c-0.8,5.9-5.2,8.4-9.9,5.6l-143.2-81.2c-4.7-2.8-7.9-9.9-7.1-15.8L462.3,221.3z"/>
			<path class="st31" d="M456.8,264.1c0.5-3.5,3.1-5,5.9-3.3l84.6,47.9c2.8,1.7,4.7,5.8,4.2,9.3l-0.9,6.9c-0.5,3.5-3.1,5-5.9,3.3
				l-84.6-47.9c-2.8-1.7-4.7-5.8-4.2-9.3L456.8,264.1z"/>
			<path class="st0" d="M395.8,90.4c4.9,1.1,8.6,6.9,8.3,12.9s-4.4,10-9.3,8.9s-8.6-6.9-8.3-13S390.9,89.3,395.8,90.4z"/>
			<path class="st0" d="M418,103.2c4.9,1.1,8.6,6.9,8.3,12.9s-4.4,10-9.3,8.9s-8.6-6.9-8.3-13S413.1,102,418,103.2z"/>
			<path class="st0" d="M442,117.1c4.9,1.1,8.6,6.9,8.3,13s-4.4,10-9.3,8.9s-8.6-6.9-8.3-12.9S437.1,116,442,117.1z"/>
			<path class="st1" d="M53.8,1177.3l158.7-90.4c17.3-7.9,42.1-14.2,59.7-5c16.1,8.4,42.5,25.5,54.2,32.1c8.9,5.1,39.7,23.6,20.5,34
				c-56.5,30.7-112.4,65.3-169.8,96.5c-10.8,5.9-26.7,8-43.4,6.7s-33.6-6.2-47-14l-28.1-16.4c-12.5-7.2-19-15.8-19.7-23.8
				C38.2,1189.3,43.1,1182.2,53.8,1177.3z"/>
			<path class="st33" d="M431.7,603.7c-1.3-0.2-2.5-0.5-3.7-0.9c1.4-0.2,2.5-0.4,3.3-0.5c5.7-3.3,8.7-4.8,15.2-9.7
				c-4.6-9.2-15.9,0.3-18.1,0.5c-0.9,0.1-6.8-1-12.5-1.2c-8.2-0.4-13.3,1.4-18.9,7.6c-2.6,1.8-5.5,4.1-8.5,6.4
				c0.7,7.7,1.7,14.2,6.4,20.9c1.4-0.6,2.9-1.1,4.4-1.2c5.8-0.6,11.4,0.7,24.2,5c13,4.3,15.3,4.2,35.3-10.2
				c14.7-10.6,22.7-16.5,20.2-24.3C473,577.8,449.8,601.1,431.7,603.7z"/>
			
				<linearGradient id="SVGID_16_" gradientUnits="userSpaceOnUse" x1="434.0905" y1="-2453.5332" x2="436.8104" y2="-2482.343" gradientTransform="matrix(1 0 0 -1 0 -1850.4734)">
				<stop  offset="0" style="stop-color:#FF8A78"/>
				<stop  offset="1" style="stop-color:#FFA799"/>
			</linearGradient>
			<path class="st34" d="M430,622.6c-12.5-2-21.2-12.3-31.5-6.3c-2.6,1.5-4.9,3-7.1,4.5c0.9,2.1,2,4,3.3,5.9
				c1.4-0.6,2.9-1.1,4.4-1.2c5.8-0.6,11.4,0.7,24.2,5c13,4.3,15.3,4.2,35.3-10.2c9.9-7.1,16.7-12.1,19.4-17c1.3-2.4-2.5-5.1-5.7-2.8
				C456.2,612,448.1,620.1,430,622.6z"/>
			
				<linearGradient id="SVGID_17_" gradientUnits="userSpaceOnUse" x1="436.3734" y1="-2451.522" x2="438.6134" y2="-2475.292" gradientTransform="matrix(1 0 0 -1 0 -1850.4734)">
				<stop  offset="0" style="stop-color:#FF8A78"/>
				<stop  offset="1" style="stop-color:#FFA799"/>
			</linearGradient>
			<path class="st35" d="M474.5,596.1c-5.5,4.2-34.3,17.4-41,16.1c-1.8-0.4-1.5-3.9-1.7-8.2c-1.4,2.9,0.3,9.3-2.4,7.9
				c-15.4-7.8-22.1-9.3-31-3.6c5.9-1.2,12-0.8,17.6,1.3c5.4,1.8,10.4,5,16.1,6.5C447,611.6,456.1,610.1,474.5,596.1z"/>
			
				<linearGradient id="SVGID_18_" gradientUnits="userSpaceOnUse" x1="287.657" y1="-2397.791" x2="325.607" y2="-2499.9009" gradientTransform="matrix(1 0 0 -1 0 -1850.4734)">
				<stop  offset="0" style="stop-color:#6D6AFE"/>
				<stop  offset="1" style="stop-color:#3FB0F7"/>
			</linearGradient>
			<path class="st36" d="M268.3,675.9c-3.1-3-6.1-6.3-8.1-8.2c-15.7-14.5-41.5-61.8-56-132c5.2-4.3,20.8-8.3,23.6-8.9
				c12.2-2.4,22.5,4,26.1,8.2c6.5,7.7,13.1,21.7,17.2,44.1c2.7,15.1,14,35.2,21.6,53.9c0.3,0.8,0.7,1.6,1,2.5
				c10.9-5.6,22-10.7,33.4-15.1c15.1-6,32.4-11.7,51-17.2c2.2-0.6,4.3,0.8,6.5,0.2c1.2-0.5,6.7-2.5,7.7-2.9c-0.1,11.1,3,20,9.1,27.1
				c-1.1,0.4-7.1,3.2-8.4,3.6c-1.8,0.9-4,3.7-5.4,5.1c-14,14.5-54.6,36.2-91.8,47.6C283.2,687.8,273.6,685.7,268.3,675.9z"/>
			<path class="st37" d="M268.3,675.9c-3.1-3-6.1-6.3-8.1-8.2c-15.7-14.5-41.5-61.8-56-132c31.2-25.5,61.2,16.5,66.3,44.7
				c6.6,36.5,13.1,67.6,13.5,105.3C277.1,685.4,271.8,682.3,268.3,675.9z"/>
			<path class="st38" d="M124.1,1131.4c-0.9,3.1-0.4,5.7-1.9,9.8c-2.1,5.1-3.8,10.4-5.1,15.8c-2.6,11,1,25.8-2.5,41.4
				c-1.8,6.2-1.7,11.2,2.5,16.8s11.7,14,21.7,13.7c4.1-0.2,7.8-2,10.5-5.1c4.5-5.1,6.8-11.7,6.3-18.5c-0.2-3-2-12.6-1.7-21.3
				c0.3-7.6,1.7-11.8,1.5-20.2c-0.2-8.9-0.9-21-1-26.8L124.1,1131.4z"/>
			<path class="st38" d="M212.2,1086c-2.9,7.8-4.8,11.2-4.9,22.2c1.8,5.8,5.8,8.1,10.4,12.1l3.2,0.7c7.9,4.3,10.8,19.3,18.2,26.2
				c5.2,4.8,15.5,7.5,25.8,9.4c11,2.1,21.4-1,18.5-9.6c-7.1-21.4-37.7-45.6-38.4-69.5L212.2,1086z"/>
			
				<linearGradient id="SVGID_19_" gradientUnits="userSpaceOnUse" x1="253.5668" y1="-2662.8433" x2="191.4167" y2="-2863.6333" gradientTransform="matrix(1 0 0 -1 0 -1850.4734)">
				<stop  offset="0" style="stop-color:#235DA3"/>
				<stop  offset="1" style="stop-color:#123A76"/>
			</linearGradient>
			<path class="st39" d="M258.2,933.3c-0.8,41-9.7,117.8-8.4,158.3c-10.5,10.5-31.5,7.3-38.3-3.5c-4.3-37.2-9.2-90.1-9.7-110.5
				c-0.4-17,1.1-32.6,5.5-47.9c-6.1-44.9-32-106.2-25.8-148.4c2.7-18.5,14.9-38.5,18.4-53.8c30.6,37.7,53.9,19.6,66.6,16.3
				c-0.1,13,0.9,11.3,0.5,25c-1.4,46.3-3.6,95.7-6.1,143.7C260.8,919.7,260.2,927.5,258.2,933.3z"/>
			<path class="st40" d="M204.4,1016.5c-1.4-16.2-2.5-30.2-2.7-38.9c-0.4-17,1.1-32.6,5.5-47.9c-6.1-44.9-32-106.2-25.8-148.4
				c2.7-18.5,14.9-38.5,18.4-53.8c30.6,37.7,53.9,19.6,66.6,16.3c0,1.5,0,2.7,0,3.8l-40.1,29.6l9.9-2.2c-0.4,53.3-7,101.9-8,154.5
				c-10.3,29.8-16.4,55.3-23.6,86L204.4,1016.5z"/>
			
				<linearGradient id="SVGID_20_" gradientUnits="userSpaceOnUse" x1="217.5817" y1="-2675.0508" x2="102.3317" y2="-2907.2708" gradientTransform="matrix(1 0 0 -1 0 -1850.4734)">
				<stop  offset="0" style="stop-color:#235DA3"/>
				<stop  offset="1" style="stop-color:#123A76"/>
			</linearGradient>
			<path class="st41" d="M190,963.2c-7.4,41-28.9,140.6-34,181c-13.2,7.3-30.2,3.5-34.8-7.2c-0.2-37.2,0-104.1,2.8-124.5
				c2.3-17,8.3-43.2,15.1-58.5c-2.7-95.9-13.4-121.4-0.5-163.7c5.7-18.6,20.6-36.5,26.6-51.8c8.2,12.6,20.9,30.5,48,28.3
				c2.7-0.2,25.3-16.4,32.8-18.2c-9.5,57-36.8,131.5-50,193.8C194.9,949.5,193,957.4,190,963.2z"/>
			
				<linearGradient id="SVGID_21_" gradientUnits="userSpaceOnUse" x1="183.3224" y1="-2424.4104" x2="219.3724" y2="-2609.1904" gradientTransform="matrix(1 0 0 -1 0 -1850.4734)">
				<stop  offset="0" style="stop-color:#6D6AFE"/>
				<stop  offset="1" style="stop-color:#3FB0F7"/>
			</linearGradient>
			<path class="st42" d="M232.4,525.9c3,0.4,5.9,1.4,8.5,2.8c20.2,11.2,27.2,44.2,30.5,73.1c2.8,25.1,0.7,45.9-0.1,68.8
				c-0.6,18.3,1.7,35.2,0.9,52.5c-0.2,5.1-2.2,10.7-2.7,16.2c0,3.9-1.4,7.8-1.3,10.8c-10.1,38.5-105.7,41.7-119.6,15.6
				c1.1-3.8,1.9-7.7,2.5-11.7c-9-8.2-3.8-28.2-5.2-42.1c-1.1-10.5-2.6-21.2-5.7-28.8c-13-32-31.1-56.6-34.7-81.2
				c-2.5-16.9,19.1-38,47.7-55C180.4,530.6,217.6,521.6,232.4,525.9z"/>
			<path class="st43" d="M271.4,602.7c-10.2,10.3-72.7,70-141.8,54.7l0.7-4.7c72.9,16.2,138.8-54.7,139-54.9l1.8,1.7l0.3,2.3
				C271.3,602.1,271.4,602.4,271.4,602.7z"/>
			<path class="st43" d="M272.5,639.8c-17.1,16.1-70.3,60.5-129.8,51.9c-0.4-1.8-0.9-3.4-1.4-5c63.4,10.3,120.2-42.8,131.4-53.9
				C272.6,635.1,272.6,637.4,272.5,639.8z"/>
			<path class="st43" d="M139.7,682.3l12.3-25.6l16.5,27.8l14.2-33.8l19.5,26.1l10.1-36.4l20.6,22.2l9.4-41.4l15.4,23.2l12.9-48.5
				c0.3,2,0.5,3.9,0.7,5.9c0.1,0.7,0.2,1.4,0.2,2.1l-12.6,47.5l-15.2-23l-9.1,40.1l-20.8-22.5l-10.3,37l-20-26.7L169,690.9l-16.6-28
				l-11.2,23.4c-0.3-1-0.7-2-1.1-3L139.7,682.3z"/>
			<path class="st43" d="M153.1,677.9c1.4,0.1,2.4,1.3,2.4,2.7c0,1.3-0.9,2.3-2.2,2.4c-0.1,0-0.2,0-0.2,0c-1.4-0.1-2.4-1.3-2.4-2.7
				c0-1.3,0.9-2.3,2.2-2.4C153,677.9,153.1,677.9,153.1,677.9z"/>
			<path class="st43" d="M167.8,663c1.4,0.1,2.4,1.3,2.4,2.7c0,1.3-0.9,2.3-2.2,2.4c-0.1,0-0.2,0-0.2,0c-1.4-0.1-2.4-1.3-2.4-2.7
				c0-1.3,0.9-2.3,2.2-2.4C167.6,663,167.7,663,167.8,663z"/>
			<path class="st43" d="M184.9,674c1.4,0.1,2.4,1.3,2.4,2.7c0,1.3-0.9,2.3-2.2,2.4c-0.1,0-0.2,0-0.2,0c-1.4-0.1-2.4-1.3-2.4-2.7
				c-0.1-1.3,0.9-2.3,2.2-2.4C184.7,674,184.8,674,184.9,674z"/>
			<path class="st43" d="M199.4,654.8c1.4,0.1,2.4,1.3,2.4,2.7c0,1.3-1,2.3-2.2,2.4c-0.1,0-0.1,0-0.2,0c-1.4-0.1-2.4-1.3-2.4-2.7
				c0-1.3,0.9-2.3,2.2-2.4C199.2,654.8,199.3,654.8,199.4,654.8z"/>
			<path class="st43" d="M217.6,662c1.4,0.1,2.4,1.3,2.4,2.7c0,1.3-0.9,2.3-2.2,2.4c-0.1,0-0.2,0-0.2,0c-1.4-0.1-2.4-1.3-2.4-2.7
				c0-1.3,1-2.3,2.2-2.4C217.4,662,217.5,662,217.6,662z"/>
			<path class="st43" d="M228.4,640.8c1.4,0.1,2.4,1.3,2.4,2.7c0,1.3-0.9,2.3-2.2,2.4c-0.1,0-0.2,0-0.2,0c-1.4-0.1-2.4-1.3-2.4-2.7
				c0-1.3,0.9-2.3,2.2-2.4C228.2,640.8,228.3,640.8,228.4,640.8z"/>
			<path class="st43" d="M246.7,645.3c1.4,0.1,2.4,1.3,2.4,2.7c0,1.3-0.9,2.3-2.2,2.4c-0.1,0-0.2,0-0.2,0c-1.4-0.1-2.4-1.3-2.4-2.7
				c0-1.3,0.9-2.3,2.2-2.4C246.6,645.3,246.6,645.3,246.7,645.3z"/>
			<path class="st43" d="M256.4,622.3c1.4,0.1,2.4,1.3,2.4,2.7c0,1.3-0.9,2.3-2.2,2.4c-0.1,0-0.2,0-0.2,0c-1.4-0.1-2.4-1.3-2.4-2.7
				c0-1.3,0.9-2.3,2.2-2.4C256.3,622.3,256.4,622.3,256.4,622.3z"/>
			<path class="st43" d="M272,624.7c0.2,0,0.4,0.1,0.6,0.1c0,1.6,0,3.3,0,4.9c-0.2,0-0.4,0-0.6,0c-1.4-0.1-2.4-1.3-2.4-2.7
				c0-1.3,1-2.3,2.2-2.3C271.9,624.7,272,624.7,272,624.7z"/>
			<path class="st43" d="M136.9,663.5c1.4,0.1,2.4,1.3,2.4,2.7c0,1.3-1,2.3-2.2,2.4c-0.1,0-0.1,0-0.2,0c-1.4-0.1-2.4-1.3-2.4-2.7
				c0-1.3,1-2.3,2.2-2.4C136.7,663.5,136.8,663.5,136.9,663.5z"/>
			<path class="st37" d="M151.8,615.3c3.7,19.7-1,53.2-10.7,70.8c-4.2-11.2-9.3-22-15.3-32.4C126.4,652.2,147.3,590.9,151.8,615.3z"
				/>
			
				<linearGradient id="SVGID_22_" gradientUnits="userSpaceOnUse" x1="159.9471" y1="-2653.9077" x2="168.0471" y2="-2639.8076" gradientTransform="matrix(1 0 0 -1 0 -1850.4734)">
				<stop  offset="0" style="stop-color:#FF8A78"/>
				<stop  offset="1" style="stop-color:#FFA799"/>
			</linearGradient>
			<path class="st44" d="M145.4,764.1c4.4,2.3,12.3,4.3,15.5,6c1.7,0.9,13.7,7.3,20.5,11.2c7.2,4.2,9.7,10.8,14.3,18
				c3.4,5.9,4.9,10.2,5.6,13.3s-7,9.7-10.4,9.2c-7.8-1.2-16.4-10.2-18.5-11.1c-17.9-7.9-26.3-8.2-33-15c-2.9-2.9-5.1-11.7-11.1-19.4
				l10-10.3L145.4,764.1z"/>
			
				<linearGradient id="SVGID_23_" gradientUnits="userSpaceOnUse" x1="99.3941" y1="-2462.0325" x2="120.7341" y2="-2618.1326" gradientTransform="matrix(1 0 0 -1 0 -1850.4734)">
				<stop  offset="0" style="stop-color:#6D6AFE"/>
				<stop  offset="1" style="stop-color:#3FB0F7"/>
			</linearGradient>
			<path class="st45" d="M103.8,590.3c-16,25.6-27.5,72.1-41.6,103.6c-1,2.1-1.6,4.4-1.8,6.7c-2.6,7.8,1.5,14.4,6.9,21.3
				c13.3,17,23.9,32.4,51.2,52.8c2,1.5,4.2,1.5,7.2,2.1c1.7,1.2,4.2,3.5,6,4.8c-2.3-2.6,9.7-17.6,15.5-17c-1.6-1.8-3.3-3.7-5-5.7
				c-0.4-2.7-0.5-4.4-1.7-6.6c-4.8-9.2-20.8-31.8-36.2-47.9c6.3-8.3,11.7-17.9,16.2-24.7c7.7-11.8,14.7-24,21.1-36.5
				c2.5-4.8,3.9-7.2,6.3-12.2C165.5,594.2,123.2,559.3,103.8,590.3z"/>
			<path class="st33" d="M218.5,544.6c0.3-1.5,0.7-3.1,1-4.7c0.9-4.7-0.3-13.9,1-24.7l-40.9-17.3c-0.7,23-4.4,27.7-8.7,46.4
				c0.5,18.4,46.2,26.6,47.1,5C218.1,547.7,218.3,546.2,218.5,544.6z"/>
			
				<linearGradient id="SVGID_24_" gradientUnits="userSpaceOnUse" x1="201.9832" y1="-2370.5776" x2="191.3731" y2="-2382.4875" gradientTransform="matrix(1 0 0 -1 0 -1850.4734)">
				<stop  offset="0" style="stop-color:#FF8A78"/>
				<stop  offset="1" style="stop-color:#FFA799"/>
			</linearGradient>
			<path class="st46" d="M218.5,544.6c0.3-1.5,0.7-3.1,1-4.7c0.9-4.7-0.3-13.9,1-24.7l-40.9-17.3c-0.2,5.2-0.5,9.5-0.9,13.2
				c-1.5,15.2,13.1,41.7,39.4,38.2C218.1,547.8,218.3,546.2,218.5,544.6z"/>
			<path class="st33" d="M220.9,543.6c-5-3.3-18.7-11.6-23.2-14.9c-9.8-7.2-8.6-16.4-11.5-30.8c-9.2-6.6-12.3-11.8-13.1-17.7
				c-2-14,6-29.1,16.7-37.3c9.3-7.2,20.1-9.2,32.2-6.6c23.5,5.1,33.1,22.9,34.4,43.2c0.1,1.7-0.1,3.4-0.7,5c-0.9,2.5-1.6,5-2.2,7.5
				c-1.2,6,2.8,8.2,1.2,15.7c-2.2,10.2-10.7,30-14.1,33.3C237.9,543.6,226.1,544.4,220.9,543.6z"/>
			
				<linearGradient id="SVGID_25_" gradientUnits="userSpaceOnUse" x1="237.7734" y1="-2335.5903" x2="224.6034" y2="-2368.0803" gradientTransform="matrix(1 0 0 -1 0 -1850.4734)">
				<stop  offset="0" style="stop-color:#FFB89E"/>
				<stop  offset="1" style="stop-color:#FFA799"/>
			</linearGradient>
			<path class="st47" d="M255.2,470.6c0.6,2.9,1,5.9,1.1,8.9c0.1,1.7-0.1,3.4-0.7,5c-0.9,2.5-1.6,5-2.2,7.6c-1.2,6,2.8,8.2,1.2,15.7
				c-1.6,6.4-3.7,12.7-6.3,18.7c-15.1,11.5-28.3-2.5-30.3-5.2c-9.5-12.2-10.2-30.5-3-47.5C225.8,477.4,243.7,476.6,255.2,470.6z"/>
			<path class="st48" d="M166.5,473.5c0.6,7.8,6.7,27.7,11.3,35.1c4.8,7.7,2.7-1.7,5.2-7c1.9-4,8.2-4.5,10.1-8.7
				c0.9,3.5,2.2,7,4.4,8.2c1.5,0.8,4.4,1.9,4.5-2.3c0.4-14.4,7.2-15.4,5.1-24c-1.6-6.5-1.2-9.2,0.3-11.6c4.7,0.7,7.7,5.5,13.2,7.9
				c3.8,1.6,20.7,3.4,32.7-3.1c11.6-6.3,12.7-20.5,3-29.6c-5.4-5.1-11.5-6.3-20-12c-16.2-10.9-36.5-7-47.5,5
				C167.4,435.8,165.1,456.1,166.5,473.5z"/>
			<path class="st33" d="M189.2,485.6c-8.8-4-10,6.6-9.2,13.1c0.5,4.5,4.2,4.5,5.2,8.1c1.2,4.3,4.2,6.5,7,6.7
				c5.6,0.4,3-8.2,2.6-11.6C196,496.7,194.8,488.2,189.2,485.6z"/>
			
				<linearGradient id="SVGID_26_" gradientUnits="userSpaceOnUse" x1="244.2524" y1="-2310.918" x2="234.5524" y2="-2301.6179" gradientTransform="matrix(1 0 0 -1 0 -1850.4734)">
				<stop  offset="0" style="stop-color:#8A4791"/>
				<stop  offset="1" style="stop-color:#562E65"/>
			</linearGradient>
			<path class="st49" d="M213.5,456.3c-0.9,6,6.9,13.1,17.8,13.7c10.1,0.5,23.8-1.8,28.8-14.1c1.8-4.3-0.4-12-5.3-15.1
				c-3.4-2.1-7.7-1.9-12.1,0.1c-7.5,3.3-13.7,11.6-19,13.7C218.6,456.4,213.6,455.7,213.5,456.3z"/>
			
				<linearGradient id="SVGID_27_" gradientUnits="userSpaceOnUse" x1="1277.1499" y1="-2554.4001" x2="1229.3099" y2="-2646.3801" gradientTransform="matrix(1 0 0 -1 0 -1850.4734)">
				<stop  offset="0" style="stop-color:#5A2D68"/>
				<stop  offset="1" style="stop-color:#22043D"/>
			</linearGradient>
			<path class="st50" d="M1194.1,601c-13.3-2.1-23.8,7.1-29.2,19.3c-6.2,14.3-5.9,32.8-3.3,42.6c8.7,31.6-6.6,45.4-12.2,60.1
				c-2.5,6.5-3.6,15-3.2,24.4c0.4,11.3,6.9,17.1,12.4,27.3c1.4,10.3,3.9,19.9,8,28c15,30,65.4,44.5,113.8,42.2
				c38.7-1.8,76.2-15.5,93.1-31.2c18.6-17.3,21-61.2-10.2-65.6c-7.3-1-15.8-2.6-22-10.2c-4.3-5.2-0.2-18.8,0.9-37
				c1-17.6-3-36.1-28.6-42.3c-9.8-2.4-19.3-3.3-27.5-8.7c-17.9-11.7-11.3-33.5-30.7-46.3c-11.7-7.7-30.5-9.4-51.1-3.7
				C1200.9,600.2,1197.5,600.6,1194.1,601z"/>
			<path class="st51" d="M1182.6,617.6c-1.1,8.6,2,16.1,7.1,23.3c11.9,16.8,18.2,15.5,24.7,36.9c10.7-7.2,18.1-8.2,21.2-1.2
				c5,11.3,1.8,18,3,29.7c1.9,19,24.6-7,42.4,7.5c17.5,14.3,5.5,24.3,12.2,44.6c2.5,7.6,4.5,17.5,11.6,20.9
				c22,10.4,30.4,36.6-8.7,49.7c-24.3,8.1-59.5,6-88.9-4c-38.9-13.2-62.8-70.6-52.9-97.8c4.1-11.3,15.2-19.7,15.2-28.5
				C1169.5,668.2,1163.7,648.8,1182.6,617.6z"/>
			
				<linearGradient id="SVGID_28_" gradientUnits="userSpaceOnUse" x1="1017.7781" y1="-2513.1846" x2="1021.0281" y2="-2510.7146" gradientTransform="matrix(1 0 0 -1 0 -1850.4734)">
				<stop  offset="0" style="stop-color:#FF8A78"/>
				<stop  offset="1" style="stop-color:#FFA799"/>
			</linearGradient>
			<path class="st52" d="M1006.2,644.4c-5.9,1.9-2.8,8.8-0.5,10.8c3.4,3.4,10.3,5.6,9.7,9.2c-0.7,4,21.6,11.7,21.6,11.4
				c-3.3-10.8-9-17.2-10.3-18C1014.8,649.7,1016.1,654.8,1006.2,644.4z"/>
			<path class="st33" d="M1021.8,690.3c12.8,17.1,22.9,50,35.8,65.4c4.1,4.8,10.1,12.8,17.1,11.6c36.4-6.3,3.3-20.4,7.2-30.4
				c-6.1-21.4-32.2-33.4-42.9-57.1c-0.6-1.6-1.2-3.2-2-4.8c-4.4-9-8.6-11.8-25.8-15c-5-0.9-6.7-2.6-9.8-5.1l-11.2-11.1
				c-3.7-3.1-6.8-4-8.4-3.2c-1.7,0.9-6.4,9.8-6.5,14.6l0,0c-0.6,1.8,1.3,5.1,5.7,8.5l13.9,19.5l1.2,0.2
				C1011.8,685.6,1018,687.1,1021.8,690.3z"/>
			
				<linearGradient id="SVGID_29_" gradientUnits="userSpaceOnUse" x1="1037.2262" y1="-2585.0493" x2="1153.1262" y2="-2558.8093" gradientTransform="matrix(1 0 0 -1 0 -1850.4734)">
				<stop  offset="0" style="stop-color:#965CF2"/>
				<stop  offset="1" style="stop-color:#FF8ADC"/>
			</linearGradient>
			<path class="st53" d="M1080.2,774.6c25.2-2.5,61.3-6.5,80.8-16.5c12.7-6.5,35.5-34.6,22.7-50.2c-2.7-7.3-27,8-39,12.6
				c-21.6,8.2-35.9,12.1-58.3,17.8c-6.1-17.1-22.2-30.6-34.9-46.5c-1.9-2.4-4.3-4.4-7.1-5.7c-1.6-1.9-2.9-3.9-4-6.1
				c-2.2-0.9-15.8,4.8-19.4,11.6c1,1.3,3.1,4.3,4.1,5.7c1.3,2.1,1,4.7,2.1,7c3.7,8.1,21.1,43.5,32.6,57.3
				c4.4,5.3,10.8,14.6,18.5,13.2L1080.2,774.6z"/>
			<path class="st1" d="M1080.2,774.6c25.2-2.5,61.3-6.5,80.8-16.5c11-5.7,29.5-27.3,26.1-43.2c-4.7-4.4-7.6-6.8-11.6-6.6
				c-5,0.2-11.1,5.6-22.7,11.6c-17.5,9.1-34.1,9.5-47.6,25.6c-10,11.9-26.7,22.1-40.9,21.7c3.9,4.5,8.7,8.8,14,7.9L1080.2,774.6z"/>
			<path class="st1" d="M1103.5,1370.7l158.7-90.4c17.3-7.9,42.1-14.2,59.7-5c16.1,8.4,42.5,25.5,54.2,32.1
				c8.9,5.1,39.7,23.5,20.5,34c-56.5,30.7-112.4,65.3-169.8,96.5c-10.9,5.9-26.7,8-43.4,6.7s-33.6-6.2-47-14l-28.1-16.4
				c-12.4-7.2-19.1-15.8-19.7-23.8C1087.9,1382.7,1092.9,1375.5,1103.5,1370.7z"/>
			<path class="st33" d="M1273.4,1241.4c-0.8,3.8,1.6,9.2,2,9.8c9.2,13.4-1.8,12.2-1.3,31.3c0,1.8-7.7,31.9-7.7,31.9
				s-18.3,4.4-19.7,4.2s-12.5-4.6-12.5-4.6c1-1.6,2.2-5.6,3-7.1c5.3-10.3,8.1-22.8,10.1-35.3c1.3-8.3,3.9-21.2,2.2-29.9
				L1273.4,1241.4z"/>
			<path class="st54" d="M1233.6,1313.8c-2.1,3.9-3.8,8-5.2,12.2c-0.7,1.6-0.6,3.4,0.2,4.9c4.2,6,26.6-4,34.2-10.2
				c4.9-4,5.2-9,6.5-15.1c2-9.1,2.3-10.1,4.8-19.4l1.6,25.5l2.1,1.3c0.8-10.3,2.3-24,4.3-32.8c0.8-3.5,2-7.5,2.2-9.4
				c1.3-11.5-4.2-17.3-9.3-20.8c1.7,7.1-4.6,18.3-7.4,32.6C1264.1,1299.9,1248.9,1313.9,1233.6,1313.8z"/>
			
				<linearGradient id="SVGID_30_" gradientUnits="userSpaceOnUse" x1="1174.8274" y1="-2808.7339" x2="1282.8474" y2="-3019.4438" gradientTransform="matrix(1 0 0 -1 0 -1850.4734)">
				<stop  offset="0" style="stop-color:#3E4795"/>
				<stop  offset="1" style="stop-color:#273088"/>
			</linearGradient>
			<path class="st55" d="M1152.6,889.9c1.7,7.8-6.3,34.9-4.2,45.3c2,34.3,8,63.2,31,131.8c0,0.8,21.1,42.7,22.5,47.1
				c14.4,44.7,32.3,93.2,47.5,138.4c5.7,4.4,22.7,3,24.9-7.6c-4.7-45.1,0.4-89.6-7.3-120.4c-5.9-23.5-13.6-34.2-26.3-51.7
				c-3.9-44.3-6.7-133.3-16.8-167.4L1152.6,889.9z"/>
			<path class="st40" d="M1152.6,889.9c1.7,7.8,6.9,22.3,9,32.8c6.4,15.8,20,37.4,29.2,55.5c2.7,22,2,51.2,15.7,92l12.4,94.2
				c10.2,29.5,21,59.5,30.6,88.1c5.7,4.4,22.7,3,24.9-7.6c-4.7-45.1,0.4-89.6-7.3-120.4c-5.9-23.5-13.6-34.2-26.3-51.7
				c-3.9-44.3-6.7-133.3-16.8-167.4L1152.6,889.9z"/>
			<path class="st33" d="M1255.4,1287.1c-0.4,4.2,1.5,8.4,2,12.5c1,7.3,1.5,14.8,1.4,22.2c-0.3,13.4-1.9,26.8-4.9,39.9
				c-1.3,5.6-3.7,7.9-5.4,15.5l-32.7,5.3c3.2-12.4,7.7-37.4,11-58.4l6.2-39.2L1255.4,1287.1z"/>
			<path class="st54" d="M1257,1297.5c1.9,6.6,4.1,10.1,4.3,19s-3.8,23-3.5,34l0.6,17.6c0.3,10.2-2.3,17.4-13.9,25.8
				c-10.6,7.7-20.8,10.8-26.4,8.1c-4.1-2-7.4-9.3-1.1-28.4c5.2-15.9,6.6-31.5,9.7-48.8c-1.1,17-1.5,22.7-5.6,39.3
				c-1.1,4.7-1.8,12.4,3.7,13.2c22.8,3.3,24-2.9,25.9-9.9C1255.7,1348.6,1259.4,1315.1,1257,1297.5z"/>
			
				<linearGradient id="SVGID_31_" gradientUnits="userSpaceOnUse" x1="1151.6234" y1="-2850.5491" x2="1317.4435" y2="-3036.939" gradientTransform="matrix(1 0 0 -1 0 -1850.4734)">
				<stop  offset="0" style="stop-color:#3E4795"/>
				<stop  offset="1" style="stop-color:#273088"/>
			</linearGradient>
			<path class="st56" d="M1265.5,916.9c25.4,31.8,26,49.4,20.5,87.6c-3.7,25.5-11.2,56.5-13,101.4c2.2,23.2,6.3,49.1,3.2,85
				c-2.3,26.5-9.8,71.8-15.4,103.9c-5.3,9.9-30.2,5.6-34.3,0.5c1.2-46,0.4-77.5-1.8-114.7c-2.1-36.1-6.4-69.6-9.2-105.3
				c-2.2-29.4-11.2-69.6-12.4-101.4c-4.8-15-49.7-64.7-40.3-64.1L1265.5,916.9z"/>
			
				<linearGradient id="SVGID_32_" gradientUnits="userSpaceOnUse" x1="1196.8994" y1="-2741.1938" x2="1220.4493" y2="-2601.6338" gradientTransform="matrix(1 0 0 -1 0 -1850.4734)">
				<stop  offset="0" style="stop-color:#965CF2"/>
				<stop  offset="1" style="stop-color:#FF8ADC"/>
			</linearGradient>
			<path class="st57" d="M1262.4,845.4c-11.4,26.4,8,41,1,59.2l2.2,12.3c-20.8,14.9-95.2,16-113.9-13.6l-0.4-14.8
				c-3.2-7.1-1.1-25-0.2-29.7c3-15,1.6-23,3.2-40.3c0.4-4.4,1.2-7.1,1.6-11.6c-16.6-12.4-15.5-36.3-5.7-50.7
				c5.1-7.1,9.4-14.7,12.9-22.8c0.7-4.4,1.6-8.7,2.9-13c0.7-2.6,1.9-5,3.5-7.1c4.7-6.8,12.4-7.6,28-4c31,7.1,62.8,23.2,77.1,38.3
				c10.3,11,9.9,23.2,4,49.7C1274.7,814.4,1268.2,832,1262.4,845.4z"/>
			<path class="st1" d="M1262.6,845.3c-11.4,26.4,7.5,41.5,0.5,59.6l2.2,12.1c-20.8,16.2-95.2,15.4-113.9-14.2l0.4-12.9
				c0-0.5,36.5,32.4,78.1,14.1c9-4,17.2-23.7,5.5-61.5c-1.1-3.6-14.4-3.8-33.1-17.7c13.9,5.9,40,13.9,41.3-21.3
				c0.6-15.8,2.9-27.6,11-38.6c3.9-5.3,26.8,22.6,23.3,35.9C1273.9,816,1268.7,830.8,1262.6,845.3z"/>
			
				<linearGradient id="SVGID_33_" gradientUnits="userSpaceOnUse" x1="1260.5836" y1="-2789.0598" x2="1255.3037" y2="-2779.5" gradientTransform="matrix(1 0 0 -1 0 -1850.4734)">
				<stop  offset="0" style="stop-color:#FF8A78"/>
				<stop  offset="1" style="stop-color:#FFA799"/>
			</linearGradient>
			<path class="st58" d="M1272.5,903.7c-3.8,2.3-10.7,4.5-13.5,6.2c-1.4,0.9-11.7,7.3-17.5,11.2c-6.2,4.2-7.9,10.2-11.6,16.8
				c-2.7,5.4-3.8,9.4-4.2,12.1s6.8,8.2,9.8,7.5c6.9-1.5,13.9-10,15.8-10.9c15.4-8,22.8-8.8,28.4-15.2c2.4-2.7,3.8-10.7,8.8-17.8
				l-9.5-8.6L1272.5,903.7z"/>
			
				<linearGradient id="SVGID_34_" gradientUnits="userSpaceOnUse" x1="1309.7252" y1="-2723.9849" x2="1281.7952" y2="-2606.145" gradientTransform="matrix(1 0 0 -1 0 -1850.4734)">
				<stop  offset="0" style="stop-color:#965CF2"/>
				<stop  offset="1" style="stop-color:#FF8ADC"/>
			</linearGradient>
			<path class="st59" d="M1274.4,745.8c22.9,14.5,48.3,54.3,71,89.8c4.5,5.8,3.3,13.4,1,17.6c-1.2,2.8-2.7,5.5-4.5,8
				c-10.8,15.9-21.3,30-44.4,49.6c-1.7,1.5-4.2,2.1-6.7,2.8c-1.4,1.2-3.5,3.4-5,4.6c1.9-2.5-9.6-14.8-14.8-14
				c1.3-1.7,2.7-3.5,4.1-5.4c0.2-2.4,0-3.8,0.9-5.9c7.5-17.1,17.1-34.2,29-47.3c-20.7-22.4-32.5-27.8-51.8-51.3
				C1229.7,765.9,1259.1,736.2,1274.4,745.8z"/>
			<path class="st33" d="M1226.5,687.5c-2.4,13.6-1.1,26.5,3.1,39.8c-11.2,10.3-31,5.9-35.6-3.4c1-6,2.1-11.6,2.8-17.8L1226.5,687.5
				z"/>
			
				<linearGradient id="SVGID_35_" gradientUnits="userSpaceOnUse" x1="1211.4321" y1="-2556.8445" x2="1213.692" y2="-2568.1646" gradientTransform="matrix(1 0 0 -1 0 -1850.4734)">
				<stop  offset="0" style="stop-color:#FF8A78"/>
				<stop  offset="1" style="stop-color:#FFA799"/>
			</linearGradient>
			<path class="st60" d="M1226.5,687.5c-1.1,6.3-1.5,12.8-1,19.2c-3.3,13.2-28,22.2-30.6,11.6c0.7-4.1,1.4-8.1,1.8-12.4
				L1226.5,687.5z"/>
			<path class="st33" d="M1180.4,629.8c-5.6,8.8-8.5,17.7-7.2,30.3c0.4,2.5,0,5-1,7.2c-5.2,11.7-4.7,15.4-2.2,24.8
				c2.5,9.2,2.3,13.9,5.5,17.1s8,4,12.1,4.2c8.3,0.5,22.6-5,30.9-9.5c6.2-3.4,5.9-5.7,8.5-11.5c8.7-7.6,3.1-13.1,0.2-13.7
				c-8.4-1.6-9.7,8-14.7,10.1C1213.3,671.9,1181.1,643.4,1180.4,629.8z"/>
			
				<linearGradient id="SVGID_36_" gradientUnits="userSpaceOnUse" x1="1171.1812" y1="-2512.7148" x2="1188.6211" y2="-2540.9648" gradientTransform="matrix(1 0 0 -1 0 -1850.4734)">
				<stop  offset="0" style="stop-color:#FFB89E"/>
				<stop  offset="1" style="stop-color:#FFA799"/>
			</linearGradient>
			<path class="st61" d="M1176.7,636.6c-3.1,6.8-4.5,14.1-3.6,23.5c0.4,2.5,0,5-1,7.2c-5.2,11.7-4.7,15.4-2.2,24.8
				c1.1,4.1,1.7,7.3,2.3,9.9c2.1,3.2,6.2,4.4,9.7,2.8c3.5-1.5,6.9-5.7,7.8-12.5c0.6-4.9,10.6-8.1,12.7-13c1.7-4.1-2.9-8.7-5.7-11
				C1187,660,1180.9,648.7,1176.7,636.6z"/>
			<path class="st62" d="M1180.4,629.8c4.7,20.8,31.8,36.5,32,59.1C1205.1,665.4,1178.7,649.3,1180.4,629.8z"/>
		</g>
	</g>
</g>
</svg>
