<svg xmlns="http://www.w3.org/2000/svg" xmlns:xlink="http://www.w3.org/1999/xlink" viewBox="0 0 1440.64 1495.89"><defs><style>.cls-1{isolation:isolate;}.cls-2,.cls-21{fill:#fff;}.cls-3{fill:#202249;}.cls-10,.cls-11,.cls-12,.cls-13,.cls-14,.cls-15,.cls-16,.cls-17,.cls-18,.cls-19,.cls-20,.cls-21,.cls-22,.cls-23,.cls-24,.cls-25,.cls-26,.cls-27,.cls-28,.cls-29,.cls-3,.cls-30,.cls-31,.cls-32,.cls-33,.cls-34,.cls-35,.cls-36,.cls-37,.cls-38,.cls-39,.cls-4,.cls-41,.cls-42,.cls-43,.cls-44,.cls-45,.cls-46,.cls-47,.cls-48,.cls-49,.cls-5,.cls-50,.cls-51,.cls-52,.cls-53,.cls-54,.cls-55,.cls-56,.cls-57,.cls-58,.cls-59,.cls-6,.cls-60,.cls-61,.cls-62,.cls-63,.cls-64,.cls-65,.cls-66,.cls-7,.cls-8,.cls-9{fill-rule:evenodd;}.cls-4{fill:url(#GradientFill_22);}.cls-5{fill:#1e2353;opacity:0.3;}.cls-12,.cls-13,.cls-14,.cls-18,.cls-31,.cls-36,.cls-40,.cls-5,.cls-58,.cls-7{mix-blend-mode:multiply;}.cls-6{fill:url(#GradientFill_22-2);}.cls-41,.cls-7{fill:#59caaf;}.cls-31,.cls-40,.cls-58,.cls-7{opacity:0.35;}.cls-8{fill:url(#linear-gradient);}.cls-9{fill:url(#linear-gradient-2);}.cls-10{fill:#4a9ff8;}.cls-11{fill:#5858f0;}.cls-12,.cls-13,.cls-14,.cls-17,.cls-18,.cls-36{opacity:0.5;}.cls-12{fill:url(#linear-gradient-3);}.cls-13{fill:url(#linear-gradient-4);}.cls-14{fill:url(#linear-gradient-5);}.cls-15{fill:#d0e7ff;}.cls-16{fill:url(#linear-gradient-6);}.cls-17,.cls-20{fill:#fffcf1;}.cls-18{fill:url(#linear-gradient-7);}.cls-19{fill:url(#linear-gradient-8);}.cls-22{fill:url(#linear-gradient-9);}.cls-23{fill:url(#linear-gradient-10);}.cls-24{fill:#ffdb59;}.cls-25,.cls-27,.cls-38,.cls-41{opacity:0.2;}.cls-25{fill:url(#linear-gradient-11);}.cls-26{fill:url(#linear-gradient-12);}.cls-27{fill:url(#linear-gradient-13);}.cls-28{fill:url(#linear-gradient-14);}.cls-29{fill:url(#linear-gradient-15);}.cls-30{fill:url(#linear-gradient-16);}.cls-31{fill:#3469c0;}.cls-32{fill:url(#linear-gradient-17);}.cls-33{fill:url(#linear-gradient-18);}.cls-34{fill:#ffa698;}.cls-35{fill:#ff9080;}.cls-36{fill:url(#linear-gradient-19);}.cls-37{fill:url(#linear-gradient-20);}.cls-38{fill:url(#linear-gradient-21);}.cls-39{fill:url(#linear-gradient-22);}.cls-42{fill:url(#linear-gradient-23);}.cls-43{fill:#6d6afd;}.cls-44{fill:url(#linear-gradient-24);}.cls-45{fill:url(#linear-gradient-25);}.cls-46{fill:url(#linear-gradient-26);}.cls-47{fill:url(#linear-gradient-27);}.cls-48{fill:#ffa495;}.cls-49{fill:#193161;}.cls-50{fill:url(#linear-gradient-28);}.cls-51{fill:url(#GradientFill_15);}.cls-52{fill:url(#linear-gradient-29);}.cls-53{fill:url(#GradientFill_15-2);}.cls-54{fill:url(#linear-gradient-30);}.cls-55{fill:#ff8978;}.cls-56{fill:url(#linear-gradient-31);}.cls-57{fill:url(#linear-gradient-32);}.cls-58{fill:#6266d7;}.cls-59{fill:url(#linear-gradient-33);}.cls-60{fill:url(#linear-gradient-34);}.cls-61{fill:#ffb49c;}.cls-62{fill:#ff9d8e;}.cls-63{fill:#562e65;}.cls-64{fill:url(#linear-gradient-35);}.cls-65{fill:url(#linear-gradient-36);}.cls-66{fill:url(#linear-gradient-37);}</style><linearGradient id="GradientFill_22" x1="798.12" y1="215.8" x2="798.1" y2="346.48" gradientUnits="userSpaceOnUse"><stop offset="0" stop-color="#324179"/><stop offset="1" stop-color="#0c124d"/></linearGradient><linearGradient id="GradientFill_22-2" x1="819.88" y1="224.14" x2="819.79" y2="446.74" xlink:href="#GradientFill_22"/><linearGradient id="linear-gradient" x1="924.6" y1="444.51" x2="784.44" y2="1295.16" gradientUnits="userSpaceOnUse"><stop offset="0" stop-color="#d1e8ff"/><stop offset="1" stop-color="#eaefff"/></linearGradient><linearGradient id="linear-gradient-2" x1="1005.95" y1="283.52" x2="678.89" y2="1331.24" gradientUnits="userSpaceOnUse"><stop offset="0" stop-color="#6d6afe"/><stop offset="1" stop-color="#3fb0f7"/></linearGradient><linearGradient id="linear-gradient-3" x1="1156.42" y1="968.04" x2="1238.97" y2="794.44" gradientUnits="userSpaceOnUse"><stop offset="0" stop-color="#965cf2"/><stop offset="1" stop-color="#ff8adc"/></linearGradient><linearGradient id="linear-gradient-4" x1="1145.74" y1="660.99" x2="1298.65" y2="437.61" xlink:href="#linear-gradient-3"/><linearGradient id="linear-gradient-5" x1="426.2" y1="888.69" x2="522.07" y2="679.59" xlink:href="#linear-gradient-3"/><linearGradient id="linear-gradient-6" x1="309.36" y1="660.95" x2="271.39" y2="769.82" gradientUnits="userSpaceOnUse"><stop offset="0" stop-color="#1c8ef4"/><stop offset="1" stop-color="#00cfdd"/></linearGradient><linearGradient id="linear-gradient-7" x1="438.42" y1="358.51" x2="516.06" y2="98.82" xlink:href="#linear-gradient-3"/><linearGradient id="linear-gradient-8" x1="416.13" y1="97.06" x2="327.62" y2="387.77" xlink:href="#linear-gradient-2"/><linearGradient id="linear-gradient-9" x1="1163.2" y1="911.8" x2="1189.17" y2="861.37" xlink:href="#linear-gradient-3"/><linearGradient id="linear-gradient-10" x1="850.68" y1="987.82" x2="788.2" y2="1085.01" gradientUnits="userSpaceOnUse"><stop offset="0" stop-color="#ff66bc"/><stop offset="0.56" stop-color="#ff8adc"/><stop offset="1" stop-color="#ffbba8"/></linearGradient><linearGradient id="linear-gradient-11" x1="867.45" y1="1022.59" x2="704.56" y2="1029.59" xlink:href="#linear-gradient-10"/><linearGradient id="linear-gradient-12" x1="1090.81" y1="1232.84" x2="1120.87" y2="1150.24" xlink:href="#linear-gradient-3"/><linearGradient id="linear-gradient-13" x1="1098.63" y1="1267.22" x2="1087.65" y2="1061.37" xlink:href="#linear-gradient-3"/><linearGradient id="linear-gradient-14" x1="692.72" y1="15.79" x2="692.93" y2="163.4" gradientUnits="userSpaceOnUse"><stop offset="0" stop-color="#5a2d68"/><stop offset="1" stop-color="#22043d"/></linearGradient><linearGradient id="linear-gradient-15" x1="696.85" y1="267.87" x2="690.52" y2="265.62" gradientUnits="userSpaceOnUse"><stop offset="0" stop-color="#ff8a78"/><stop offset="1" stop-color="#ffa799"/></linearGradient><linearGradient id="linear-gradient-16" x1="699.9" y1="217.63" x2="699.02" y2="90.89" xlink:href="#linear-gradient-3"/><linearGradient id="linear-gradient-17" x1="780.56" y1="188.61" x2="750.31" y2="92.42" xlink:href="#linear-gradient-3"/><linearGradient id="linear-gradient-18" x1="705.93" y1="79.3" x2="713.59" y2="88.6" xlink:href="#linear-gradient-15"/><linearGradient id="linear-gradient-19" x1="814.38" y1="764.25" x2="667.02" y2="184.54" xlink:href="#linear-gradient-3"/><linearGradient id="linear-gradient-20" x1="824.23" y1="348.47" x2="771.66" y2="423.21" xlink:href="#linear-gradient-2"/><linearGradient id="linear-gradient-21" x1="655.5" y1="443.47" x2="643.22" y2="460.85" xlink:href="#linear-gradient-2"/><linearGradient id="linear-gradient-22" x1="665.51" y1="442.35" x2="627.87" y2="470.9" xlink:href="#linear-gradient-2"/><linearGradient id="linear-gradient-23" x1="1177.64" y1="430.26" x2="1122.07" y2="615.46" xlink:href="#linear-gradient-2"/><linearGradient id="linear-gradient-24" x1="1135.23" y1="520.64" x2="1160.72" y2="442.24" xlink:href="#linear-gradient-3"/><linearGradient id="linear-gradient-25" x1="1131.18" y1="516.94" x2="1154.42" y2="477.36" xlink:href="#linear-gradient-2"/><linearGradient id="linear-gradient-26" x1="720.62" y1="287.39" x2="715.32" y2="284.94" xlink:href="#linear-gradient-15"/><linearGradient id="linear-gradient-27" x1="752.63" y1="234.96" x2="741.38" y2="113.94" xlink:href="#linear-gradient-3"/><linearGradient id="linear-gradient-28" x1="614.72" y1="961.66" x2="575.54" y2="1149.1" gradientUnits="userSpaceOnUse"><stop offset="0" stop-color="#40457f"/><stop offset="1" stop-color="#1e2353"/></linearGradient><linearGradient id="GradientFill_15" x1="623.35" y1="1201.43" x2="608.63" y2="1222.54" gradientUnits="userSpaceOnUse"><stop offset="0" stop-color="#3773b9"/><stop offset="1" stop-color="#003c76"/></linearGradient><linearGradient id="linear-gradient-29" x1="649.65" y1="982.82" x2="516.03" y2="1165.05" xlink:href="#linear-gradient-28"/><linearGradient id="GradientFill_15-2" x1="548" y1="1244.47" x2="525.76" y2="1250.15" xlink:href="#GradientFill_15"/><linearGradient id="linear-gradient-30" x1="687.2" y1="542.93" x2="715.33" y2="502.73" xlink:href="#linear-gradient-15"/><linearGradient id="linear-gradient-31" x1="628.59" y1="643.45" x2="661.11" y2="704.47" gradientUnits="userSpaceOnUse"><stop offset="0" stop-color="#a77ef7"/><stop offset="1" stop-color="#5e65d6"/></linearGradient><linearGradient id="linear-gradient-32" x1="622.25" y1="742.3" x2="602.95" y2="911.51" xlink:href="#linear-gradient-31"/><linearGradient id="linear-gradient-33" x1="623.26" y1="693.03" x2="617.25" y2="708.13" xlink:href="#linear-gradient-15"/><linearGradient id="linear-gradient-34" x1="643.63" y1="650.73" x2="634.76" y2="667.75" gradientUnits="userSpaceOnUse"><stop offset="0" stop-color="#ffb89e"/><stop offset="1" stop-color="#ffa799"/></linearGradient><linearGradient id="linear-gradient-35" x1="624.84" y1="609.33" x2="585.69" y2="631.75" gradientUnits="userSpaceOnUse"><stop offset="0" stop-color="#8a4791"/><stop offset="1" stop-color="#562e65"/></linearGradient><linearGradient id="linear-gradient-36" x1="823.29" y1="710.38" x2="849.52" y2="675.72" xlink:href="#linear-gradient-15"/><linearGradient id="linear-gradient-37" x1="741.59" y1="723.24" x2="749.53" y2="884.45" xlink:href="#linear-gradient-31"/></defs><g class="cls-1"><g id="Layer_1" data-name="Layer 1"><rect class="cls-2" x="-6248.32" y="-275.77" width="7900" height="2000"/><path class="cls-3" d="M892.53,337.1c.82.48,1.94.83,3.25,1.51,4.27,10.29,5.89,13.31,5.05,14.34-.69.83-.61.38-1,2.45-.5,2.82,9.39,15,10.91,18.9a14,14,0,0,1,.35,10.27,53.18,53.18,0,0,1-10.53,17.85c-3.92,4.41-8.25,7.21-12,6.37-4.63-1-3.84-5.2-3.15-9.31.25-1.47,3-4.72,2.83-6.16-1.24-8.24-7.27-15.43-11.69-22.56-3.8-3.53-10.19-7.24-13.73-11.33-5.11-5.9-6.08-12.11.27-15.73,2-1.15,7.12-6.89,9.74-6.67C877.83,337.44,886.21,333.4,892.53,337.1Z"/><path class="cls-4" d="M721.5,313.49c-3.44,9.37-.76,17.68,6.76,21.25l.15.15.92.31a18.14,18.14,0,0,0,2.46.78c9,2.67,22.48,5.1,30.71,6.67,32.84,6.27,81.77,10.19,104.75,19,9-6.63,11.69-18.92,5.79-26.29-25.07-11.95-58.93-27.47-73.13-32.73a40.57,40.57,0,0,0-11.86-2c21.16-19.08,43.57-39.74,52.27-57.35,6.16-12.46,7.16-29.77,11.44-40.6-34.53,10.11-41.14-10.73-47.49-18.06-5.43,8-5.3,6.5-10.81,15-18.62,28.83-46.08,69.71-64.75,100.08C725.64,304,722.71,309.11,721.5,313.49Z"/><path class="cls-5" d="M834.19,317.26c-14.09-6.38-26.87-11.92-34.28-14.67a40.57,40.57,0,0,0-11.86-2c21.16-19.08,43.57-39.74,52.27-57.35,6.16-12.46,7.16-29.77,11.44-40.6-9.72,2.85-17.24,3.24-23.15,2.17l.93,6.74c-26.65,26.53-75.11,88.19-79.61,128.46,16.29,3.79,60.78,9.5,67.91,10.3,1.86-11.95,9.66-21.46,16.35-33.06ZM809.9,192.45c-2.24-3-3.94-5.91-5.63-7.86-3.46,5.08-4.66,6.32-6.5,8.76Z"/><path class="cls-3" d="M829.88,470.8c4.85,6.72-8.23,40.48-11.41,47.59-2.81,6.27-1.92,10.12,4.73,10.22,5.23.08,13.55-7.34,18.62-12.2,9.5-9.1,10-18.38,12.8-22.33l3.24-1c2.37-1.34,9.37-10.48,9.75-13.94a73.81,73.81,0,0,0-3.61-9.4c-5.16-9.54-6.3-5.37-13.11-11.2C843.11,464.13,848.63,466.38,829.88,470.8Z"/><path class="cls-6" d="M767.86,355.09c14.19,27.47,49.48,89.4,61.94,116.93,11,2.32,22.13-4.1,23.1-12.74-8-26.4-21-69.86-27.48-83.72-4.25-9.15-12.19-21.37-19.35-30.68,21-29.33,54.17-75.51,63.76-102.57,13-36.82-1.93-57.83-22-69.4-7.15-4.11-14.84,2.48-18.47-1.93C820.75,187.73,813,210.5,808,231c-7,28.57-40.39,89.19-42.91,109.58a22.1,22.1,0,0,0,2,11.53C767.27,353.07,767.53,354.06,767.86,355.09Z"/><path class="cls-7" d="M1330.34,1447.48,364.64,904.32c-12.19-5.56-30.1-10.79-42.05-3.49L292,919.51c-6.16,3.76-26.39,16.23-12.86,23.57C319,964.68,1210.64,1469,1251.08,1491c7.64,4.15,18.83,5.64,30.57,4.65s23.84-4.17,33.12-9.91l12.22-7.55c8.64-5.34,13.42-11.17,13.88-16.75S1337.82,1450.88,1330.34,1447.48Z"/><path class="cls-8" d="M475.42,19.29c-6.65-3.78-14.46-5.19-21.77-2.43l-16.34,6.38c-5.93,30.71,841.5,1439.59,849.08,1447.4l14.59-5.51c9.57-3.77,14.6-13.74,16-23.43l123.15-840.58V601c2-14.14-2.24-28.86-10-40.67-4.19-6.36-9.69-12.2-16.45-15.86Z"/><path class="cls-9" d="M1397.56,550.72,459.31,25.51c-17.74-9.84-34.64-.4-37.78,21L298.39,887.11c-3.14,21.41,8.66,46.76,26.4,56.59L1263,1468.91c17.75,9.84,34.69.42,37.82-21L1424,607.33C1427.15,585.93,1415.3,560.56,1397.56,550.72Z"/><path class="cls-10" d="M1397.56,550.72,459.31,25.51c-17.74-9.84-34.64-.4-37.78,21l-4.15,28.35L1419.81,636l4.2-28.68C1427.15,585.93,1415.3,560.56,1397.56,550.72Z"/><path class="cls-11" d="M453.48,46.43c7.12,1.63,12.58,10.1,12.21,18.92s-6.45,14.66-13.56,13-12.58-10.1-12.21-18.92S446.36,44.8,453.48,46.43Z"/><path class="cls-11" d="M485.88,65C493,66.67,498.46,75.14,498.09,84s-6.45,14.66-13.56,13S472,86.89,472.32,78.07,478.77,63.41,485.88,65Z"/><path class="cls-11" d="M520.94,85.48c7.12,1.63,12.58,10.1,12.21,18.92s-6.45,14.66-13.56,13S507,107.33,507.38,98.51,513.83,83.85,520.94,85.48Z"/><path class="cls-12" d="M1283.45,842.13,1114.91,749.6c-9.78-5.42-19.35-6.18-27.35-3.07-10.25,4-17.92,14.37-20.13,29.48l-19.11,137.06c-3.94,26.91,10.89,58.77,33.19,71.13l168.55,92.53c22.31,12.36,43.59.52,47.53-26.38l19.1-137.07C1320.64,886.38,1305.75,854.49,1283.45,842.13Z"/><path class="cls-13" d="M1036.73,360.05l369.55,180.24-9.79,10L1361,798.2c-3.62,25.43-23,36.7-43.17,25.15L971.94,625.57l-30-67Z"/><path class="cls-14" d="M572.67,742.54,344.19,615.9l-7.64,11.66L299,883.09l236.64,131.17c25.05,13.88,49,.59,53.38-29.61L610,822.44C614.43,792.24,597.71,756.43,572.67,742.54Z"/><path class="cls-15" d="M562.56,798.58,535.26,977.9l4.33.52,11.82-4.58c13-5.11,19.75-18.6,21.65-31.71l20.08-155.5a.6.6,0,0,0,0-.12c2.71-19.13-3-39-13.55-55C574,722.87,566.5,715,557.35,710L83.78,447.53c-9-5.12-19.56-7-29.45-3.29l-10.42,4.07c-5.24,2-6.86,3.54-6.83,3.87C42,498,569.46,751.57,562.56,798.58Z"/><path class="cls-16" d="M545.43,714.71,71.88,452.22c-10.53-5.84-20.83-6.66-29.44-3.3-11,4.29-19.3,15.46-21.68,31.73L.68,636.15c-4.24,29,11.72,63.27,35.73,76.57L510,975.22c24,13.31,46.93.56,51.17-28.4l20.08-155.51C585.47,762.36,569.44,728,545.43,714.71Z"/><path class="cls-17" d="M539.81,763.11,213,583.35a8.14,8.14,0,0,0-7-.79c-2.64,1-4.61,3.7-5.19,7.59L199,601.06c-1,6.92,2.8,15.12,8.54,18.3L534.33,799.12c5.74,3.18,11.22.13,12.23-6.79l1.81-10.91c1-6.92-2.82-15.13-8.56-18.31Zm-182,42.28c5.74,3.18,9.58,11.39,8.56,18.31l-1.8,10.92c-1,6.92-6.49,10-12.24,6.78L188,752.93c-5.74-3.18-9.56-11.38-8.55-18.3l1.81-10.91c.57-3.89,2.54-6.57,5.18-7.59a8.19,8.19,0,0,1,7,.78l164.36,88.48ZM530,829.89c5.74,3.18,9.57,11.39,8.55,18.31l-1.8,10.92c-1,6.92-6.49,10-12.23,6.79L197.74,686.14c-5.74-3.17-9.56-11.38-8.54-18.3l1.8-10.91c.57-3.89,2.55-6.56,5.18-7.59a8.23,8.23,0,0,1,7,.79Z"/><path class="cls-17" d="M108.84,580.17c-15.46-8.57-31.85,3-31.68,25.35.07,11.57,5,23.48,12.73,31a30.49,30.49,0,0,0,6.26,4.7c15.43,8.55,31.74-3,31.63-25.26,0-11.59-4.92-23.56-12.63-31a31.2,31.2,0,0,0-6.31-4.73ZM94,651.67a41,41,0,0,1-8.41-6.29c-10.44-10-17-26.07-17.13-41.64-.18-30,21.82-45.58,42.59-34.07a40.83,40.83,0,0,1,8.52,6.4c10.4,10,16.94,26,17,41.63.13,29.91-21.84,45.47-42.58,34Zm70.75-25.49c3.62,2,5.77,7.27,4.79,11.8l-3.77,17.57c-1,4.48-4.68,6.49-8.3,4.49l-1.85-1a5.19,5.19,0,0,0-7.32,2,55.71,55.71,0,0,1-3.36,5c-1.88,2.47-2.19,6.41-.75,9.94l1,2.38c1.86,4.54.75,9.72-2.46,11.46l-12.73,6.87a5.24,5.24,0,0,1-5.15-.19,9.84,9.84,0,0,1-4.13-5l-1-2.33a9.77,9.77,0,0,0-4.09-4.9,5.94,5.94,0,0,0-3.06-.78c-1.79,0-3.62-.06-5.43-.23-2.91-.28-5.34,1.78-6.08,5.22l-.48,2.29c-1,4.47-4.68,6.48-8.3,4.48L78,687.41c-3.62-2-5.77-7.27-4.81-11.75l.5-2.29a12,12,0,0,0-2.78-10.12c-1.52-1.68-3-3.42-4.36-5.2a8.86,8.86,0,0,0-2.71-2.42,5.22,5.22,0,0,0-5.1-.19l-1.67.86a5.24,5.24,0,0,1-5.15-.18,9.84,9.84,0,0,1-4.13-5l-7.37-18c-1.86-4.54-.74-9.71,2.46-11.45l1.68-.91c2.5-1.35,3.77-4.76,3.24-8.56q-.51-3.63-.73-7.27c-.23-3.74-2.21-7.29-5-8.83l-1.85-1c-3.62-2-5.77-7.27-4.81-11.75l3.78-17.57c1-4.53,4.69-6.54,8.31-4.53l1.85,1a5.17,5.17,0,0,0,7.31-2,51.78,51.78,0,0,1,3.37-5c1.87-2.42,2.18-6.37.73-9.91l-1-2.37c-1.84-4.59-.74-9.72,2.48-11.5L75,524.61a5.29,5.29,0,0,1,5.15.18,9.88,9.88,0,0,1,4.14,5l1,2.38a9.77,9.77,0,0,0,4.09,4.9,5.92,5.92,0,0,0,3,.79,45.11,45.11,0,0,1,5.45.17c2.9.33,5.32-1.73,6.06-5.16l.49-2.29c1-4.54,4.69-6.54,8.31-4.54l14.19,7.87c3.61,2,5.77,7.27,4.79,11.79l-.5,2.29A11.87,11.87,0,0,0,134,558q2.29,2.52,4.4,5.28a8.73,8.73,0,0,0,2.7,2.4,5.2,5.2,0,0,0,5.1.2l1.68-.91a5.23,5.23,0,0,1,5.16.19,9.84,9.84,0,0,1,4.13,5l7.37,18c1.84,4.59.74,9.72-2.47,11.5l-1.68.91c-2.5,1.35-3.77,4.76-3.23,8.52.33,2.41.58,4.83.73,7.25.23,3.76,2.21,7.3,5,8.84Z"/><path class="cls-18" d="M519.24,149.55,417,100.14,376.7,352.56,371.51,388l106.26,57.35c18.47,10.23,36.09.43,39.35-21.84l29.64-215.08C550,186.18,537.7,159.78,519.24,149.55Z"/><path class="cls-15" d="M506.78,209.57,474.93,415.33l3.34.41,9.08-3.53c10-3.93,15.19-14.3,16.65-24.38l26.3-187.44a.34.34,0,0,0,0-.1c2.09-14.71-2.33-30-10.42-42.3-4.35-6.63-10.08-12.69-17.11-16.51L307.33,35.27c-6.93-3.93-15.05-5.39-22.65-2.53l-8,3.13c-4,1.52-5.28,2.73-5.25,3C275.19,74.09,512.09,173.43,506.78,209.57Z"/><path class="cls-19" d="M493.61,145.09,298.17,38.87c-8.09-4.48-16-5.11-22.64-2.53-8.49,3.3-14.84,11.89-16.67,24.4l-26.3,187.44c-3.26,22.27,9,48.65,27.48,58.88L455.49,413.28c18.46,10.23,36.08.43,39.34-21.84L521.13,204C524.4,181.72,512.07,155.32,493.61,145.09Z"/><path class="cls-20" d="M457.41,363.11,261.05,257.72c-4.53-2.44-8.86.07-9.74,5.69-.85,5.44,2.09,11.83,6.62,14.27l196.35,105.4c4.53,2.43,8.94,0,9.82-5.66.85-5.42-2.17-11.88-6.69-14.31Zm8.77-57.06c4.52,2.44,7.54,8.89,6.7,14.31-.88,5.62-5.29,8.09-9.82,5.66L266.71,220.62c-4.53-2.43-7.47-8.83-6.62-14.27.88-5.62,5.2-8.12,9.74-5.69L466.18,306.05Zm20.2-129.38L290,71.27c-4.53-2.44-8.86.07-9.7,5.5l-2.19,14c-.84,5.43,2.1,11.83,6.62,14.27L481.12,210.39c4.52,2.43,8.93,0,9.78-5.46l2.18-14c.86-5.42-2.18-11.87-6.7-14.3ZM475,249.45c4.52,2.43,7.55,8.79,6.71,14.22-.9,5.72-5.29,8.08-9.81,5.65L275.56,163.92c-4.53-2.42-7.48-8.74-6.64-14.16.9-5.72,5.22-8.13,9.74-5.71Z"/><path class="cls-15" d="M1274.55,906l-23.23,143.3,3.62.44,9.88-3.84c10.84-4.27,16.52-15.55,18.11-26.51L1300.13,896s0-.08,0-.11c2.27-16-2.54-32.64-11.33-46-4.74-7.2-11-13.8-18.61-18l-151.73-83.29c-7.53-4.28-16.36-5.87-24.63-2.75l-8.71,3.41c-4.38,1.64-5.74,3-5.71,3.23C1083.53,790.85,1280.32,866.67,1274.55,906Z"/><path class="cls-21" d="M1260.23,835.85l-151.72-83.29c-8.8-4.87-17.41-5.56-24.61-2.76-9.23,3.59-16.13,12.93-18.13,26.54l-17.19,123.38c-3.55,24.22,9.79,52.9,29.87,64L1230.17,1047c20.09,11.12,39.24.47,42.79-23.75l17.2-123.39C1293.71,875.69,1280.31,847,1260.23,835.85Z"/><path class="cls-22" d="M1194.14,844.41a12.18,12.18,0,0,1,1.25,7.06,46,46,0,0,1-2.76,9l-32.32,89.79c-1,3-2,5.29-2.7,6.93a5.46,5.46,0,0,1-2.92,3.13c-1.12.5-2.67.16-4.67-1.08-4.85-3-7-7.24-6.38-12.38a63.57,63.57,0,0,1,2.67-9.36l32.25-89.84c1.65-4.77,3.11-7.85,4.33-9.28s3.21-1.28,5.94.41a13.51,13.51,0,0,1,5.31,5.59Zm8.63,23.32-3,25,47.76,55.4L1194,941.33l-3,25.08,77,6,2.52-21.26-67.85-83.44ZM1068.1,848.68,1136,932.21l3-25.08-47.54-55.75,53.29,7.24,3-25.29-77.06-6.15Z"/><path class="cls-21" d="M678.84,850.05c2.72-18.65,16.93-26.9,31.72-18.37l219.91,124c14.77,8.52,24.56,30.58,21.84,49.23L923.06,1204c-2.73,18.65-16.95,26.89-31.73,18.37l-219.91-124c-14.79-8.52-24.56-30.58-21.84-49.23Z"/><polygon class="cls-23" points="705.59 1052.96 782.3 946.71 797.18 1059.38 834.55 1018.76 856.55 1139.25 705.59 1052.96"/><path class="cls-24" d="M832,951.42c8.2,1.67,14.38,11.27,13.79,21.45s-7.71,17.06-15.91,15.39S815.46,977,816.05,966.82,823.76,949.75,832,951.42Z"/><path class="cls-25" d="M696.7,878.54c2.27-15.5,14.07-22.35,26.36-15.26l182.72,103c12.28,7.08,20.41,25.41,18.14,40.91l-24.3,165.4c-2.27,15.49-14.08,22.34-26.37,15.26l-182.71-103c-12.29-7.08-20.41-25.41-18.15-40.9Z"/><path class="cls-21" d="M975.61,1022.42c2.73-18.66,16.93-26.9,31.73-18.37l219.9,124c14.78,8.51,24.57,30.58,21.84,49.23l-29.25,199.06c-2.73,18.65-16.95,26.88-31.73,18.37l-219.9-124c-14.8-8.53-24.57-30.58-21.84-49.23Z"/><polygon class="cls-26" points="1002.37 1225.33 1079.08 1119.07 1093.95 1231.75 1131.32 1191.13 1153.33 1311.62 1002.37 1225.33"/><path class="cls-24" d="M1128.74,1123.79c8.2,1.67,14.37,11.27,13.79,21.44s-7.71,17.07-15.91,15.4-14.38-11.27-13.8-21.45S1120.53,1122.12,1128.74,1123.79Z"/><path class="cls-27" d="M993.47,1050.9c2.27-15.49,14.07-22.34,26.37-15.26l182.71,103c12.28,7.08,20.41,25.41,18.15,40.91L1196.39,1345c-2.26,15.5-14.08,22.34-26.36,15.27l-182.72-103c-12.29-7.09-20.41-25.41-18.14-40.91Z"/><path class="cls-28" d="M643.12,21.92c-19.57,11.49-10.2,38,7.59,66.09,25.23,39.81-35.84,84.62,47.17,107.29-8.65-24.29,27.32-33.18,45-66.36C763.27,90.66,752,52.26,725.77,19.56,704.43-7.07,665.4-6.73,643.12,21.92Z"/><path class="cls-29" d="M681.87,273.49l4.79,18c1.5,3.87,2.41,4.91,8,2.4,3-1.47,2.08-7.79,1.24-12.4a26.9,26.9,0,0,1,.21-11.39,9.35,9.35,0,0,1,3.48-4.75c3.32-2.66,7.2-4.44,4.81-12.91-1.25-4.42-1-7.71-1-12.3l-11.57-.76c.27,10.32-4.32,17.28-9.09,26C680.35,269.58,680.86,268.79,681.87,273.49Z"/><path class="cls-30" d="M723.06,158.94l-.09-.58a10,10,0,0,0-.36-2.48c-2.94-19.62-8.91-52.69-13.57-69.94-8.12-30.12-33.89-19.71-33.63-1.74.26,17,16.07,53.83,19.72,69.79-1.3,11.62-6.15,69.68-4.47,79.82.32,1.93,1.16,3.19,1.07,5.31-.07,1.61-.51,2.26-1,4.2a136,136,0,0,1,13.58,2.3,27.66,27.66,0,0,1,.68-4.52c.78-2.18,2.78-3.3,3.68-5.15,4.45-9.1,11.79-56.82,13.81-72.35A19,19,0,0,0,723.06,158.94Z"/><path class="cls-31" d="M719.69,177.31c1.73-4.17,3.68-17.16,3.66-22.92,0-12-4.56-21.86-6-29.46L675.6,83.33c.26,7.79,9.35,28.55,13.08,43.87C694.49,151.1,707.14,171.69,719.69,177.31Z"/><path class="cls-32" d="M849,180.14c-5.9,19.48-33.56,34.83-61.28,28.73-6.62-7.36-8.59-5.07-14.64-11-5.51-5.4-12.31-12.78-21.82-22.43-5.29-8.3-26.15-11.7-35.36-15.31C705.48,156,696.25,147.54,692,131c-2.08-8-11.16-32.53-14.43-40.7-9.43-23.62,11-32.45,24.89-23.71,8.86,3.7,28.42,8.35,38.08,10.15a159.73,159.73,0,0,0,16.9,2.51c11.5,1.11,24,9.51,32.92,16.62C814.32,115,846.87,153.43,849,180.14Z"/><path class="cls-33" d="M710,57.08A58.79,58.79,0,0,0,726.5,84.89c-2.93,10.48-23,18-29.32,11-.49-1.41-1.16-4.55-1.85-5.56-1.05-3.08-2.1-5.78-3-7.93Z"/><path class="cls-34" d="M651.89,43.06c1,8,3.52,14.69,10.39,21.56a10,10,0,0,1,2.9,4.81c2.6,9.52,4.65,11.47,10.76,15.82,5.94,4.23,8.16,7.17,11.55,7.52s6.69-1.52,9.23-3.34c5.22-3.74,11.07-14,13.81-20.7,2-5,.78-6.26-.51-11,1.5-8.74-4.53-9.29-6.55-8.21-5.76,3.1-1.89,9.49-3.81,13.16C679.39,67.16,658.42,49,651.89,43.06Z"/><path class="cls-35" d="M651.89,43.06c11.26,18.75,36.05,23.49,47.77,19.62C679.39,67.16,658.42,49,651.89,43.06Z"/><path class="cls-31" d="M783,204.06a4.59,4.59,0,0,1-.51.1c-3.07-2-5.29-2.28-9.39-6.3-5.51-5.4-12.31-12.78-21.82-22.43-2.7-4.23-9.44-7.19-16.62-9.55,1.13-19.39.63-63.71,7-69.48,8.78-8,20.85-13.25,30.93-2.89C791.57,113.06,772.63,185.41,783,204.06Z"/><polygon class="cls-10" points="756.12 230.12 744.07 184.77 752.4 177.34 828.47 220.04 821.39 227.97 788.35 250.08 756.12 230.12"/><path class="cls-15" d="M744.1,184.89l-5.54-17.7,94.93,52.69-12.23,8.18Z"/><path class="cls-36" d="M588.66,292.19c4.93-36.33,32.49-52,61.57-34.86L950.54,432.67c29.05,17.09,48.64,60.48,43.72,96.82L948.49,875.84c-4.93,36.33-32.53,52-61.58,34.87L586.61,735.37c-29.08-17.11-48.65-60.49-43.72-96.82Z"/><path class="cls-15" d="M599.31,290.2c.53-3.93,1.31-21.48,6-25,6.36-4.82,17.95-11.82,21.38-12.74,8.95-2.4,19.27-.82,29.81,5.38L937.14,420.42c27,15.88,45.2,56.2,40.63,90L935.23,832.22c-1.59,11.79-5.77,21.24-11.66,27.86-4,4.48-13.32,10.75-21.1,14.77-8,4.15-19.35-7.23-24.45-10.23L597.41,702c-27-15.9-45.21-56.2-40.63-90Z"/><path class="cls-21" d="M589.43,297.1c4.58-33.77,30.19-48.3,57.21-32.4L925.69,427.63c27,15.88,45.2,56.2,40.63,90L923.79,839.43c-4.58,33.76-30.23,48.29-57.22,32.4l-279-162.93c-27-15.9-45.21-56.2-40.63-90Z"/><path class="cls-37" d="M589.43,297.1c4.58-33.77,30.19-48.3,57.21-32.4L925.69,427.63c27,15.88,45.2,56.2,40.63,90l-4.36,32L585,329.48Z"/><path class="cls-21" d="M634.29,298.36c6.15,1.46,10.85,8.82,10.49,16.45S639.15,327.44,633,326s-10.85-8.82-10.49-16.45S628.15,296.9,634.29,298.36Z"/><path class="cls-21" d="M667.1,318.81c6.15,1.46,10.84,8.82,10.49,16.45s-5.63,12.63-11.78,11.17S655,337.61,655.33,330,661,317.35,667.1,318.81Z"/><path class="cls-21" d="M699.91,339.26c6.14,1.46,10.84,8.82,10.48,16.45s-5.63,12.63-11.77,11.17-10.85-8.82-10.49-16.45S693.76,337.8,699.91,339.26Z"/><path class="cls-38" d="M648.62,393.42c28.49,6.75,50.25,40.88,48.6,76.23s-26.08,58.53-54.57,51.77-50.24-40.89-48.59-76.23S620.14,386.66,648.62,393.42Z"/><path class="cls-39" d="M647.25,422.91c15.36,3.65,27.09,22,26.2,41.1S659.39,495.57,644,491.93s-27.09-22.05-26.2-41.1S631.89,419.27,647.25,422.91Z"/><g class="cls-40"><path class="cls-41" d="M714.35,462c1-7.51,6.71-10.65,12.7-7l182.4,105.13c6,3.64,10,12.7,9,20.21l-2,14.85c-1,7.51-6.71,10.65-12.7,7L721.39,497.06c-6-3.64-10-12.7-9-20.2Z"/><path class="cls-41" d="M707.1,516.64c.6-4.44,4-6.29,7.5-4.14l107.71,62.08c3.53,2.15,5.92,7.5,5.32,11.94l-1.17,8.77c-.6,4.43-4,6.28-7.5,4.13l-107.7-62.08c-3.54-2.15-5.93-7.5-5.33-11.93Z"/></g><g class="cls-40"><path class="cls-41" d="M585.36,530.57c.74-5.47,4.88-7.76,9.24-5.11l315,180.72c4.36,2.65,7.3,9.25,6.56,14.72l-1,7.16c-.74,5.47-4.89,7.76-9.25,5.1l-315-180.71c-4.37-2.66-7.31-9.25-6.56-14.72Z"/><path class="cls-41" d="M578.77,583.57c.74-5.47,4.88-7.76,9.25-5.1L903,759.19c4.36,2.65,7.31,9.24,6.57,14.71l-1,7.16c-.75,5.47-4.89,7.76-9.25,5.11l-315-180.72c-4.37-2.65-7.3-9.25-6.56-14.71Z"/><path class="cls-41" d="M571.87,634.07c.74-5.47,4.88-7.76,9.25-5.11l315,180.72c4.36,2.65,7.3,9.25,6.56,14.72l-1,7.16c-.74,5.47-4.89,7.75-9.25,5.1l-315-180.72c-4.37-2.65-7.3-9.24-6.56-14.71Z"/></g><path class="cls-15" d="M978.87,260.89c1-7-3.67-12.4-.63-17,3.29-5,14.46-8.6,19.29-10.35,6.86-2.47,14.93-1.66,23.14,3L1355.72,428.1c19.56,11.19,32.6,40.28,29.09,64.91L1347.2,755.88c-1.71,12.07-7.09,20.84-14.43,25.34-4.48,2.74-16.76,8-22.32,7.32-3.91-.47-.94-5.95-5.06-8.31l-335-191.56c-19.58-11.2-32.6-40.28-29.1-64.91Z"/><path class="cls-42" d="M968.83,264.9c3.5-24.63,22.22-35.56,41.8-24.36L1345.68,432.1c19.56,11.19,32.6,40.29,29.09,64.92l-37.6,262.86c-3.51,24.63-22.25,35.55-41.82,24.36l-335-191.56c-19.58-11.21-32.6-40.29-29.1-64.92Z"/><path class="cls-43" d="M942.81,539.81c.31-2.14,1.93-3,3.62-2L1318,750.85a6.12,6.12,0,0,1,2.51,5.72l-1,6.48c-.31,2.14-1.93,3.05-3.62,2L944.34,552a6.13,6.13,0,0,1-2.51-5.72Z"/><path class="cls-7" d="M943,540c.29-2.06,1.86-2.94,3.49-2L1096.36,624a5.91,5.91,0,0,1,2.43,5.52l-1,6.25c-.29,2.06-1.86,2.94-3.49,2L944.47,551.79a5.93,5.93,0,0,1-2.43-5.52Z"/><path class="cls-44" d="M1089.89,413.54c.83-5.87,5.28-8.47,9.94-5.8l103.15,59c4.65,2.66,7.75,9.58,6.92,15.44L1196,580.33c-.83,5.86-5.29,8.45-10,5.79l-103.14-59c-4.66-2.66-7.76-9.58-6.92-15.44Z"/><path class="cls-45" d="M1148.73,456.24c-17.86-10.21-34.91-.26-38.11,22.2s8.66,49,26.52,59.18,34.91.26,38.11-22.22S1166.57,466.45,1148.73,456.24Z"/><polygon class="cls-21" points="1132.21 467.15 1126.57 507.81 1161.02 508.74 1132.21 467.15"/><path class="cls-46" d="M731,259.26c-2.93,4.89-1.39,15.48-2.34,20.52a82.59,82.59,0,0,1-4.48,14.71c-.62,1.3-20,18.55-21.17,17.68-2.56-2-4.23-15.6-.86-19.56s6.2-7.83,6.77-11.07.39-14,1.79-15.68c3.19-3.77,6.52-5,7.94-9.66Z"/><path class="cls-47" d="M768.81,193.34a29.93,29.93,0,0,0,.73-3.42c5.05-20.92,10.19-56.72,9.54-77.46-.51-15.84-8.22-29.24-26.8-24.08C746.57,90,740,94.3,739.12,101.82c-1,9,.33,24,1.18,39.23.68,12.21.62,34.22,1.08,43.15-.08.27-.15.55-.23.83-5.94,11.84-19.8,50.52-22.7,63.07-.48,2.09,0,4.35-.05,5.8a10.68,10.68,0,0,1-1.5,4.66,28.14,28.14,0,0,0,12.74,6.56,35,35,0,0,1,2.6-4.59c.8-1.23,4.53-2.39,6-4.13,7.7-9.22,28-51.4,30.5-62.62Z"/><path class="cls-7" d="M472,1271.11,640.65,1175c18.39-8.4,44.71-15.09,63.45-5.34,17.07,8.89,45.19,27.07,57.63,34.16,9.44,5.39,42.23,25,21.81,36.13C723.47,1272.66,664,1309.39,603,1342.58c-11.54,6.27-28.42,8.54-46.13,7.07s-35.73-6.6-50-14.88L477,1317.36c-13.23-7.71-20.25-16.82-20.94-25.24C455.39,1283.89,460.68,1276.27,472,1271.11Z"/><path class="cls-21" d="M534.13,1266c3.3-.07,14.43-10.53,25-5.25,12.66,6.35,36.71.72,48.84,3.64,2.16.52,6.39-1.07,7.22.41,2.62,4.65,5.15,11.6-1.28,16.15-4.73,3.35-14.86,7.78-21.51,10.13-7,2.5-19.11,6.44-27.2,7.7-9,1.4-13,2-16.39,4.57-4.8,2.41-9.75,3.45-12.51,3-5.91-.94-12.8-4.4-15.95-11.14-1-2.15-1-11.55.13-17.65.91-4.81,3.54-10.29,5.64-15.41Z"/><path class="cls-48" d="M560,1243.52c-4,9.62-2.77,24.5-12.26,29.66-6.35,3.46-16.29,3.49-20.62-6.37-2.41-5.5.79-14.9.08-27Z"/><path class="cls-49" d="M562.66,1258.42c7.28,2.11,27.36.7,40.06,1.72,5.46.45,10.35.41,12.9,5.36,2.35,4.56,1.12,8.46-4.2,12.22-4.73,3.35-12.75,7.17-19.4,9.52-7,2.5-19.11,6.44-27.2,7.7-9,1.4-13,2-16.39,4.57-4.8,2.41-9.75,3.45-12.51,3A22,22,0,0,1,520,1290.68c-1-2.15-1-10.85.13-17a30.68,30.68,0,0,1,.93-3.59c1-9.56,4.15-13.42,7.13-11.79,4.07,2.24,5.6,6.27,7.15,9.58a9.36,9.36,0,0,0,5.54,5.28c4.87,1.53,9.31-1.18,12.19-5.36a34.45,34.45,0,0,0,3.34-9.68c0-.33,0-.65,0-1,1-8.35,5-7.63,4.4-5.87S560.46,1256.71,562.66,1258.42Z"/><path class="cls-21" d="M613.08,1264.09c-.09,3.23,4.85,3.54,3.42,9.21,2.38-2.33-.94-9-2.41-10C613.49,1262.84,613,1262.67,613.08,1264.09Z"/><path class="cls-21" d="M616.88,1232.91c3.07-1.2,9.93-14.86,21.64-13.52,4.73.53,12.33-.7,20-2.89,12.3-3.5,29.44-14.49,32.36-12.69,6.37,3.92,6.88,11.07,2.41,17.55-3.29,4.77-9.51,11.11-14.94,15.61-5.76,4.77-13.93,12.07-21.09,16-6.76,3.75-9,3.42-13.82,9.93-3.67,3.91-8,6.24-10.71,6.78-7,1.37-17.24-3.15-20.92-7.86-2.34-7.56-6.39-14.73-3.79-26.08Z"/><path class="cls-48" d="M633.12,1200.69c-.19,10.42,6.43,23.8-.5,32.1-4.63,5.54-13.86,9.23-21.51,1.65-4.27-4.23-4.74-14.15-9.84-25.11Z"/><path class="cls-49" d="M655.41,1213.39l2.1-.57c12.3-3.5,28.73-12,31.66-10.18,6.37,3.92,7.58,8.55,3.11,15-3.29,4.77-9.51,11.11-14.94,15.61-5.76,4.77-13.93,12.07-21.09,16-6.76,3.75-9,3.42-13.82,9.92-3.67,3.92-8,6.25-10.71,6.78-7,1.37-17.55-3.18-21.23-7.9-1.74-5.63-4.12-11-4.31-18.07-1-9.26-.39-14,3.64-13.86,7.5.22,10.59,4.17,13.69,6.1,6.67,4.16,11.13-1.21,12.22-7.86a38.54,38.54,0,0,0-.61-8.78c-.1-.31-.22-.62-.34-.91-2.19-8.12,1.86-8.94,1.93-7.07a7,7,0,0,0,6.19,7.09C647,1215.38,652.11,1213.67,655.41,1213.39Z"/><path class="cls-21" d="M688.41,1203.68c1.31,3,5.9,1.1,7.06,6.84,1.14-3.13-4.74-7.74-6.5-8C688.24,1202.38,687.71,1202.44,688.41,1203.68Z"/><path class="cls-50" d="M626,919.36c2.69,30.18,17.82,126.58,13.61,153-6.33,39.8-4.52,87.88-4.45,130.12-1.07,17.74-25.47,27-32.57,15.74-5.7-37.74-13.82-70.81-17.11-91.78-3.7-23.49-2.48-52,3.48-67.46-2.44-16.86-13.94-60.36-23.55-90.5-3.46-10.88-23.1-46-2.77-81Z"/><path class="cls-51" d="M635.6,1191.19c0,3.13-.1,7.9-.09,11-1.07,17.75-25.78,27.38-32.88,16.1-.42-2.78-1-5.54-1.47-8.27C610.71,1220.29,629.42,1206.92,635.6,1191.19Z"/><path class="cls-5" d="M640.3,1054.44c-7.95,39.91-30.46,93.22-42.74,133.35-6.4-34.38-22.4-92.93-8.56-128.77-1.39-9.6-5.72-27.84-11-47.34,10.64-20.19.47-36.3,5.5-64.73,28.19-4.92-14.36-39.33,45.3-3.08C634.17,986.69,639.19,1013.62,640.3,1054.44Z"/><path class="cls-52" d="M624.09,1092.3c-16.27,36.81-46.27,109-62.23,154.23-8.26,12-37.7,10.75-37.64-.44,6.5-37.78,14.14-96,27.7-129.19,4.15-10.14,19.47-34.54,25-41.78,4.3-16.67,9.67-61.71,13.82-86.08-3.72-20.16-20-53.88,11.27-83.18,12.61,9,51.59,14.57,69.27,4.59C674.11,990.1,654.56,1023.32,624.09,1092.3Z"/><path class="cls-53" d="M565.17,1238.65c-.72,2-2.13,6-2.8,7.86-8.5,12.35-38.81,11.06-38.75-.46.32-1.87.65-3.78,1-5.74C531.82,1247.67,553.67,1247.77,565.17,1238.65Z"/><path class="cls-54" d="M723.8,477.94c-1.15,2.44-2.26,4.91-3.47,7.32l-5,9.95c-1.06-4.88-5-6.74-7.94-4.28a8.56,8.56,0,0,0-2.43,3.25c-.47-1.33-4.24-4.33-9.34,2.91-3.17-.35-4.85,1-6.19,3.57a39,39,0,0,0-2.13,5.21,20.82,20.82,0,0,0-1.49,7.07c0,4.8.24,10,.1,15.73-.14,6.22-7.2,14.1-11,18.64L698,554.63c3.53-4.44,5.44-7.64,9-11.24s8.21-4.11,11.66-6.95c1.94-1.58,3.05-3.68,6.34-8.34,2.72-3.85,4.21-8,6.8-12.24s2.38-3.4,2.63-8.3c.2-3.79,1.43-7.52,1.74-9.82-4.75-2.36-8.49,3.5-8.45,9.2-2.72,1.53-4.5,5.28-5.12,6.95-3.77-4.93-1.52-7,0-13.33A63.91,63.91,0,0,0,728,487.85c.73-2,1.47-4,2.26-6.16,1.07-3.55-.3-6.07-1.37-6.76C728,474.35,725.73,474.61,723.8,477.94Z"/><path class="cls-55" d="M733.42,497.25c-3.37.49-5.75,5.14-5.72,9.69-2.54,1.43-4.27,4.81-5,6.6,1.38-1.77,4.91-5.58,6.06-6,.36-4.39,1.92-8,4.64-10.25Zm-17.64-2.9-.43.86a8.81,8.81,0,0,0-1.25-3.06,12.39,12.39,0,0,1-3.29,7.33,8.22,8.22,0,0,0,5-5.13ZM705,494.1a2.8,2.8,0,0,0-1.22-1.24,19.66,19.66,0,0,1-2.59,6.62A11.06,11.06,0,0,0,705,494.1Zm-9.2,2.84-.11.15a8.3,8.3,0,0,0-1.48,0,15,15,0,0,1-2.69,7.4C693.91,502.07,695.15,500.44,695.75,496.94Z"/><path class="cls-56" d="M636.6,611.35c11.62-20.25,20.72-45.61,37-66.18,1.36-1.72,4.54-3,5.71-4.83q2.54-3.93,5.06-7.72c7.61.14,17,4.06,23.37,10.54q-1.37,4.07-2.68,8.09c-1,3.13.94,9.82.05,13a521.68,521.68,0,0,1-28.47,77.57c-16.11,20.78-87.68,154.14-125.11,105.75-3.36-17.21,1.2-31.53,9.85-45.46,4.8-7.71,12.08-14.44,17-19.52C590.1,670.33,618.93,629.57,636.6,611.35Z"/><path class="cls-57" d="M557,811.21c2.62,23.61-4.48,46.84,2.75,68.4.32,2.23.53,11,.91,13.35,4.76,27.93,63.84,56.19,113.11,29.39.27-3.46,0-7.08.23-13.5-.92-6,1.67-12.41,1.66-16.06-.08-15.2-4.81-23-2.54-39.89,4.62-34.41,23.68-67.48,13.14-94.55-2.27-5.81-6.23-8.63-10.72-12.23-11.65-9.36-71.87-40-90.13-42.19C532.38,697.06,554.13,785.59,557,811.21Z"/><path class="cls-58" d="M678.43,828c6.83-25.29,15.76-49.16,7.8-69.61-2.27-5.81-6.23-8.63-10.72-12.23-11.65-9.36-10.11,15.8-28.36,13.63C643.63,793.37,660.25,824,678.43,828Z"/><path class="cls-34" d="M641.26,693.36a130.31,130.31,0,0,0,1.34,29c-17.26-.56-41.25-5.07-43.86-17.93.12-1.54.23-3.1.31-4.63a7,7,0,0,0-.71-.56c-6.19-4.11-16.43-7.17-23-14.69-10.52-12-16.11-28.19-7.85-44.45,15.07-29.7,51.53-30.2,71.84-6.19,4,4.69,1.06,9.55,3.32,14.07.44.89,2.06,1.28,3.94,2.84,2.6,2.14,10.18,20.71,10,30.4-.08,3.9-9,9.4-13,11.56A10.75,10.75,0,0,1,641.26,693.36Z"/><path class="cls-59" d="M641.26,693.36a130.31,130.31,0,0,0,1.34,29c-17.26-.56-41.25-5.07-43.86-17.93.12-1.54.23-3.1.31-4.63-.24-.21-.5-.36-.71-.56-13.12-12.28,4.43-26.35,26.6-14.22A17.21,17.21,0,0,0,641.26,693.36Z"/><path class="cls-60" d="M656.56,681.22c-.08,1.7-7.14,4.28-10.1,4.67,2-18.34-15.44-21.14-12.81-39.06,1.58-10.76-9.49-14.65-5.15-22.53a49.81,49.81,0,0,1,10.82,9.61c4,4.69,1.06,9.55,3.32,14.07.44.89,2.06,1.28,3.94,2.84C649.18,653,657,671.54,656.56,681.22Z"/><path class="cls-61" d="M632.77,673.77c-.34-4.11-2-4.9-3.38-3.81s-2.8,4.76-2.39,9c.67,6.82,7,12.92,11.35,7.41-4.76,2.52-7-3.58-7.21-7.89C631,675.54,631.74,673.08,632.77,673.77Z"/><path class="cls-62" d="M631.26,676.39c2.53,1.92,3.7,3.22,3.66,4.29,0,.75-.65,1.88-2.88,1.09A9.71,9.71,0,0,1,631.26,676.39Z"/><path class="cls-7" d="M598.53,704c-5.11,1.58-9.88,6.83-8.95,10.2,5.08,20.78,43.17,25.42,66.86,20.42.28-.06-8.87-12.17-13.4-13.64C628.13,722.41,603.12,716.24,598.53,704Z"/><path class="cls-63" d="M596.69,702.69c-6.31-6.74-17-10-23.85-17.8s-14.17-19.6-9.65-31.79c-8-25,19.26-44.9,42.18-49.42,16.4-3.23,26.21,14.36,19.08,26.26,6.15,6.88,5.94,16,5.51,18.31-1.31,7.15-1.12,8,1.16,13.41,1.81,4.22,6.31,14.44-1.84,8-5.26-4.18-8.94,5.06-7.16,11.44a29.24,29.24,0,0,1,1.14,12.35C621.73,706.82,600.21,706.44,596.69,702.69Z"/><path class="cls-64" d="M570.79,641.76c-5.43-24.25,26.46-36.53,38.94-36.82s22.52,20.48,7.55,27.48C607.07,637.19,586.86,627.86,570.79,641.76Z"/><path class="cls-65" d="M823.65,676.11a17.07,17.07,0,0,0-1,4.9,39.58,39.58,0,0,0-2.37,7.44c-.78,3.93-.48,7-.6,12.25-.07,3,.42,4.58,1.06,7.53-3.06,6-7.88,9.67-12.38,14.61L822.91,734c6.15-4.05,11-8.32,16.26-11.84,4.3-1.7,5.81-2.66,7.09-4,3.38-3.52,13.32-14,13.89-18.09.64-4.56-.58-15.11-1.61-20.91-2.64-14.78-8.27-30.3-9.23-23.45-1.41,1.64-.26,15-1.15,17-3.45,4-5.1,5.61-9.42,10.35-2.68,1.52-4.45,3.12-5.74,3.47-1.49.4-2.32-.64-2.37-2-.06-1.46.88-4.06,1.65-7.88,0-6.33-1.57-9.91-4.95-9.58a3.34,3.34,0,0,0-3.18,3C823.8,671.48,823.89,673.52,823.65,676.11Z"/><path class="cls-66" d="M676.69,738.12c20.08,3.1,58.81,25.18,85.54,37.15,14.9-21.24,34.46-46.7,46.53-55.27,1.39-1,4.92-3,6-4.3,1.75-2.15,3.46-4.35,5.11-6.62,7.54,1,18.46,10.46,18.32,14.9q-1.83,3.35-3.71,6.95c-.86,1.64-.55,5.23-1.05,7.08-4.1,14.87-26.66,49.23-37.18,64.56-6.08,8.85-8.22,14-12.33,16.7-6.61,4.24-15.47,1.92-32.55-2.37-14.36-3.61-60.76-12-82.1-23.31-15.06-8-26.61-22.25-20.63-38.73C652.48,744.3,663.78,736.13,676.69,738.12Z"/></g></g></svg>