<?xml version="1.0" encoding="utf-8"?>
<!-- Generator: Adobe Illustrator 25.2.0, SVG Export Plug-In . SVG Version: 6.00 Build 0)  -->
<svg version="1.1" id="Layer_1" xmlns="http://www.w3.org/2000/svg" xmlns:xlink="http://www.w3.org/1999/xlink" x="0px" y="0px"
	 viewBox="0 0 2011.3 2000" style="enable-background:new 0 0 2011.3 2000;" xml:space="preserve">
<style type="text/css">
	.st0{opacity:0.5;fill-rule:evenodd;clip-rule:evenodd;fill:url(#SVGID_1_);enable-background:new    ;}
	.st1{opacity:0.5;fill-rule:evenodd;clip-rule:evenodd;fill:#A1C3FF;enable-background:new    ;}
	.st2{opacity:0.5;fill-rule:evenodd;clip-rule:evenodd;fill:#D6E6FF;enable-background:new    ;}
	.st3{opacity:0.2;fill-rule:evenodd;clip-rule:evenodd;fill:#5F7FFB;enable-background:new    ;}
	.st4{fill-rule:evenodd;clip-rule:evenodd;fill:url(#SVGID_2_);}
	.st5{fill-rule:evenodd;clip-rule:evenodd;fill:#D0E7FF;}
	.st6{fill-rule:evenodd;clip-rule:evenodd;fill:url(#SVGID_3_);}
	.st7{fill-rule:evenodd;clip-rule:evenodd;fill:#6699FD;}
	.st8{opacity:0.8;fill-rule:evenodd;clip-rule:evenodd;fill:#FFFFFF;enable-background:new    ;}
	.st9{opacity:0.8;fill-rule:evenodd;clip-rule:evenodd;fill:#00CEDC;enable-background:new    ;}
	.st10{fill-rule:evenodd;clip-rule:evenodd;fill:#4551FB;}
	.st11{fill-rule:evenodd;clip-rule:evenodd;fill:#00CEDC;}
	.st12{fill-rule:evenodd;clip-rule:evenodd;fill:#6BB6FF;}
	.st13{opacity:0.5;fill-rule:evenodd;clip-rule:evenodd;fill:url(#SVGID_4_);enable-background:new    ;}
	.st14{fill-rule:evenodd;clip-rule:evenodd;fill:url(#SVGID_5_);}
	.st15{fill-rule:evenodd;clip-rule:evenodd;fill:#485AF4;}
	.st16{opacity:0.5;fill-rule:evenodd;clip-rule:evenodd;fill:url(#SVGID_6_);enable-background:new    ;}
	.st17{fill-rule:evenodd;clip-rule:evenodd;fill:url(#SVGID_7_);}
	.st18{fill-rule:evenodd;clip-rule:evenodd;fill:#FFB7E8;}
	.st19{fill-rule:evenodd;clip-rule:evenodd;fill:url(#SVGID_8_);}
	.st20{fill-rule:evenodd;clip-rule:evenodd;fill:#FFFFFF;}
	.st21{opacity:0.5;fill-rule:evenodd;clip-rule:evenodd;fill:#FFFFFF;enable-background:new    ;}
	.st22{opacity:0.5;fill-rule:evenodd;clip-rule:evenodd;fill:url(#SVGID_9_);enable-background:new    ;}
	.st23{fill-rule:evenodd;clip-rule:evenodd;fill:url(#SVGID_10_);}
	.st24{fill-rule:evenodd;clip-rule:evenodd;fill:#1C8DF3;}
	.st25{fill-rule:evenodd;clip-rule:evenodd;fill:url(#SVGID_11_);}
	.st26{fill-rule:evenodd;clip-rule:evenodd;fill:url(#SVGID_12_);}
	.st27{fill-rule:evenodd;clip-rule:evenodd;fill:#1F202B;}
	.st28{fill-rule:evenodd;clip-rule:evenodd;fill:#161A40;}
	.st29{fill-rule:evenodd;clip-rule:evenodd;fill:#161F69;}
	.st30{fill-rule:evenodd;clip-rule:evenodd;fill:url(#SVGID_13_);}
	.st31{fill-rule:evenodd;clip-rule:evenodd;fill:url(#SVGID_14_);}
	.st32{fill-rule:evenodd;clip-rule:evenodd;fill:url(#SVGID_15_);}
	.st33{fill-rule:evenodd;clip-rule:evenodd;fill:url(#SVGID_16_);}
	.st34{fill-rule:evenodd;clip-rule:evenodd;fill:url(#SVGID_17_);}
	.st35{opacity:0.5;fill-rule:evenodd;clip-rule:evenodd;fill:url(#SVGID_18_);enable-background:new    ;}
	.st36{fill-rule:evenodd;clip-rule:evenodd;fill:url(#SVGID_19_);}
	.st37{fill-rule:evenodd;clip-rule:evenodd;fill:#FFA698;}
	.st38{fill-rule:evenodd;clip-rule:evenodd;fill:#C758D8;}
	.st39{fill-rule:evenodd;clip-rule:evenodd;fill:url(#SVGID_20_);}
	.st40{opacity:0.5;fill-rule:evenodd;clip-rule:evenodd;fill:url(#SVGID_21_);enable-background:new    ;}
	.st41{opacity:0.5;fill-rule:evenodd;clip-rule:evenodd;fill:url(#SVGID_22_);enable-background:new    ;}
	.st42{opacity:0.5;fill-rule:evenodd;clip-rule:evenodd;fill:url(#SVGID_23_);enable-background:new    ;}
	.st43{opacity:0.5;fill-rule:evenodd;clip-rule:evenodd;fill:url(#SVGID_24_);enable-background:new    ;}
	.st44{opacity:0.5;}
	.st45{fill-rule:evenodd;clip-rule:evenodd;fill:url(#SVGID_25_);}
</style>
<g>
	<g>
		<g>
			
				<linearGradient id="SVGID_1_" gradientUnits="userSpaceOnUse" x1="1261.0612" y1="679.4598" x2="1591.5389" y2="969.5986" gradientTransform="matrix(1 0 0 -1 0 2000)">
				<stop  offset="0" style="stop-color:#A3C1FF"/>
				<stop  offset="1" style="stop-color:#D7E7FF"/>
			</linearGradient>
			<path class="st0" d="M1784.8,1206.1c-5,31.6-59,34.7-109.5,26.1c-18.3-3.1-74.3-20.7-75.6-3.1c-1,6.3,20.2,26.3,42.8,47.2
				c20.2,18.6,81.7,65,61.9,103.7c-18,35.1-109.7-16.1-137-36.7c-93.5-70.6-96.6-46.4-20.9,28.1c30.4,29.9,57.1,71.4,64.8,96.2
				c3.9,12.6,4.1,24-10.6,25.8c-16.8,1.9-49.9-8.1-98.9-22c-112.1-31.8-202.6-90.9-322.5,45.4c9-164.4,25-296.5,41.5-448.1
				c3.7-33.8,8.1-69.2,13.3-102.2c7.4-46.5,16.5-87.9,27.7-112.4c3-6.6,6-11.9,8.8-15.9l0.2-0.3c17.4-24.2,31.2-1.1,30.9,59.6
				c-0.1,26.7-0.8,52.1-1.7,81.5c-1.2,41.2-0.2,67.3,4.5,68.2c5.3,0.9,12.3-31.2,28.3-105.5c20.6-95.9,51.9-214.4,77.1-201.7
				c8.3,4.1,15,33.1,18.2,108.5c3.6,134.4,20.8,39.9,43.1-24.3c11.9-37,37.4-155.8,68.6-124.3c13,13.1,7.3,65.3,0.8,105.6
				c-1.5,9.2-3,17.8-4.3,25.2c-1.1,5.9-2,11.3-2.8,16.2c-10.3,64.6,3.1,46.2,28.4-7.9c12.3-26.1,24.8-51.4,38.6-68.4
				c47.6-58.8,54.5-7.2,46.2,45.2c-0.9,5.6-2,11.2-3.2,16.7c-4.4,19.9-9.5,38.6-11.8,52.8c-3.6,22.8,0.1,33.9,26.1,19.5
				c10.9-6.1,26-12.5,45.5-17.1c40.1-9.4,60.1-2.7,73.3,33.5c2.9,8.1,3.4,16.9,2,26.1c-4.3,27-25.5,57.2-52.5,80.3
				c-24.6,21.1-48.2,37.4-51.2,56.7c-0.5,3.2-0.5,6.4,0.2,9.7c4.8,23.8,42.5,43.6,71.4,60.3
				C1777,1171.8,1787.4,1190.1,1784.8,1206.1z"/>
			<path class="st1" d="M1761.1,927c-85.1,50.4-164.8,114-239.7,185.4c44.3,13.1,85.2,29.4,121.1,48.7
				c-44.4-13.2-90.2-25.4-133.9-36.4c-42.6,41.4-83.6,85.2-123.2,130.5c-14.9,17.1-30.2,35.4-45.6,54.3
				c57.1,26.6,106.6,61.2,151.8,94c-56.7-26.1-108.4-55.5-164.2-78.6c-55.1,68.7-111.4,144.7-160.1,207
				c36.5-79.6,106-181.3,171.9-261.5c7.8-70.8,24.6-215.3,44.6-275c-6.6,51.1-16.9,177.5-23.7,250.1c4.2-4.9,8.4-9.7,12.6-14.4
				c43.7-49.2,106.2-106.8,172.4-159.9l0.1-0.7c10.7-54.9,29.2-108.7,45.7-153.2c-9.8,48.9-21.8,94.3-30.6,141.8
				C1630.4,1004,1703.2,955,1761.1,927z"/>
		</g>
		<g>
			<path class="st2" d="M1481.4,404.3c30.5-37.4,167.2-106.2,173.6-32.8C1661.3,444.9,1552.8,373.5,1481.4,404.3L1481.4,404.3z
				 M1323,871.2c0.2-3.2,0.1-6.7-0.2-10.6c62.7-41.5,177.6-5.4,153.2-72.5c-23.4-64.5-124,19.5-153.7,66.9
				c-6.8-57.6-55.8-170.4-104.9-125.4c-51.9,47.6,62.8,68.7,100.9,132.5c-0.5,0.9-0.9,1.9-1.3,2.8c0.7-0.5,1.4-1,2-1.5
				C1320.4,865.9,1321.7,868.5,1323,871.2L1323,871.2z M1344.5,741.1c-1-3-2.3-5.9-3.6-8.8c-0.5,0.3-1.1,0.6-1.6,1
				c0.4-0.6,0.7-1.3,1.1-1.9c-32.4-66.7-144.5-97.9-88.6-140.6c52.8-40.4,91.5,75.5,93.4,133.7c33.4-44.5,141.7-120,159.4-53.5
				c18.4,69.1-93.2,22.7-159.3,58.8C1345.3,733.9,1345,737.7,1344.5,741.1L1344.5,741.1z M1376.5,614.8c1-3.1,1.9-6.6,2.6-10.5
				c71.4-26.8,176.1,40.8,169.9-31.3c-6.1-70.4-132.1-10-169.3,28.1c9.1-56.5-8.6-181.5-68.4-150.4
				C1245.8,484.6,1364.2,538.1,1376.5,614.8L1376.5,614.8z M1677,226.8c30.5-37.4,167.2-106.2,173.6-32.8
				C1856.9,267.4,1748.5,196,1677,226.8L1677,226.8z M1561.8,311.1c33.5-34.7,85.8-178.6,12.1-176.2
				C1500.2,137.3,1583.9,236.6,1561.8,311.1L1561.8,311.1z M1485.2,399.7c23.5-42.2,37.1-194.6-33.5-173.4
				C1381.1,247.5,1487.4,322,1485.2,399.7L1485.2,399.7z M1422,504.2c-7.5-77.4-122.3-138-55-167.9
				C1434.4,306.5,1440.1,459.4,1422,504.2L1422,504.2z M1426.3,497.4c71.4-30.7,179.9,40.6,173.6-32.8
				C1593.5,391.2,1456.8,460,1426.3,497.4L1426.3,497.4z M1558.1,316.3c71.4-30.7,179.9,40.6,173.6-32.8
				C1725.3,210.1,1588.6,278.9,1558.1,316.3z"/>
			<path class="st1" d="M1322.5,800c4.5-27.1,10-54.3,16.4-81.3c-9.5-29.6-33.4-88.4-81.3-119.9c50.5,19.9,73.7,82.3,82.2,116
				c9.7-40.2,21.5-80,35.5-118.7c-3.5-28.9-16-95.3-59.8-136.5c48.4,29.6,59.3,99.7,61.1,132.9c13.2-36,28.4-70.9,45.6-104.4
				c-1.3-27.4-8.9-97.4-51.4-142.7c48.2,33.8,53.5,108.6,52.8,140.1c18.8-36.2,40-70.6,63.8-102.4c2.1-27.8,3-97.5-33.2-147.3
				c43.4,39.4,39.5,113.8,34.9,145.2c23.9-31.6,50.3-60.7,79.5-86.5c9.3-27.1,27.2-93.1,5.3-149.7c31.2,48.2,9.8,117.4-2.8,147.5
				c42.6-37.1,90.8-67.3,145.3-88.2c14.5-6.5,32.3-12.9,51.2-16.4c2.4-0.6,4.9-1.2,7.3-1.8c-1.3,0.4-2.6,0.8-3.9,1.2
				c23.2-3.8,47.8-2.9,69.8,7.8c-41.6-10.7-85.5-1-116.7,9.9c-57.7,25.2-107.3,59.9-149.9,100.6c27.6-15.9,95.2-46.8,147.7-21
				c-61.4-15.7-127.7,12.7-151.2,24.4c-26.6,25.9-50.4,54.1-71.7,83.8c28.4-16.1,94.6-45.5,146.2-20.2
				c-58.9-15.1-122.3,10.5-148.1,22.9c-20.9,29.5-39.4,60.4-55.7,91.8c26.9-15.7,95.5-47.7,148.7-21.6
				c-60.1-15.4-125.1,11.6-149.7,23.7c-17.6,34.3-32.7,69.3-45.5,103.8c29.4-16.3,93.8-44,144.3-19.1
				c-56.8-14.5-117.8,8.7-145.2,21.5c-15.3,41.7-27.4,82.8-36.8,121.2c26.5-21.3,84.5-58.7,138-43.2
				c-57.9-4.4-113.5,28.4-138.6,45.9c-7,28.8-12.4,56.2-16.6,81.2c-2.5,15.1-4.8,30.6-6.9,46.4c24.4-23.5,79-66.2,133.8-55.4
				c-58.2,0.7-110.8,38.5-134.2,58.1c-5.2,40.7-8.9,83.6-10.8,127.5l-17.5,47.6c0.4-65.7,5.2-126.5,11.2-175.7
				c-12.1-28.7-41.1-85.1-91.5-112.1c51.9,15.3,80.5,75.1,92.1,108C1318,828.7,1320.3,813.5,1322.5,800z"/>
		</g>
	</g>
</g>
<g>
	<path class="st3" d="M1240.3,1807.2l-438.8-250.6c-16.3-7.4-40.2-14.5-56.2-4.7l-40.9,24.9c-8.2,5-35.3,21.6-17.2,31.5
		c53.2,28.9,393.2,227.6,447.2,256.9c10.2,5.6,25.2,7.6,40.9,6.3c15.6-1.3,31.8-5.5,44.3-13.2l16.3-10.1
		c11.5-7.1,17.9-14.9,18.5-22.4C1255,1818.5,1250.3,1811.7,1240.3,1807.2z"/>
	<g>
		
			<linearGradient id="SVGID_2_" gradientUnits="userSpaceOnUse" x1="231.4054" y1="1255.1675" x2="492.456" y2="1580.4542" gradientTransform="matrix(1 0 0 -1 0 2000)">
			<stop  offset="0" style="stop-color:#6D6AFE"/>
			<stop  offset="1" style="stop-color:#3FB0F7"/>
		</linearGradient>
		<path class="st4" d="M337,954.6c6,5.2,12.4,9.8,19.2,13.8l5.7-9.8c-6.2-3.6-12.1-7.9-17.5-12.6L337,954.6L337,954.6z M290.8,854.1
			l-11.3,0.8l-1.6-22.6l11.3-0.8L290.8,854.1L290.8,854.1z M364.3,291.8l-5.6,9.8l-19.6-11.3l5.6-9.8L364.3,291.8L364.3,291.8z
			 M550.9,397.9l-1.1-0.6l-5.6,9.8l1.1,0.6L550.9,397.9L550.9,397.9z M540.1,391.6l-5.6,9.8l-19.6-11.3l5.6-9.8L540.1,391.6
			L540.1,391.6z M510.6,374.7l-5.6,9.8l-19.6-11.3l5.6-9.8L510.6,374.7L510.6,374.7z M481.2,357.9l-5.6,9.8L456,356.4l5.6-9.8
			L481.2,357.9L481.2,357.9z M451.8,341l-5.6,9.8l-19.6-11.3l5.6-9.8L451.8,341L451.8,341z M422.4,324.1l-5.6,9.8l-19.6-11.3
			l5.6-9.8L422.4,324.1L422.4,324.1z M392.9,307.2l-5.6,9.8l-19.6-11.3l5.6-9.8L392.9,307.2L392.9,307.2z M329.8,277.9h-0.3
			c-8.6-0.9-16.9,0.1-24.8,3.7l4.7,10.3c5.8-2.7,12.8-3.4,19.1-2.7L329.8,277.9L329.8,277.9z M293.8,288.8
			c-6.1,5.6-10.9,13.3-13.5,21.2l10.7,3.7l0.4-1.1c2.2-5.8,5.4-11.2,10.1-15.4L293.8,288.8L293.8,288.8z M277.3,321.8
			c-0.8,5.1-1.2,10.1-1.2,15.3v8.2h11.3v-8.2c0-4.6,0.4-8.9,1.1-13.4L277.3,321.8L277.3,321.8z M276.1,356.6h11.3l0.1,22.6h-11.3
			L276.1,356.6L276.1,356.6z M276.2,390.6h11.3l0.1,22.6h-11.3L276.2,390.6L276.2,390.6z M276.3,424.5h11.3l0.1,22.6h-11.3
			L276.3,424.5L276.3,424.5z M276.4,458.4h11.3l0.1,22.6h-11.3L276.4,458.4L276.4,458.4z M276.6,492.3h11.3l0.1,22.6h-11.3
			L276.6,492.3L276.6,492.3z M276.7,526.3H288l0.1,22.6h-11.3L276.7,526.3L276.7,526.3z M276.8,560.2h11.3l0.1,22.6h-11.3
			L276.8,560.2L276.8,560.2z M276.9,594.1h11.3l0.1,22.6H277L276.9,594.1L276.9,594.1z M277,628h11.3l0.1,22.6h-11.3L277,628
			L277,628z M277.1,661.9h11.3l0.1,22.6h-11.3L277.1,661.9L277.1,661.9z M277.2,695.9h11.3l0.1,22.6h-11.3L277.2,695.9L277.2,695.9z
			 M277.3,729.8h11.3l0.1,22.6h-11.3L277.3,729.8L277.3,729.8z M277.4,763.7h11.3l0.1,22.6h-11.3L277.4,763.7L277.4,763.7z
			 M277.5,797.6h11.3l0.1,22.6h-11.3L277.5,797.6L277.5,797.6z M277.6,832.3L277.6,832.3L277.6,832.3L277.6,832.3z M282.4,866.5
			c2,7.5,4.6,14.9,7.6,22.1l10.4-4.4c-2.9-6.5-5.3-13.8-7.1-20.6L282.4,866.5L282.4,866.5z M294.8,899.2c2.9,6.5,7.7,14.2,11.6,20.2
			l9.4-6.2c-3.8-5.9-8-12.6-10.9-19L294.8,899.2L294.8,899.2z M313.2,928.9c4.7,6.2,9.8,12.1,15.3,17.7l8-8
			c-5.1-5.2-9.9-10.7-14.3-16.5L313.2,928.9z"/>
		<g>
			<g>
				<g>
					<g>
						<path class="st5" d="M332.8,593c4.1-2.2,8.3-4.3,12.4-6.5c3.7-1.2,8.3-0.5,13.4,2.4c125.5,72,250.8,146.5,376.3,218.5
							c11.8,6.8,21.4,23.4,21.4,37l0.6,496.9c0,6.2-2,10.7-5.3,13.1c-3.9,2.9-9.8,6.9-14.8,7.5c-1.9,0.2-3.8,0-5.6-1.1
							c-125.5-72-248.5-152.9-374-224.9c-11.8-6.8-21.4-23.4-21.4-37L332.8,593z"/>
						
							<linearGradient id="SVGID_3_" gradientUnits="userSpaceOnUse" x1="517.4037" y1="987.5257" x2="600.9953" y2="1144.9911" gradientTransform="matrix(1 0 0 -1 0 2000)">
							<stop  offset="0" style="stop-color:#6D6AFE"/>
							<stop  offset="1" style="stop-color:#3FB0F7"/>
						</linearGradient>
						<path class="st6" d="M326.4,606.8c0-13.6,9.7-19.1,21.5-12.3C473.4,666.5,598.7,741,724.2,813c11.8,6.8,21.4,23.4,21.4,37
							l0.6,496.9c0,13.6-9.7,19.1-21.5,12.3c-125.5-72-250.8-146.5-376.3-218.5c-11.8-6.8-21.4-23.4-21.4-37L326.4,606.8z"/>
					</g>
					<g>
						<g>
							<polygon class="st7" points="326.8,847.8 745.8,1089.7 745.9,1160.6 326.8,918.4 							"/>
							<polygon class="st7" points="326.8,1024.8 745.8,1266.8 745.9,1337.7 326.8,1095.5 							"/>
						</g>
						<g>
							<path class="st8" d="M602.1,929c0-6-2.6-11.8-8.5-15.2c-5.4-3.1-8.3-4.3-11.3-5.2v6.2l8.4,4.8c2.9,1.7,4.2,2.7,4.2,5.3
								c0,3.2-9.3,6.4-12.3,7.1v7.2l19.5,11.2V943l-7.8-4.5C596.5,937.3,602.1,934.8,602.1,929z"/>
							<path class="st8" d="M706.6,988.9v-1.6c0-5.1-2.9-9.6-7-12c-1-0.6-1.9-1.1-2.9-1.7c-3.4-2-6.8-3.7-9.4-4.2v6.2l8.6,5
								c2,1.1,3.5,2,3.5,4.2v0.4c0,2-0.9,1.4-3.5,0.1l-6.1-3.1v6.8l6.1,3.8c2.4,1.5,3.4,2.2,3.4,4.1v0.4c0,2-0.8,1.6-3.6-0.1
								l-8.2-4.7v6.4c2.9,2.8,6.7,5,10.5,7.3c0.4,0.2,0.8,0.5,1.2,0.7c4.5,2.6,7.3,1.3,7.3-3.9v-1.3c0-3.2-0.8-6.1-3.1-8.4
								C705.7,993.8,706.6,992.1,706.6,988.9z"/>
							<path class="st8" d="M385.7,813.2c0,2.3-0.9,2-2,1.3l-1.6-0.9c-0.8-0.5-2.1-1.3-2.1-3.8v-11.4c0-0.5,0-2.5,1.8-1.4l2.2,1.2
								c1,0.6,1.8,1.5,1.8,3.5L385.7,813.2L385.7,813.2z M386.1,792l-6.1-3.5c-4.7-2.7-7.3-1.1-7.3,4.5v14.4c0,5.1,2.4,9.5,7.2,12.3
								l6.1,3.5c4.4,2.5,6.9,0.9,6.9-4.1v-14.9C393,799.8,391.5,795.1,386.1,792z"/>
							<polygon class="st8" points="486.1,851.9 481.6,852.8 481.6,858.1 486,859.7 485.9,883.1 493.1,887.3 493.2,856 							"/>
						</g>
						<g>
							<polygon class="st8" points="471.3,779.2 471.4,734.6 445,741.7 							"/>
							<polygon class="st8" points="476.3,737.4 476.2,781.9 481,784.7 481.1,740.2 							"/>
							<polygon class="st8" points="376.1,701.9 402.6,739.6 402.7,694.9 							"/>
							<polygon class="st8" points="367.4,719.2 372.1,721.9 372.2,677.3 367.5,674.5 							"/>
							<polygon class="st8" points="619,819.8 618.9,864.4 645.5,857.4 							"/>
							<polygon class="st8" points="609.4,858.9 614.1,861.6 614.3,817 609.5,814.3 							"/>
							<polygon class="st9" points="534.3,770.8 534.2,815.5 560.6,808.4 							"/>
							<polygon class="st8" points="678.7,899 705.2,891.9 678.8,854.3 							"/>
							<polygon class="st8" points="709.1,871.8 709,916.4 713.8,919.3 714,874.6 							"/>
						</g>
						<path class="st10" d="M326.8,929l5.1-3.6l1.7,9.3l3.2-3.7l5.8,5.5l2.1,6.1l6.8,2.8l5.8-70.2l-1.1,74.5l1.7-3.7l1.7,3.3
							l2.4-7.8l1.9-4.8l1.7,15.1l5.1,8c0,0,5.3,9.1,5.8,7.8c0.4-1.3,7.5-45.1,7.5-45.1l0.4,40.8l9.4-58l-1.9,60.4l6.4-56.7v61.1
							L406,940l0.6,22.1l3.8-13.7l1.9,27.5l5.8-17.2l1.1,30l6-15l-1.3,21.3l-0.4,15.1l3.8-7.2l0.9,11c0,0,3.4-11.1,3.8-7.7
							c0.4,3.4,1.5,12.9,1.5,12.9s3.8-13.9,4.1-11.9s3.5,3.2,3.8,1.5c2.7-15.4,5-30,8.3-44.2l-3.4,54.5l2,8.7l3.1-33.6l4.3-22.8
							v22.2l-3.4,34.4c-1.4,14.5,4-25.8,6.4-40.2c0,0,1.7-10.2,1.7-5.9s-0.4,21.3-0.4,21.3l-2.6,30.1l1.6,0.7L470.7,929l-5.1,116
							c6-19.3,8-32.1,10.7-52.3l-2.6,39.1l-1.3,16.6l5.1-26.2l3.4-11.3l1.3,8.2l2.6-5.8l1.7,10.4l3.4-5.4l1.9,5.5l0.2,18.4l1.7-6.7
							l0.4,7.7l3.4-4.1l0.4,5.2l4.9,6.3l4.5,7.8l6-32.1l-0.9,33.3l8.9-56.5l-1.2,56.1c8.7-32.5,14-133.4,12.4-99.3L529,1033l0.9-1
							l1.7,9.3l3.2-3.7l5.8,5.5l2.1,6.1l6.8,2.8l5.8-70.2l-1.1,74.5l1.7-3.7l1.7,3.3l2.4-7.8l1.9-4.8l1.7,15.1l5.1,8
							c0,0,5.3,9.1,5.8,7.8c0.4-1.3,7.5-45.1,7.5-45.1l0.4,40.8l9.4-58l-1.9,60.4l6.4-56.7v61.1l7.7-30.1l0.6,22.1l3.8-13.7
							l1.9,27.5l5.8-17.2l1.1,30l6-15l-1.3,21.3l-0.4,15.1l3.8-7.2l0.9,11c0,0,3.4-11.1,3.8-7.7s1.5,12.9,1.5,12.9
							s3.8-13.9,4.1-11.9c0.2,1.9,3.5,3.2,3.8,1.5c2.7-15.4,5-30,8.3-44.2l-3.4,54.5l2,8.7l3.1-33.6l4.3-22.8v22.2l-3.4,34.4
							c-1.4,14.5,4-25.8,6.4-40.2c0,0,1.7-10.2,1.7-5.9c0,4.3-0.4,21.3-0.4,21.3l-2.6,30.1l1.6,0.7l11.7-104.9l-5.1,116
							c6-19.3,8-32.1,10.7-52.3l-2.6,39.1l-1.3,16.6l5.1-26.2l3.4-11.3l1.3,8.2l2.6-5.8l1.7,10.4l3.4-5.4l1.9,5.5l0.2,18.4l1.7-6.7
							l0.4,7.7l3.4-4.1l0.4,5.2l4.9,6.3l4.5,7.7l6-32.1l-0.9,33.3l8.9-56.5l-1.2,56.1c6.1-32.6,11.6-134.9,12.4-99.3l2.3,109.4
							l7.1-3.9l1.3,9.9l4.5-2.6l-0.1,76.4l-4.9-10.1l-5.4-0.2l-5.4-6.9l-7.7,86.1c-3.2,35.6,0.9-70.9-5.4-113.6l-2.5,57.3l-4.8-66.8
							l-1.4,34.2l-3.6-39.1l-4.8,2.4l-5.1,0.4l-0.8,4.6l-3-8.1l-0.9,7.2l-1.2-8.7l-1.4,18.1l-2.2,3.2l-2.9-9.4l-2.3,8.3l-2.1-8.8
							l-1.8,6.6l-2.5-15.3l-3.2-32.2l0.1,18l-0.1,41.9c-1.2-23.2-2.3-38.4-6.8-64.7l-2.7,121.6l-4.3-118.3l-1.6-1.2l0.5,33
							c0,0-0.7,17.5-1,21.8s-1.3-7.9-1.3-7.9c-1.3-17.2-3.9-63.9-3.5-47.7l1,38.3l-1.5,22.1l-2.6-27.8l-0.8-37.1l-2.5,6.2l-0.3,58.3
							c-2.3-18-3.5-35.3-5.1-53.9c-0.2-2-3.5-4.7-3.8-3s-3.1-16.7-3.1-16.7s-1.7,8.2-2.3,11.1c-0.6,2.9-3.2-12.2-3.2-12.2l-1.5,9.9
							l-3.2-11.8l-0.6,15.6l-0.2,22.7l-4.8-22.1l-3,28.6l-4.4-23.9l-3.7,25.1l-2.8-18.2l-2.1,21.2l-5.4-39.1l-4,60.9l-2.4-64.1
							l-2.1,62.4l-5.2-68.9l-3.1,40.2c0,0-3.9-52-4.2-53.8c-0.3-1.8-6.1,1-6.1,1l-5.5,1.9l-2.6,13l-1.5-7.1l-1.7-10.5l-1.9,1.3
							l-1.4-5.8l-3.9,75.5l-0.9-76.7l-6.8-5.4l-2.5,3.6l-5.9-1.4l-2.8-7.4l-2.3,7.2l-1.2-3.2l-1.9,100.6
							c-0.7,35.9,0.9-70.9-5.4-113.6l-2.5,57.3l-4.8-66.8l-1.4,34.2l-3.6-39.1l-4.8,2.4l-5.1,0.4l-0.8,4.6l-3-8.1l-0.9,7.2l-1.2-8.7
							l-1.4,18.1l-2.2,3.2l-2.9-9.4l-2.3,8.3l-2.1-8.8l-1.8,6.6l-2.5-15.3l-3.2-32.2l0.1,18l-0.1,41.9c-1.2-23.2-2.3-38.4-6.8-64.7
							l-2.7,121.6l-4.3-118.3l-1.6-1.2l0.5,33c0,0-0.7,17.5-1,21.8s-1.3-7.9-1.3-7.9c-1.3-17.2-3.9-63.9-3.5-47.7l1,38.3l-1.5,22.1
							l-2.6-27.8l-0.8-37.1l-2.5,6.2l-0.3,58.3c-2.3-18-3.5-35.3-5.1-53.9c-0.2-2-3.5-4.7-3.8-3s-3.1-16.7-3.1-16.7
							s-1.7,8.2-2.3,11.1c-0.6,2.9-3.2-12.2-3.2-12.2l-1.5,9.9l-3.2-11.8l-0.6,15.6l-0.2,22.7l-4.8-22.1l-3,28.6l-4.4-23.9
							l-3.7,25.1l-2.8-18.2l-2.1,21.2l-5.4-39.1l-4,60.9l-2.4-64.1l-2.1,62.4l-5.2-68.9l-3.1,40.2c0,0-3.9-52-4.2-53.8
							c-0.3-1.8-6.1,1-6.1,1l-5.5,1.9l-2.6,13l-1.5-7.1l-1.7-10.5l-1.9,1.3l-1.4-5.8l-3.9,75.5l-0.9-76.7l-6.8-5.4l-2.5,3.6
							l-5.9-1.4l-2.8-7.4l-2.3,7.2l-2.8-7.4L326.8,929z"/>
						<g>
							<polygon class="st11" points="365.1,817.5 380.9,839.2 382.5,841.5 384.2,841.1 400.1,837.8 							"/>
							<g>
								<path class="st12" d="M694.9,1013.1c-0.1,38.5-0.2,185.7-0.3,328.8l3.9,2.3c0.1-143.1,0.2-290.3,0.3-328.8L694.9,1013.1
									L694.9,1013.1z M593.7,1283.4c0.1-143,0.2-290,0.3-328.5l-3.9-2.3c-0.1,38.5-0.2,185.5-0.3,328.5L593.7,1283.4L593.7,1283.4
									z M489,1222.2c0.1-142.8,0.2-289.4,0.3-327.8l-3.9-2.3c-0.1,38.4-0.2,185-0.3,327.8L489,1222.2z"/>
								<path class="st11" d="M380.6,831.7c-0.1,38.4-0.2,184.7-0.3,327.4l3.9,2.3c0.1-142.7,0.2-289,0.3-327.4
									C383.1,833.1,382.2,832.6,380.6,831.7z"/>
							</g>
						</g>
					</g>
				</g>
				
					<linearGradient id="SVGID_4_" gradientUnits="userSpaceOnUse" x1="644.554" y1="1371.7227" x2="719.643" y2="821.7534" gradientTransform="matrix(1 0 0 -1 0 2000)">
					<stop  offset="0" style="stop-color:#FD70CB"/>
					<stop  offset="1" style="stop-color:#6E4DFD"/>
				</linearGradient>
				<path class="st13" d="M670.4,770.2c21.5,12.4,42.9,24.8,64.4,37.1c11.8,6.8,21.4,23.4,21.4,37l0.6,496.9c0,6.2-2,10.7-5.3,13.1
					c-3.9,2.9-9.8,6.9-14.8,7.5h-0.1c-3.4,0.6-7.5-0.2-11.9-2.7c-22.7-13-45.5-26.2-68.2-39.3V774.1L670.4,770.2z"/>
			</g>
			<g>
				<g>
					<path class="st5" d="M1252.4,1611.2c-0.1,21.3-7.7,36.4-19.8,43.4l-19.3,11.6c-66.2-28.3-41.6-363.8-45.7-459.2l20.3-500.6
						c-17.1-29.9-82.9-55.9-67.5-116.9l-194.1-90.8c-8.6-5.9-235.1-137-194.4-161.6c6.8-4.1,13.5-8.3,20.2-12.2
						c15-8.9,34.1-3.4,48.2,4.7l0,0l0,0l386.1,221.5c37.9,21.8,67.6,74.7,67.5,116.9L1252.4,1611.2z"/>
					
						<linearGradient id="SVGID_5_" gradientUnits="userSpaceOnUse" x1="840.8388" y1="898.3744" x2="1301.1963" y2="1247.9048" gradientTransform="matrix(1 0 0 -1 0 2000)">
						<stop  offset="0" style="stop-color:#6D6AFE"/>
						<stop  offset="1" style="stop-color:#3FB0F7"/>
					</linearGradient>
					<path class="st14" d="M712.2,380.5c0.1-20.9,7.3-35.8,19-43c12.4-7.6,29.7-6.8,48.9,4.3l386.1,221.5
						c37.4,21.6,67.6,74,67.5,116.9l-1.6,943.2c-0.1,42.9-30.6,60.3-68,38.7L778,1440.6c-37.4-21.6-67.6-74-67.5-116.9L712.2,380.5z
						"/>
				</g>
				<g>
					<path class="st15" d="M1179.9,642c10.1,5.8,18.3,1.1,18.4-10.5c0-11.6-8.1-25.8-18.3-31.6c-10.1-5.8-18.3-1.2-18.4,10.5
						C1161.6,621.9,1169.7,636.1,1179.9,642z"/>
					<path class="st15" d="M886.7,452.9c0-3.2,2.3-4.4,5-2.8c40.1,22.7,105.9,59.7,146,82.4c2.8,1.6,5,5.5,5,8.7v6.3
						c0,3.2-2.3,4.4-5,2.8c-40.1-22.7-105.9-59.7-146-82.4c-2.8-1.6-5-5.5-5-8.7V452.9z"/>
				</g>
			</g>
			<g>
				
					<linearGradient id="SVGID_6_" gradientUnits="userSpaceOnUse" x1="748.9193" y1="1634.9635" x2="752.1069" y2="1337.7646" gradientTransform="matrix(1 0 0 -1 0 2000)">
					<stop  offset="0" style="stop-color:#FD90DA"/>
					<stop  offset="1" style="stop-color:#8E6DFD"/>
				</linearGradient>
				<path class="st16" d="M715.2,346.6l52.1,30c12.8,7.4,23.2,25.4,23.2,40.2l-0.6,323.9c0,14.7-11.3,20.7-24.1,13.3l-54.1-31.1
					L715.2,346.6z"/>
				<g>
					<g>
						<path class="st5" d="M772.6,696.2c0,6.6-2.4,11.3-6.2,13.5c-2.7,1.7-5.5,3.4-8.2,5c-19.9-8.5-12.8-114.3-14-143l6.3-155.7
							c-5.3-9.3-25.8-17.4-21-36.4l-60.4-28.3l-151.6-92.9l0,0l0,0c-0.2-1.3-2.1-8.7-1.3-9.2c0.8-0.5,1.8-1.1,2.7-1.7l0,0
							c2.1-1.2,4.1-2.5,6.1-3.7c4.7-2.8,10.6-1.1,15,1.5l0,0l0,0l212,121.2c11.8,6.8,21,23.2,21,36.4L772.6,696.2z"/>
						
							<linearGradient id="SVGID_7_" gradientUnits="userSpaceOnUse" x1="630.9971" y1="1732.7009" x2="641.2911" y2="1393.7795" gradientTransform="matrix(1 0 0 -1 0 2000)">
							<stop  offset="0" style="stop-color:#FD90DA"/>
							<stop  offset="1" style="stop-color:#8E6DFD"/>
						</linearGradient>
						<path class="st17" d="M510.7,262.4c0-13.4,9.5-18.8,21.1-12l212,121.2c11.6,6.7,21,23,21,36.4l-0.5,293.4
							c0,13.4-9.5,18.8-21.1,12l-212-121.2c-11.6-6.7-21-23-21-36.4L510.7,262.4z"/>
					</g>
					<g>
						<g>
							<path class="st18" d="M529,276.5c0-1.6,1.1-2.2,2.5-1.4l25.3,14.5c1.4,0.8,2.5,2.7,2.5,4.3l-0.1,35c0,1.6-1.1,2.2-2.5,1.4
								l-25.3-14.5c-1.4-0.8-2.5-2.8-2.5-4.3L529,276.5z"/>
							<path class="st18" d="M564.4,310.3c0-3.4,2.4-4.8,5.4-3c43.6,24.6,115,64.8,158.6,89.5c3,1.8,5.4,6,5.4,9.5v6.8
								c0,3.4-2.5,4.8-5.4,3c-43.6-24.6-115-64.8-158.6-89.5c-3-1.8-5.4-6-5.4-9.5V310.3z"/>
						</g>
						<path class="st18" d="M528.9,338.6c0-3.4,2.4-4.8,5.4-3c43.6,24.6,37.6,21.6,81.2,46.2c3,1.8,5.4,6,5.4,9.5v6.8
							c0,3.4-2.5,4.8-5.4,3c-43.6-24.6-37.6-21.6-81.2-46.2c-3-1.8-5.4-6-5.4-9.5V338.6z"/>
						<path class="st18" d="M528.9,374.4c0-3.4,2.4-4.8,5.4-3c43.6,24.6,37.6,21.6,81.2,46.2c3,1.8,5.4,6,5.4,9.5v6.8
							c0,3.4-2.5,4.8-5.4,3c-43.6-24.6-37.6-21.6-81.2-46.2c-3-1.8-5.4-6-5.4-9.5V374.4z"/>
						<g>
							<path class="st18" d="M529,411.2c0-1.6,1.1-2.2,2.5-1.4l25.3,14.5c1.4,0.8,2.5,2.7,2.5,4.3l-0.1,35c0,1.6-1.1,2.2-2.5,1.4
								l-25.3-14.5c-1.4-0.8-2.5-2.7-2.5-4.3L529,411.2z"/>
							<path class="st18" d="M564.4,444.9c0-3.4,2.4-4.8,5.4-3c43.6,24.6,115,64.8,158.6,89.5c3,1.8,5.4,6,5.4,9.5v6.8
								c0,3.4-2.5,4.8-5.4,3c-43.6-24.6-115-64.8-158.6-89.5c-3-1.8-5.4-6-5.4-9.5V444.9z"/>
						</g>
						<path class="st18" d="M528.9,473.2c0-3.4,2.4-4.8,5.4-3c43.6,24.6,37.6,21.6,81.2,46.2c3,1.8,5.4,6,5.4,9.5v6.8
							c0,3.4-2.5,4.8-5.4,3c-43.6-24.6-37.6-21.6-81.2-46.2c-3-1.8-5.4-6-5.4-9.5V473.2z"/>
						<path class="st18" d="M528.9,509c0-3.4,2.4-4.8,5.4-3c43.6,24.6,37.6,21.6,81.2,46.2c3,1.8,5.4,6,5.4,9.5v6.8
							c0,3.4-2.5,4.8-5.4,3c-43.6-24.6-37.6-21.6-81.2-46.2c-3-1.8-5.4-6-5.4-9.5V509z"/>
						<path class="st18" d="M528.9,545.6c0-3.4,2.4-4.8,5.4-3c43.6,24.6,37.6,21.6,81.2,46.2c3,1.8,5.4,6,5.4,9.5v6.8
							c0,3.4-2.5,4.8-5.4,3c-43.6-24.6-37.6-21.6-81.2-46.2c-3-1.8-5.4-6-5.4-9.5V545.6z"/>
					</g>
				</g>
			</g>
			<g>
				<path class="st5" d="M1289.1,1383.8c0-11.1-2.6-18.1,2.3-24.1c3.7-4.6,12.2-8.6,16.7-10.1c8.7-3,19.6-1.4,31.6,5.5l110.3,62.6
					c27.8,16.1,50.3,55,50.2,87l-1.2,79.6c0,9.9-2.1,22.6-9.7,29.5c-5.4,5-14.9,9.9-22,10.5c-7.2,0.6-10-6.1-18.9-11.2l-110.3-62.6
					c-27.8-16.1-50.3-55-50.2-87L1289.1,1383.8z"/>
				
					<linearGradient id="SVGID_8_" gradientUnits="userSpaceOnUse" x1="1420.0057" y1="567.1815" x2="1372.0443" y2="488.3877" gradientTransform="matrix(1 0 0 -1 0 2000)">
					<stop  offset="0" style="stop-color:#FD90DA"/>
					<stop  offset="1" style="stop-color:#8E6DFD"/>
				</linearGradient>
				<path class="st19" d="M1281.1,1388.5c0.1-32,22.7-44.9,50.5-28.8l110.3,62.6c27.8,16.1,50.3,55,50.2,87l-1.2,79.6
					c-0.1,31.9-22.8,44.9-50.6,28.8l-110.3-62.6c-27.8-16.1-50.3-55-50.2-87L1281.1,1388.5z"/>
				<g>
					<polygon class="st20" points="1408.6,1464.5 1472.4,1533.2 1472.4,1550.6 1408.4,1545.7 1408.5,1525.1 1453.2,1530.6 
						1408.6,1485 					"/>
					<path class="st20" d="M1399.3,1445.3c1.2,1.9,1.7,3.8,1.7,5.8c0,1.5-0.5,4-1.4,7.4l-18,73.9c-0.6,2.5-1.1,4.3-1.6,5.7
						c-0.5,1.4-1.1,2.2-2.1,2.6c-0.9,0.4-2.2,0.1-3.9-0.9c-4.3-2.5-6.4-6-6.4-10.2c0-1.1,0.4-3.7,1.3-7.7l18-73.9
						c0.9-3.9,1.8-6.5,2.7-7.6c0.8-1.2,2.5-1.1,4.9,0.3C1396.6,1442,1398.2,1443.4,1399.3,1445.3z"/>
					<polygon class="st20" points="1296,1448.8 1296.1,1431.1 1360.1,1436.2 1360,1457 1315.4,1451 1359.9,1496.9 1359.8,1517.6 
											"/>
				</g>
			</g>
			<g>
				<g>
					<path class="st21" d="M1049.4,706.5l-38.2-19c-6.2-3.1-11.6-10.2-13.5-17.7l-11.4-46.4c-2-8.3-7.7-14.8-13.4-17.7
						c-5.7-2.8-11.4-2-13.6,4.2l-12.1,34.6c-1.9,5.6-7.5,7.3-13.6,4.2l-38.2-19.1c-13.8-7-19.8,9.8-8.6,24.4l30.7,40.4
						c5,6.5,7,14.7,5,20.2l-12.2,34.6c-3.4,9.5,4.5,23.1,13.4,27.5c2.8,1.4,5.7,1.9,8.4,1l31.1-9.7c2.5-0.8,5.5-0.3,8.4,1.1
						c2.9,1.5,5.9,3.9,8.3,7.2l30.7,40.5c2.6,3.5,5.5,5.9,8.3,7.3c8.9,4.4,16.9-1.3,13.8-14l-11.5-46.4c-1.8-7.4,0.3-13.6,5.4-15.1
						l31.2-9.5C1068.8,735.8,1063.2,713.4,1049.4,706.5z"/>
					<path class="st8" d="M893.9,810.8c0-6.9,4.9-9.5,10.8-6l134.9,76.2c6,3.5,10.8,12,10.8,18.8v13.6c0,6.9-4.9,9.5-10.8,6
						l-134.9-76.3c-6-3.5-10.8-12-10.8-18.8V810.8z"/>
				</g>
				<path class="st20" d="M817.3,1213.3c0-5.4,3.9-7.6,8.6-4.9c62.2,35.7,230.2,132.1,292.4,167.8c4.7,2.7,8.5,9.3,8.5,14.8
					l0.2,53.7c0,5.4-3.9,7.6-8.6,4.9c-62.2-35.7-230.2-132.1-292.4-167.8c-4.7-2.7-8.5-9.3-8.5-14.8L817.3,1213.3z"/>
				<g>
					<g>
						<polygon class="st20" points="1186.7,1106.2 1152.7,1086.5 1135.9,1113.7 1119.3,1067.3 1085.2,1047.5 1120.3,1135.1 
							1085.4,1181 1119.4,1200.7 1135.7,1174.3 1151.5,1219.2 1185.5,1238.8 1151.1,1152.9 						"/>
						<path class="st20" d="M1044.8,1099.4c0,16.3-0.3,27.4-14.5,19.2c-15-8.7-15.3-19.3-15.3-36.4l0.2-75.1l-30.7-17.7l-0.2,75.1
							c-0.2,57.9,22.2,72.1,42.9,84.1c1,0.6,2,1.2,3,1.7c19.2,11.1,45.4,25.8,45.5-33l0.2-75.1l-30.9-17.9L1044.8,1099.4z"/>
						<polygon class="st20" points="899.1,1086.8 930.6,1105 975.6,977.3 944.1,959.1 						"/>
						<polygon class="st20" points="861.4,1051.7 892.1,1069.4 892.5,936.3 861.8,918.6 						"/>
						<path class="st20" d="M818.3,968.6c0,16.3-0.4,27.3-14.5,19.2c-15.1-8.7-15.3-19.3-15.3-36.4l0.2-75.1l-30.8-17.8l-0.2,75.1
							c-0.2,57.9,22.3,72.2,43,84.2c1,0.6,2,1.2,3,1.7c19.1,11.1,45.4,25.8,45.6-33l0.2-75.1l-31-17.9L818.3,968.6z"/>
					</g>
					<path class="st21" d="M737.3,828.2l0.1-21.3l18.4,10.6l-0.1,21.1L737.3,828.2L737.3,828.2z M737.3,1033.3l0.1-21.3l18.4,10.6
						l-0.1,21.1L737.3,1033.3L737.3,1033.3z M1187.8,1085.1l0.1-21.3l18.4,10.6l-0.1,21.1L1187.8,1085.1L1187.8,1085.1z
						 M1187.8,1290.2l0.1-21.3l18.4,10.6l-0.1,21.1L1187.8,1290.2L1187.8,1290.2z M761.4,831.9v16.5l-14.7-8.4l0.4,171.1l14.2,8.1
						v15.2l420.7,241.7v-17l13.1,7.5l-0.4-171.1l-12.6-7.2v-14.7L761.4,831.9L761.4,831.9z M742.7,837.8l0.4,171.1l-11.6-6.6
						l0.1,34.4l29.8,17v-14.5l420.7,241.7v12.7l29.8,17l-0.1-34.4l-12.7-7.2l-0.4-171.1l13.2,7.5l-0.1-34.4l-29.8-17v15L761.3,827.3
						v-13.2l-29.8-17l0.1,34.4L742.7,837.8z"/>
				</g>
			</g>
			<g>
				
					<linearGradient id="SVGID_9_" gradientUnits="userSpaceOnUse" x1="1168.9784" y1="1279.3604" x2="1194.2104" y2="853.1743" gradientTransform="matrix(1 0 0 -1 0 2000)">
					<stop  offset="0" style="stop-color:#FD70CB"/>
					<stop  offset="1" style="stop-color:#6E4DFD"/>
				</linearGradient>
				<path class="st22" d="M1164.5,678.9l69.6,40.8l19.7-13.5l-0.1,371l-0.8,180.3l-20.3,9.7c-43.3-25.2-57.8-31-101.1-55.8
					c-11.8-6.8-21.3-23.3-21.3-36.8l-0.6-475.7C1109.6,662.4,1138.5,661.1,1164.5,678.9z"/>
				<g>
					<g>
						<path class="st5" d="M1144.1,682.3l9.5-5c3.3-1.1,7.5-0.5,12.1,2.1c114,65.4,227.7,133.1,341.7,198.4
							c10.7,6.2,19.4,21.3,19.4,33.6l0.6,451.2c0,5.6-1.8,9.7-4.8,11.9c-3.6,2.7-11,8.4-16.8,5c-114-65.4-225.6-138.9-339.6-204.2
							c-10.8-6.2-19.4-21.3-19.4-33.6L1144.1,682.3z"/>
						
							<linearGradient id="SVGID_10_" gradientUnits="userSpaceOnUse" x1="1299.8082" y1="846.5195" x2="1358.4757" y2="1093.7291" gradientTransform="matrix(1 0 0 -1 0 2000)">
							<stop  offset="0" style="stop-color:#1C8EF4"/>
							<stop  offset="1" style="stop-color:#00CFDD"/>
						</linearGradient>
						<path class="st23" d="M1138.3,694.8c0-12.4,8.8-17.4,19.5-11.1c114,65.4,227.7,133.1,341.7,198.4
							c10.7,6.2,19.4,21.3,19.4,33.6l0.6,451.2c0,12.3-8.8,17.3-19.5,11.1c-114-65.4-227.8-133.1-341.7-198.4
							c-10.8-6.2-19.4-21.3-19.4-33.6L1138.3,694.8z"/>
					</g>
					<g>
						<path class="st20" d="M1284.7,1079.8l-38.2-22.4c-2.3-1.4-4.2-1.8-5.5-1.5c-0.8,0.2-1.4,0.7-1.9,1.4c-0.6,0.9-1,2.1-1.1,3.6
							c-0.4,3.9,1.1,9.2,4.9,14.6l30.7,43c2.8,3.9,4.8,8.3,5.8,12.5c1.1,4.4,1,8.6-0.2,12.1l-12.2,33.5c-1.2,3.3-0.4,7.8,1.6,12
							c2.3,4.9,5.9,9.3,9.8,11.5c1,0.6,2.1,1,3,1.2c0.8,0.2,1.6,0.2,2.3,0l31.1-7c1.8-0.4,3.7-0.4,5.7,0.1c1.9,0.4,3.8,1.2,5.7,2.3
							c1.8,1,3.5,2.4,5.2,4c1.6,1.5,3.1,3.3,4.5,5.2l30.7,43.1c1.1,1.6,2.3,2.9,3.4,4c1.2,1.1,2.3,2,3.5,2.7
							c1.6,0.9,3.1,1.4,4.4,1.4c1,0,1.8-0.2,2.5-0.7s1.2-1.4,1.5-2.6c0.4-1.7,0.4-4-0.3-6.9c-3.8-15.8-8.5-32.3-11.7-48.1
							c-0.9-4.4-0.7-8.4,0.4-11.5c1.4-3.6,3.9-6.1,7.6-6.9c9.9-2.7,21.3-4.7,31.4-6.9c0.8-0.2,1.4-0.5,1.8-1c1-1.1,1.4-2.9,1.4-5.2
							c-0.1-2.7-0.9-5.7-2.2-8.7c-2.1-4.5-5.4-8.7-9.7-11.2l-38.2-22.3c-3.6-2.1-7-5.4-9.8-9.2c-2.7-3.7-4.8-8.1-5.8-12.5
							l-11.4-47.4c-0.8-3.5-2.4-6.7-4.3-9.4c-2.1-2.9-4.6-5.2-7-6.6l3.6-6.9c3.5,2,7,5.2,9.8,9.2c2.5,3.6,4.6,7.8,5.7,12.4
							l11.4,47.3c0.8,3.3,2.4,6.6,4.4,9.4s4.4,5.2,7,6.6l38.2,22.3c5.9,3.5,10.5,9.2,13.3,15.2c1.9,4,2.9,8.3,3,12
							c0.1,4.2-0.9,7.9-3.3,10.5c-1.4,1.5-3.2,2.6-5.5,3.1l-31.4,6.9c-1.1,0.3-1.9,1.2-2.4,2.5c-0.7,1.8-0.8,4.2-0.2,7l11.7,47.9
							c1,4.3,1.1,7.9,0.3,10.8c-0.7,2.8-2.2,5-4.1,6.5c-2,1.5-4.4,2.3-7.2,2.2c-2.7,0-5.6-0.9-8.5-2.6c-1.7-1-3.5-2.3-5.2-4
							c-1.5-1.5-3.1-3.2-4.5-5.3l-30.7-43.1c-1.1-1.5-2.2-2.8-3.4-3.9c-1.2-1.1-2.4-2-3.6-2.7c-1.1-0.6-2.2-1.1-3.2-1.3
							c-0.8-0.2-1.6-0.2-2.3-0.1l-31.1,7c-1.9,0.4-3.8,0.4-5.7,0c-1.9-0.4-3.8-1.2-5.6-2.2c-5.4-3.2-10.4-9.1-13.4-15.5
							c-2.9-6.1-3.9-12.8-1.9-18.3l12.2-33.5c0.7-2,0.7-4.6,0-7.4c-0.7-3.1-2.3-6.4-4.4-9.4l-30.7-43c-5.1-7.1-7.1-14.6-6.6-20.3
							c0.2-2.8,1.1-5.3,2.5-7.3c1.5-2.1,3.6-3.6,6.2-4.2c3.2-0.7,7.2-0.1,11.5,2.5l38.2,22.4L1284.7,1079.8z"/>
						<g>
							<path class="st24" d="M1334.3,856.8l-20.2-10.8l-20.2-12.4c-0.4,1.5-8.3,29.9-20.1,33.2c28,53.8,30.9,124.3,31,128l6.6,3.8
								l-0.1-96.7c-5.3-4.6-9.4-12.3-9.4-18.9c0-7.6,5.4-10.6,12-7c6.6,3.8,12,13.1,12,20.7c0,6.5-3.9,9.8-9.3,8.3v96.7l6.6,3.6
								c0.2-3.5,3-70.7,30.9-92.4C1342.5,896.3,1334.7,858.8,1334.3,856.8z"/>
							<polygon class="st15" points="1291.7,801 1291.7,835.6 1336.5,861.2 1336.6,826.7 							"/>
							<path class="st20" d="M1410.5,1080.7l-8.9-4.9v-10.5l8.9,5.1V1080.7L1410.5,1080.7z M1322.9,1036.1l-18.4-10.6l-0.1-21.2
								l18.5,10.5V1036.1L1322.9,1036.1z M1225.1,974.6l-9-5.2v-10.3l9,5.2V974.6L1225.1,974.6z M1214.4,857.2l0.1-21.3l18.4,10.6
								l-0.1,21.1L1214.4,857.2L1214.4,857.2z M1393.6,959.8l0.1-21.1l18.4,10.4l-0.1,21.3L1393.6,959.8L1393.6,959.8z
								 M1395.8,1055.4l0.1,9.3l-50.9-29.1c12.7,1.9,24.1,0.1,33.4-5.4c16.2-9.4,26.2-29.2,26.7-57.2l9.8,5.6l2.8,1.6l-0.1-34.4
								l-29.9-17.1l0.1,34.3l11.5,6.7c-0.4,26.2-9.9,44.8-25.1,53.6c-12.1,7.1-28,7.8-45.7,1.3l-0.1-13.1l-29.8-17v12.9
								c-17.8-13.8-33.7-32.6-45.8-53.6c-15.3-26.3-24.8-55.7-25.1-82.5l7.9,4.5l2.8,1.6l-0.1-34.4l-29.8-17l0.1,34.4l13.4,7.6
								c0.4,28.6,10.5,59.9,26.7,88c9.4,16.1,20.9,31.1,33.6,43.7l-51.7-29.6v-9.4l-20.4-11.6l0.1,23.6l17.4,9.9l2.8,1.6V975
								l68.1,39v14.6l26.9,15.5l3,1.7l0.1-14.8l67.1,38.5l0.1,9.3l17.4,10l3,1.6l-0.1-23.4L1395.8,1055.4z"/>
						</g>
					</g>
				</g>
			</g>
		</g>
		
			<linearGradient id="SVGID_11_" gradientUnits="userSpaceOnUse" x1="1330.8574" y1="1270.8179" x2="1488.7585" y2="1400.0098" gradientTransform="matrix(1 0 0 -1 0 2000)">
			<stop  offset="0" style="stop-color:#6D6AFE"/>
			<stop  offset="1" style="stop-color:#3FB0F7"/>
		</linearGradient>
		<path class="st25" d="M997.7,428.7h11.3l0.1,20.6c0,3.7-11.7,5.9-11.3-4.1L997.7,428.7L997.7,428.7z M1594.3,757H1583l-0.1-22.6
			h11.3L1594.3,757L1594.3,757z M1522.1,1166.2c1.7,0.7,3.5,1.4,5.4,2l3.6-10.7c-2.5-0.8-2.6-0.9-5-1.9
			C1521.7,1154.7,1518.3,1163.7,1522.1,1166.2L1522.1,1166.2z M1539.4,1171.2c8.6,1.3,16.9,0.7,25.1-2.3l-4-10.6
			c-6.2,2.4-12.9,2.7-19.4,1.7L1539.4,1171.2L1539.4,1171.2z M1575.8,1162.4c6.8-5.4,11.5-12.5,14.7-20.5l-10.5-4.1
			c-2.5,6.2-6,11.6-11.3,15.9L1575.8,1162.4L1575.8,1162.4z M1594,1130.1c1.6-8.3,1.7-15.2,1.7-23.6h-11.3c0,7.7,0,13.9-1.5,21.4
			L1594,1130.1L1594,1130.1z M1595.6,1095.2h-11.3l-0.1-22.6h11.3L1595.6,1095.2L1595.6,1095.2z M1595.4,1061.3h-11.3l-0.1-22.6
			h11.3L1595.4,1061.3L1595.4,1061.3z M1595.3,1027.3H1584l-0.1-22.6h11.3L1595.3,1027.3L1595.3,1027.3z M1595.1,993.4h-11.3
			l-0.1-22.6h11.3L1595.1,993.4L1595.1,993.4z M1595,959.5h-11.3l-0.1-22.6h11.3L1595,959.5L1595,959.5z M1594.9,925.6h-11.3
			l-0.1-22.6h11.3L1594.9,925.6L1594.9,925.6z M1594.7,891.6h-11.3l-0.1-22.6h11.3L1594.7,891.6L1594.7,891.6z M1594.6,857.7h-11.3
			l-0.1-22.6h11.3L1594.6,857.7L1594.6,857.7z M1594.4,823.8h-11.3l-0.1-22.6h11.3L1594.4,823.8L1594.4,823.8z M1594.3,789.9H1583
			l-0.1-22.6h11.3L1594.3,789.9L1594.3,789.9z M1592.8,721.3c-1.1-7.8-2.9-15.4-5.2-22.9l-10.8,3.3c2.2,6.8,3.8,14.1,4.8,21.2
			L1592.8,721.3L1592.8,721.3z M1583.9,687.4c-2.8-7.2-6.1-14.3-9.7-21.2l-10,5.4c3.4,6.4,6.5,13.1,9.1,19.9L1583.9,687.4
			L1583.9,687.4z M1568.3,656.1c-4.1-6.6-8.5-12.9-13.4-19l-8.8,7.1c4.6,5.7,8.8,11.7,12.6,17.9L1568.3,656.1L1568.3,656.1z
			 M1547.3,628.2c-5.3-5.8-11-11.1-17.2-16l-7,8.9c5.7,4.5,10.9,9.4,15.9,14.8L1547.3,628.2L1547.3,628.2z M1520.5,605.3
			c-6.4-4.1-13.2-7.8-19.8-11.5l-5.6,9.8c6.4,3.7,13.1,7.2,19.3,11.2L1520.5,605.3L1520.5,605.3z M1490.9,588.1l-5.6,9.8l-19.6-11.3
			l5.6-9.8L1490.9,588.1L1490.9,588.1z M1461.4,571.2l-5.6,9.8l-19.6-11.3l5.6-9.8L1461.4,571.2L1461.4,571.2z M1432,554.3l-5.6,9.8
			l-19.6-11.3l5.6-9.8L1432,554.3L1432,554.3z M1402.6,537.5l-5.6,9.8l-19.6-11.3l5.6-9.8L1402.6,537.5L1402.6,537.5z M1373.2,520.6
			l-5.6,9.8l-19.6-11.3l5.6-9.8L1373.2,520.6L1373.2,520.6z M1343.7,503.7l-5.6,9.8l-19.6-11.3l5.6-9.8L1343.7,503.7L1343.7,503.7z
			 M1314.3,486.8l-5.6,9.8l-19.6-11.3l5.6-9.8L1314.3,486.8L1314.3,486.8z M1284.9,470l-5.6,9.8l-19.6-11.3l5.6-9.8L1284.9,470
			L1284.9,470z M1255.5,453.1l-5.6,9.8l-19.6-11.3l5.6-9.8L1255.5,453.1L1255.5,453.1z M1226,436.2l-5.6,9.8l-19.6-11.3l5.6-9.8
			L1226,436.2L1226,436.2z M1196.6,419.3l-5.6,9.8l-19.6-11.3l5.6-9.8L1196.6,419.3L1196.6,419.3z M1167.2,402.4l-5.6,9.8L1142,401
			l5.6-9.8L1167.2,402.4L1167.2,402.4z M1137.8,385.6l-5.6,9.8l-19.6-11.3l5.6-9.8L1137.8,385.6L1137.8,385.6z M1108.3,368.7
			l-5.6,9.8l-19.6-11.3l5.6-9.8L1108.3,368.7L1108.3,368.7z M1078.7,351.8c-7.6-3.9-14.4-6.6-22.8-8.2l-2,11.1
			c1.6,0.4,3.2,0.7,4.8,1.1c5.2,1.4,10,3.5,14.7,6L1078.7,351.8L1078.7,351.8z M1043.4,342.6c-5.7,0-12.8,1.8-17.9,4.3
			c-1.3,0.6-2.6,1.3-3.9,2.1c-0.8,0.5-1.7,1.1-2.5,1.6l6.6,9.2c0.6-0.4,1.2-0.8,1.8-1.2c4.6-2.8,10.9-4.7,16.3-4.7L1043.4,342.6
			L1043.4,342.6z M1009.9,359.7l-0.7,0.9c-4.9,6.7-7.6,13.8-9.6,21.8l11,2.5c1.7-6.8,3.9-12.7,8.2-18.3l0,0L1009.9,359.7
			L1009.9,359.7z M997.9,394.3c-0.6,7.6-0.3,15.6-0.2,23.1h11.3c0-7.1-0.4-14.9,0.2-22.1L997.9,394.3z"/>
	</g>
	<g>
		<path class="st3" d="M716.3,1778.5l-220.7-125.7c-24.1-11-58.5-19.7-83-7c-22.3,11.6-59.1,35.4-75.4,44.7
			c-12.4,7-55.3,32.7-28.5,47.3c78.6,42.7,156.4,90.8,236.2,134.2c15.1,8.2,37.2,11.2,60.4,9.3c23.1-1.9,46.7-8.6,65.4-19.5
			c13.3-7.7,26.3-15.3,39.1-22.8c17.3-10.1,26.5-22,27.4-33C738,1795.2,731.1,1785.3,716.3,1778.5z"/>
		<g>
			
				<linearGradient id="SVGID_12_" gradientUnits="userSpaceOnUse" x1="505.6649" y1="540.6943" x2="406.2156" y2="494.813" gradientTransform="matrix(1 0 0 -1 0 2000)">
				<stop  offset="0" style="stop-color:#FF8A78"/>
				<stop  offset="1" style="stop-color:#FFA799"/>
			</linearGradient>
			<path class="st26" d="M437.7,1624.9c-1.1,3.2-2.3,6.3-3.7,9c-2.6,2.9-5.9,4.6-7.5,7.9c-8.3,17.6-10.1,34.5-4.3,124.8l21.2,0.4
				l2.7-31.9c2.6-12.9,9.9-31.8,12.8-43.5c6.3-25.1,7-37.9,10.7-56.1l0.2-0.1c23.2-70.8,47.2-140.4,66.5-211.7l66.1-191.8l2.1-51.4
				c0.3-8.3-4.1-14.4-6.7-20.9c-34.1,10-53.1,20.8-89.7,19.6c-11,16.3-26,46.9-26.6,69.9c-1.1,45,2.4,75-11.3,150.1
				C429.5,1536.4,453.1,1534.1,437.7,1624.9z"/>
			<g>
				<path class="st27" d="M399.1,1703.1c-2.3-0.3-6.7-0.5-7.2-1c-1.1-1.2-3.2-7.2-1.7-8.3C392.9,1691.9,398.3,1701.3,399.1,1703.1z"
					/>
				<path class="st28" d="M410.8,1667c2.5,8.1-1.1,15.8-3.6,24.2c-8.9,29.3-14.1,30.9-10.3,44.1c2.6,9.2,7.2,16.7,13,23.2
					c5.7,6.5,7.5,11.2,14.8,16.3c11.1,7.7,21,11.3,18.6-4.1c-0.9-5.4-2.5-11.6-3.6-14.3c-7.9-18.3-17-26.3-12.1-49.1
					c3.7-16.9,9.5-28.1,1.9-39.5L410.8,1667z"/>
				<path class="st29" d="M412.6,1648.7c-3.3,15.3-8.3,28.1-22.4,45c1.8-0.5,6.3,4.1,8.8,9.3c18.3-21.1,27.2-31.3,32.9-22.2
					c-0.5,7.6-3.3,21.4-5.7,32.1c-0.8,3.5-1.6,11.3,0.6,16.7c7.2,17.3,20.4,42.5,15.3,50.7c1.8-2.2,3.8-8.3,3.7-16.5
					c0-11.9-2.1-28.1-2.3-38c-0.3-13.4,4.7-25,5.5-43.3c0.2-5.1,0.3-10.2,0-15.3c-0.8-12.9-2.2-30-11.3-34.9
					c-3.2-1.7-11.6-0.5-16,1.7C415.7,1637.2,413.9,1642.9,412.6,1648.7z"/>
			</g>
			
				<linearGradient id="SVGID_13_" gradientUnits="userSpaceOnUse" x1="514.9624" y1="385.6939" x2="592.6074" y2="521.4162" gradientTransform="matrix(1 0 0 -1 0 2000)">
				<stop  offset="0" style="stop-color:#FFB89E"/>
				<stop  offset="0.9951" style="stop-color:#FFA799"/>
			</linearGradient>
			<path class="st30" d="M562.8,1671.7c-1.6,13.6-14.1,26.6-15.6,35.5c-3.7,21.4,11.8,10.3,29.4,37.8c7-0.1,22.5,25.3,43.5,26.6
				c4.8,0.3,13.4-11.4,3.9-19.6c-4.2-2.5-8-0.6-11.5-3.7c-6.8-6-14.8-52.9-14.3-71.2c19-100.8,31-196.9,49.9-295.6
				c9.5-49.6,11.3-80.2,8.1-116.7c-1.2-20.9,0.9-31.2-5.9-51.4c-2.7-7.9-6.3-14.4-10-20.9c-32.5,10-56.7,19.9-93.5,18.6
				c-8.4,16.3-15.7,38.2-12.7,61.2c5.9,45,28.5,77.7,33.4,154.8c-24.3,84.8,0.9,152.5-4.8,244.1
				C562.8,1671.3,562.8,1671.5,562.8,1671.7z"/>
			
				<linearGradient id="SVGID_14_" gradientUnits="userSpaceOnUse" x1="607.3899" y1="584.9885" x2="465.6875" y2="1018.7197" gradientTransform="matrix(1 0 0 -1 0 2000)">
				<stop  offset="0" style="stop-color:#965CF2"/>
				<stop  offset="1" style="stop-color:#FF8ADC"/>
			</linearGradient>
			<path class="st31" d="M632,1473.2c5-30.5,10.2-61,16.1-91.7c9.5-49.6,11.3-80.2,8.1-116.7c-1.2-20.9,0.9-31.2-5.9-51.4
				c-0.9-2.7-6.9-14.3-6.4-15.9c-10.3-22.7-11.7-89.4-11.6-90c4.8-35.3,24-47.8,13.7-78c-7.6-10.4-28.1-27.1-49.4-38.7
				c-30-16.4-63.4-26.7-81.4-28.7c-38-4.3-38.1,58.4-24.9,87.9c26.4,58.8,28.3,89,14.8,133.7c-10.5,17-23.1,44.3-23.6,65.4
				c-1.1,45,2.4,75-11.3,150.1c-6.3,21.3-11.1,39.2-14.7,54.7C483.3,1504.5,574.4,1500,632,1473.2z"/>
			<g>
				<path class="st29" d="M555,1690.8c17,2.1,32.9,43.6,46.1,61.7c6.4,8.8,19.9-0.3,14.4-2.6c2.8,0.2,13.1-1,20.7,0.2
					c10.7,1.7,6.9,12.4-0.3,17.4c-16.2,11.2-30.5,17.4-45.1,10.1c-2.4-1.2-5.7-3.5-9-6c-2.3-1.7-4.9-3.6-6-4.8
					c-4.7-5.7-6.6-14.8-10.9-22.6c-1.4-2.6-2.6-3.1-3.5-2.4c-1.8,2.5,0.1,39.8,0.9,47.3c-0.5,2.1-7.8,3.8-9.2,2.2l-13.5-66.3
					c-1.5-5.4-0.9-11.8,1.8-17C545.4,1700.1,553.2,1694,555,1690.8z"/>
				<path class="st28" d="M599.4,1780.4c-2.9-0.5-5.8-1.4-8.7-2.9c-2.4-1.2-5.7-3.5-9-6c-2.3-1.7-4.9-3.6-6-4.8
					c-5.1-6.2-7.6-17.6-13.3-25.4c1.9-1.2,6.9-1,11.9,7.2c7.5,13.8,12.6,23.9,22.5,30.6C597.6,1779.6,598.5,1780,599.4,1780.4z"/>
			</g>
			
				<linearGradient id="SVGID_15_" gradientUnits="userSpaceOnUse" x1="456.9332" y1="916.3115" x2="525.3199" y2="960.4447" gradientTransform="matrix(1 0 0 -1 0 2000)">
				<stop  offset="0" style="stop-color:#965CF2"/>
				<stop  offset="1" style="stop-color:#FF8ADC"/>
			</linearGradient>
			<path class="st32" d="M479.4,1068.4l64.9,14.8c13,5.8,3.2,33.5-9.7,36.7l-90.6-11.7c-23.1-4.9-28.1-20.1-23.1-32
				c0.1-0.2,0.2-0.5,0.3-0.7c1.6-7.3,47.7-73.7,54.3-82.7c9.3-12.5,18.9-20.5,22.9-23c7.8-4.7,18.2-3.5,25,0.7
				c9.3,5.7,12.4,15.2,8.8,23.9C525.6,1010.5,500.4,1041.7,479.4,1068.4z"/>
			<g>
				
					<linearGradient id="SVGID_16_" gradientUnits="userSpaceOnUse" x1="806.7218" y1="973.1913" x2="812.5057" y2="959.4036" gradientTransform="matrix(1 0 0 -1 0 2000)">
					<stop  offset="0" style="stop-color:#FFB89E"/>
					<stop  offset="0.9951" style="stop-color:#FFA799"/>
				</linearGradient>
				<path class="st33" d="M761.4,1041.6c15.5-9.5,36.5-27.4,50.9-29.4c9.1-4.6,22.5-12.2,31.1-16.7c6.3-3.3,9,7.6,3.6,11.1
					c-5.3,3.5-19.6,12.3-19.6,12.3c-0.2,0.1-0.4,0.2-0.6,0.2c3.5,5.8,4.1,13.8,3.1,19.5c-1.4,7.5-18,17.1-28.4,24
					c-9.2,6.2-20.3,1.5-26.5,6.4C764.4,1064.2,762.7,1051.8,761.4,1041.6z"/>
				
					<linearGradient id="SVGID_17_" gradientUnits="userSpaceOnUse" x1="713.4888" y1="888.5729" x2="641.0999" y2="1009.3839" gradientTransform="matrix(1 0 0 -1 0 2000)">
					<stop  offset="0" style="stop-color:#965CF2"/>
					<stop  offset="1" style="stop-color:#FF8ADC"/>
				</linearGradient>
				<path class="st34" d="M689.4,1085c17.3-13.9,38.8-26,56.3-36.8c2.8-1.7,7-1.7,9.2-3c2.7-1.6,4.9-2.9,6.5-3.8
					c6.2,3.4,13.9,16.1,17.3,26c-2.3,2-4.6,4.1-7,6.3c-1.8,1.7-3.7,7.6-5.5,9.3c-19.4,19.3-32.6,36.5-51.5,49.7
					c-2.7,1.9-14,11.7-21,15.3c-8.6,4.3-20.9,0-26.7-8.8c-5-4.5-9.5-9.4-12.3-12.1c-12.9-12-44.8-39.3-62.3-62.8
					c-12.8-17.2-10.7-26.7-5.7-35.7c11.8-20.9,29.5-34.3,49.1-15.3c9.3,9,15.6,24.1,23.6,34.5C668.5,1059.5,679.7,1072.3,689.4,1085
					z"/>
			</g>
			
				<linearGradient id="SVGID_18_" gradientUnits="userSpaceOnUse" x1="554.0866" y1="582.1958" x2="528.4249" y2="901.6995" gradientTransform="matrix(1 0 0 -1 0 2000)">
				<stop  offset="0" style="stop-color:#965CF2"/>
				<stop  offset="1" style="stop-color:#FF8ADC"/>
			</linearGradient>
			<path class="st35" d="M515.2,962.1c-11.9-1.3-20.1,3.9-25.3,12.6c-0.2,0.4-0.4,0.7-0.6,1.1l-0.3,0.5l-0.5,0.9l-0.1,0.3
				c-0.2,0.4-0.4,0.8-0.6,1.2l-0.2,0.4l-0.5,1.1l-0.1,0.2c-0.2,0.4-0.4,0.9-0.5,1.3l-0.1,0.4l-0.4,1.1l-0.1,0.4
				c-0.1,0.5-0.3,0.9-0.4,1.4l-0.1,0.3l-0.3,1.2l-0.1,0.4c-0.1,0.5-0.3,1-0.4,1.5l0,0c-0.1,0.5-0.2,1-0.3,1.5l-0.1,0.4
				c-0.1,0.5-0.2,0.9-0.3,1.4v0.2c-0.1,0.5-0.2,1-0.3,1.5l-0.1,0.5l-0.2,1.4v0.1l-0.2,1.5l-0.1,0.6l-0.1,1.2v0.4l-0.1,1.6v0.3
				l-0.1,1.3v0.6l-0.1,1.5v0.5v1.4v0.3v1.5v0.6v1.5v0.1c0,1.2,0,2.4,0.1,3.6v0.3l0.1,1.5v0.4l0.1,1.7v0.1l0.1,1.5v0.5l0.2,1.6v0.4
				l0.2,1.5v0.2l0.2,1.7v0.3l0.2,1.5l0.1,0.3l0.3,1.6l0.1,0.3l0.3,1.4l0.1,0.3c0.2,1.1,0.4,2.1,0.7,3.2l0.1,0.4l0.3,1.4l0.1,0.2
				l0.4,1.6v0.1c0.3,1,0.6,2.1,0.9,3.1l0.1,0.4l0.4,1.1l0.1,0.4l0.4,1.3l0.1,0.4l0.4,1.1l0.1,0.3c0.2,0.5,0.3,0.9,0.5,1.4v0.1
				l0.5,1.2l0.1,0.3l0.5,1.3c26.4,58.8,28.3,89,14.8,133.7c-10.5,17-23.1,44.3-23.6,65.4c-1.1,45,2.4,75-11.3,150.1
				c-6.3,21.3-11.1,39.2-14.7,54.7c12.8,23.3,38.9,34.9,69.1,38c124.3-136.5-51.1-185.5,15.6-310.7c7.6-14.3,54.3-32.4,65.9-50.1
				c25-29.3,34.9-58.3-2.9-105c-6.3-7.7-10.9-11.8-19.3-23.5c-13.7,3.2-39.3-1.3-42.3-6.9c-1.1-2,4.3-19.1,3.5-21.2
				C521.5,964.1,529,963.7,515.2,962.1z"/>
			<g>
				<g>
					
						<linearGradient id="SVGID_19_" gradientUnits="userSpaceOnUse" x1="568.2712" y1="1055.6606" x2="580.1053" y2="1020.5792" gradientTransform="matrix(1 0 0 -1 0 2000)">
						<stop  offset="0" style="stop-color:#FF8A78"/>
						<stop  offset="1" style="stop-color:#FFA799"/>
					</linearGradient>
					<path class="st36" d="M527.4,979.4c-2.9,12.5,42.7,26,58.3,19.2l0.3-3c4-18.6,8-34.5,10.8-47.6c7.3,3.1,25.1,4,26.7,1.5
						c-48.1-38.4-104.3-66.8-111.5-47.4c4.8,14,17.1,24,23.2,33.2c1.6,2.4,2.9,7.5,3.2,12.6l0,0
						C536.6,957.8,532.9,967.3,527.4,979.4z"/>
					<path class="st37" d="M623.2,949.8c-4.1,2.7-33.6-7.1-36-7c-22.9,1.1-47.5-0.7-52.1-7.5c-6.2-9.1-18.5-19.1-23.2-33.2
						c-7.6-22.4-6.1-47.8,14.4-65.4c35.7-30.6,91.7-8.2,99.7,26.5c3.3,14.2-0.8,15.4-0.1,25c1.2,17.6,3.2,10.9,1.6,38.7
						C626.9,937.6,626,948,623.2,949.8z"/>
					<path class="st38" d="M534,962.7c1.3,11.4,33.2,19.4,52.7,14.9c2.1-0.5,3.4-0.9,4.1-2.2c2.8,1.6,10.6,12.8,11.5,18.4
						c-16.8,16.2-69.8,6.7-76.2-12.3C524.5,976.9,523.1,968.4,534,962.7z"/>
				</g>
				
					<linearGradient id="SVGID_20_" gradientUnits="userSpaceOnUse" x1="570.4084" y1="1144.9155" x2="495.6469" y2="913.579" gradientTransform="matrix(1 0 0 -1 0 2000)">
					<stop  offset="0" style="stop-color:#5A2D68"/>
					<stop  offset="1" style="stop-color:#22043D"/>
				</linearGradient>
				<path class="st39" d="M445.7,925c-30.5,25.5-47.7,71.5-33.8,97.5c12.6,23.6,43.3,37.5,33.8,52.5c-7.8,12.4-26.2,24.8-4.3,44.7
					c11.3,10.3,38.7,37.8,94.8,23.6c54.7-13.9,112-61.1,66-112.8c-48.5-54.3-20.1-66.4,7.7-109.1c14.7-22.6,27.8-67.2,15.2-83.9
					c-21.6-28.5-35.9-8-56.7-18c-39.6-19.2-72.2-5.5-90.8,24.5C460.9,870.9,469.9,904.7,445.7,925z"/>
			</g>
		</g>
	</g>
</g>
<g>
	<g>
		
			<linearGradient id="SVGID_21_" gradientUnits="userSpaceOnUse" x1="244.3164" y1="1652.3755" x2="267.7138" y2="1750.9664" gradientTransform="matrix(1 0 0 -1 0 2000)">
			<stop  offset="0" style="stop-color:#1C8EF4"/>
			<stop  offset="1" style="stop-color:#00CFDD"/>
		</linearGradient>
		<path class="st40" d="M179.9,164.7c0-4.9,3.5-6.9,7.8-4.4c45.5,26.1,90.8,53.1,136.3,79.1c4.3,2.5,7.8,8.5,7.7,13.4l0.2,180
			c0,4.9-3.5,6.9-7.8,4.4c-45.5-26.1-90.8-53.1-136.3-79.1c-4.3-2.5-7.8-8.5-7.7-13.4L179.9,164.7z"/>
		
			<linearGradient id="SVGID_22_" gradientUnits="userSpaceOnUse" x1="1780.1854" y1="379.3423" x2="1666.1102" y2="441.4688" gradientTransform="matrix(1 0 0 -1 0 2000)">
			<stop  offset="0" style="stop-color:#6D6AFE"/>
			<stop  offset="1" style="stop-color:#3FB0F7"/>
		</linearGradient>
		<path class="st41" d="M1697.9,1519.9c0-3,2.1-4.2,4.7-2.7c27.4,15.7,54.8,32,82.3,47.8c2.6,1.5,4.7,5.1,4.7,8.1l0.1,108.7
			c0,3-2.1,4.2-4.7,2.7c-27.5-15.7-54.8-32-82.3-47.8c-2.6-1.5-4.7-5.1-4.7-8.1L1697.9,1519.9z"/>
		<g>
			
				<linearGradient id="SVGID_23_" gradientUnits="userSpaceOnUse" x1="1274.5197" y1="1678.6311" x2="1280.6703" y2="1476.7185" gradientTransform="matrix(1 0 0 -1 0 2000)">
				<stop  offset="0" style="stop-color:#FD90DA"/>
				<stop  offset="1" style="stop-color:#8E6DFD"/>
			</linearGradient>
			<path class="st42" d="M1202.4,315.2c0-4.9,3.5-6.9,7.8-4.4c45.5,26.1,90.8,53.1,136.3,79.1c4.3,2.5,7.8,8.5,7.7,13.4l0.2,180
				c0,4.9-3.5,6.9-7.8,4.4c-45.5-26.1-90.8-53.1-136.3-79.1c-4.3-2.5-7.8-8.5-7.7-13.4L1202.4,315.2z"/>
			
				<linearGradient id="SVGID_24_" gradientUnits="userSpaceOnUse" x1="1229.0856" y1="1709.4805" x2="1040.173" y2="1812.3645" gradientTransform="matrix(1 0 0 -1 0 2000)">
				<stop  offset="0" style="stop-color:#6D6AFE"/>
				<stop  offset="1" style="stop-color:#3FB0F7"/>
			</linearGradient>
			<path class="st43" d="M1092.9,123.7c0-4.9,3.5-6.9,7.8-4.4c45.5,26.1,90.8,53.1,136.3,79.1c4.3,2.5,7.8,8.5,7.7,13.4l0.2,180
				c0,4.9-3.5,6.9-7.8,4.4c-45.5-26.1-90.8-53.1-136.3-79.1c-4.3-2.5-7.8-8.5-7.7-13.4L1092.9,123.7L1092.9,123.7z M1104.7,144.4
				l0.2,152.1c0,4.2,2.9,9.2,6.5,11.3c38.4,22,76.8,44.9,115.2,66.9c3.6,2.1,6.6,0.4,6.6-3.8l-0.2-152.1c0-4.2-2.9-9.2-6.5-11.3
				c-38.4-22-76.8-44.9-115.2-66.9C1107.6,138.5,1104.7,140.2,1104.7,144.4z"/>
		</g>
	</g>
	<g class="st44">
		
			<linearGradient id="SVGID_25_" gradientUnits="userSpaceOnUse" x1="1651.9152" y1="1332.25" x2="1957.2156" y2="1332.25" gradientTransform="matrix(1 0 0 -1 0 2000)">
			<stop  offset="0" style="stop-color:#FD90DA"/>
			<stop  offset="1" style="stop-color:#8E6DFD"/>
		</linearGradient>
		<path class="st45" d="M1758.5,680.2c3.3,3.3,7.7,5,12.1,5c4.4,0,8.8-1.7,12.1-5c11.6-11.6,23-23.3,34.6-34.9
			c6.1-6.1,14.1-9.1,22.2-9.1c8,0,16.1,3,22.2,9.1c11.6,11.6,22.7,23.5,34.2,34.9c3.3,3.3,7.7,5,12.1,5c4.4,0,8.8-1.7,12.1-5l25-25
			c2.8-2.8,7.3-2.8,10,0c2.8,2.8,2.8,7.3,0,10l-25,25c-6.1,6.1-14.1,9.1-22.2,9.1c-8,0-16.1-3.1-22.2-9.1
			c-11.6-11.6-22.7-23.5-34.2-34.9c-3.3-3.3-7.7-5-12.1-5c-4.4,0-8.8,1.7-12.1,5c-11.6,11.6-22.9,23.2-34.6,34.9
			c-6.1,6.1-14.1,9.1-22.2,9.1c-8,0-16.1-3.1-22.2-9.1c-11.7-11.7-23.4-23.3-35.1-34.9c-3.3-3.3-7.7-5-12.1-5c-4.4,0-8.8,1.7-12.1,5
			l-25,25c-2.8,2.8-7.3,2.8-10,0c-2.8-2.8-2.8-7.3,0-10l25-25c6.1-6.1,14.1-9.1,22.2-9.1c8,0,16.1,3,22.2,9.1
			C1735.1,656.9,1746.8,668.5,1758.5,680.2z"/>
	</g>
</g>
</svg>
